<?xml version="1.0" encoding="UTF-8"?>
<svg id="Layer_1" xmlns="http://www.w3.org/2000/svg" version="1.1" xmlns:xlink="http://www.w3.org/1999/xlink" viewBox="0 0 1091.15 1080">
  <!-- Generator: Adobe Illustrator 30.2.1, SVG Export Plug-In . SVG Version: 2.1.1 Build 1)  -->
  <defs>
    <style>
      .st0 {
        fill: url(#linear-gradient2);
      }

      .st1 {
        fill: #57e6f3;
      }

      .st2 {
        fill: #ddfafa;
      }

      .st3 {
        fill: url(#linear-gradient10);
      }

      .st4 {
        fill: #3cd5f2;
      }

      .st5 {
        fill: #1b52a7;
      }

      .st6 {
        fill: #2eacec;
      }

      .st7 {
        fill: #fff;
      }

      .st8 {
        fill: url(#linear-gradient1);
      }

      .st9 {
        fill: url(#linear-gradient9);
      }

      .st10 {
        fill: #29c0ee;
      }

      .st11 {
        fill: url(#linear-gradient8);
      }

      .st12 {
        fill: url(#linear-gradient11);
      }

      .st13 {
        fill: #6ff7f0;
      }

      .st14 {
        fill: url(#linear-gradient12);
      }

      .st15 {
        fill: #92f3f7;
      }

      .st16 {
        fill: url(#linear-gradient7);
      }

      .st17 {
        fill: #c6f6f6;
      }

      .st18 {
        fill: #1b40a8;
      }

      .st19 {
        fill: url(#linear-gradient4);
      }

      .st20 {
        fill: url(#linear-gradient5);
      }

      .st21 {
        fill: url(#linear-gradient3);
      }

      .st22 {
        fill: url(#linear-gradient6);
      }

      .st23 {
        fill: #2c77d7;
      }

      .st24 {
        fill: #2b9be0;
      }

      .st25 {
        fill: url(#linear-gradient);
      }
    </style>
    <linearGradient id="linear-gradient" x1="562.82" y1="-581.38" x2="538.91" y2="375.67" gradientTransform="translate(0 496) scale(1 -1)" gradientUnits="userSpaceOnUse">
      <stop offset="0" stop-color="#0d165c"/>
      <stop offset="1" stop-color="#1262ab"/>
    </linearGradient>
    <linearGradient id="linear-gradient1" x1="275.93" y1="247.39" x2="553.72" y2="266.2" gradientTransform="translate(0 496) scale(1 -1)" gradientUnits="userSpaceOnUse">
      <stop offset="0" stop-color="#c7fafa"/>
      <stop offset="1" stop-color="#fffcfb"/>
    </linearGradient>
    <linearGradient id="linear-gradient2" x1="263.16" y1="-340.39" x2="287.73" y2="-317" gradientTransform="translate(0 496) scale(1 -1)" gradientUnits="userSpaceOnUse">
      <stop offset="0" stop-color="#25b1e7"/>
      <stop offset="1" stop-color="#2ecdee"/>
    </linearGradient>
    <linearGradient id="linear-gradient3" x1="268.62" y1="-288.84" x2="309.95" y2="-311.09" gradientTransform="translate(0 496) scale(1 -1)" gradientUnits="userSpaceOnUse">
      <stop offset="0" stop-color="#15c5f5"/>
      <stop offset="1" stop-color="#2586d5"/>
    </linearGradient>
    <linearGradient id="linear-gradient4" x1="629.51" y1="-492.35" x2="579.93" y2="-373.09" gradientTransform="translate(0 496) scale(1 -1)" gradientUnits="userSpaceOnUse">
      <stop offset="0" stop-color="#2d3eb7"/>
      <stop offset="1" stop-color="#3d6bd8"/>
    </linearGradient>
    <linearGradient id="linear-gradient5" x1="855.14" y1="-336.28" x2="817.47" y2="-288.61" gradientTransform="translate(0 496) scale(1 -1)" gradientUnits="userSpaceOnUse">
      <stop offset="0" stop-color="#3348be"/>
      <stop offset="1" stop-color="#217de3"/>
    </linearGradient>
    <linearGradient id="linear-gradient6" x1="176.17" y1="465.07" x2="309.67" y2="502.92" gradientTransform="translate(0 2)" gradientUnits="userSpaceOnUse">
      <stop offset="0" stop-color="#3fb2e7"/>
      <stop offset="1" stop-color="#13f9f7" stop-opacity=".99"/>
    </linearGradient>
    <linearGradient id="linear-gradient7" x1="338.49" y1="644.33" x2="291.49" y2="607.97" gradientTransform="translate(0 2)" gradientUnits="userSpaceOnUse">
      <stop offset="0" stop-color="#1a70ac"/>
      <stop offset="1" stop-color="#2f93c6"/>
    </linearGradient>
    <linearGradient id="linear-gradient8" x1="329.11" y1="679.37" x2="291.52" y2="706.38" gradientTransform="translate(0 2)" gradientUnits="userSpaceOnUse">
      <stop offset="0" stop-color="#1772ad"/>
      <stop offset="1" stop-color="#3493c2"/>
    </linearGradient>
    <linearGradient id="linear-gradient9" x1="275.9" y1="620.46" x2="278.95" y2="586.41" gradientTransform="translate(0 2)" gradientUnits="userSpaceOnUse">
      <stop offset="0" stop-color="#1575b3"/>
      <stop offset="1" stop-color="#3bb3db"/>
    </linearGradient>
    <linearGradient id="linear-gradient10" x1="434.42" y1="162.88" x2="400.7" y2="271.27" gradientTransform="translate(0 496) scale(1 -1)" gradientUnits="userSpaceOnUse">
      <stop offset="0" stop-color="#14a5ec"/>
      <stop offset="1" stop-color="#17c1f4"/>
    </linearGradient>
    <linearGradient id="linear-gradient11" x1="824.45" y1="-304.54" x2="803.67" y2="-279.07" gradientTransform="translate(0 496) scale(1 -1)" gradientUnits="userSpaceOnUse">
      <stop offset="0" stop-color="#29acd9"/>
      <stop offset="1" stop-color="#0fc8eb"/>
    </linearGradient>
    <linearGradient id="linear-gradient12" x1="333.42" y1="-401.28" x2="325.5" y2="-405.34" gradientTransform="translate(0 496) scale(1 -1)" gradientUnits="userSpaceOnUse">
      <stop offset="0" stop-color="#3f7fd1"/>
      <stop offset="1" stop-color="#1e9bdd"/>
    </linearGradient>
  </defs>
  <path class="st25" d="M1083.39,396.57c2.86-3.07,5.41-6.32,7.76-9.8-18.97-49.74-37.48-99.64-55.52-149.73-7.18,6.62-25.75,18.55-34.51,24.43-18.25,12.33-36.43,24.78-54.52,37.34-32.9-17.23-72.66-35.23-106.63-50.88,6.55-32.35,15.12-63.95,22.83-96.04,2.14-8.89,4.2-18.25,7.18-26.87-30.05,17.25-62.84,30.33-90.89,50.83-12.45,9.1-19.92,17.11-26.4,31.07-14.28-6.92-32.93-15.7-46.35-23.59-2.41-10.24-4.69-20.48-6.8-30.77-4.97,5.46-11.03,14.61-15.21,20.74-15.23-9.61-38.34-17.72-55.08-26.15-2.3-4.57-4.18-8.06-6.85-12.42-16.28-29.07-34.3-58.26-50.37-87.59-8.27-15.07-19.23-31.6-26.33-47.12-18.67,35.09-40.73,70.36-59.77,105.4-2.44,4.44-14.68,24.66-15.77,28.19-1.79,2.76-5.94,11.66-8.08,12.96-16.14,9.94-37.39,18.3-54.13,27.45l-14.81-19.67c-3.02,9.87-4.44,19.71-8.59,29.33-6.01,4.23-37.29,19.09-44.82,22.2-18.46-30-44.91-42.01-74.98-57.61-14.84-7.83-29.72-15.56-44.68-23.17,5.81,15.35,9.27,32.93,13.51,48.81,6.66,25.01,12.59,49.51,17.95,74.82-6.59,2.46-13.79,5.69-20.25,8.64-29.1,13.35-57.63,28.31-86.85,41.5-29.07-21.34-59.77-40.57-88.66-61.42L0,387.46c5.43,7.76,14.42,16.05,20.78,23.22,12.82,14.49,27.21,28.56,40.08,42.82-17.81-9.01-35.69-17.95-53.59-26.8,2.46,17.39,3.76,43.1,5.13,61.28,2.3,32.14,4.95,64.25,7.92,96.34.58,6.59,2.14,36.32,4.13,40.33,3.13,6.27,22.08,28.05,27.59,34.78l41.73,51.34,79.76,99.55c14,17.69,27.89,36.87,42.84,53.66,5.27,5.92,16.65,14.54,23.31,19.9l29.58,23.85c85.57,68.46,175.13,128.78,276.07,172.25,13.93-4.99,39.66-18.39,53.15-25.15,83.34-41.77,161.06-96.18,233.32-154.81,13.68-11.08,30.7-23.08,43.19-35.06,6.11-5.85,16.67-20.32,22.2-27.45,10.96-14.1,21.99-28.1,33.11-42.05l137.4-170.77c.93-6.34,1.42-16.42,1.97-23.1l3.95-44.12c3.92-43.68,8.22-86.92,10.75-130.71-12.26,6.73-39.01,21.32-51.74,25.26,17.25-18.09,33.72-37.13,50.74-55.47h0s0,0,0,0ZM272.82,334.05c-13.42,6.94-35.83,16.23-47.14,23.38,3.13,20.36,5.2,42.68,8.15,63.44,6.41,43.17,13.56,86.24,21.48,129.15.95,5.06,5.06,29.68,6.27,32.37,2.79,21.2,9.8,39.24,11.03,59.63,11.03-12.26,15.07-24.89,17.58-40.68,1.42,4.9,2.32,8.03,4.32,12.68,4.71,18.27,16.93,32.65,34.62,39.43-.33,1.21-.77,2.72-1.02,3.92-25.15,8.94-29.49,26.75-34.58,50.53-1.9-2.93-3.62-8.15-4.97-11.56-6.55-16.32-10.1-28.77-26.4-37.29-1.9-1.49-.86-1.09-3.25-1.28-3.09-.91-4.32-1.58-7.13-3.02,5.11-1.88,9.66-3.74,14.07-6.94-7.71.53-18.04,9.5-27.15,9.54-2.93-3.09-.28-4.53-3.37-7.9-.81-2.28-2.07-13.1-3.23-16.65-3.46-10.66-7.31-24.61-10.54-34.72-2.93-9.13-19.55-104.45-16.9-106.96.67,7.18,1.95,13.49,3.07,19.06,3.44,17.07-.49,24.34,20.13,25.73,2.35.16,7.2,2.97,9.8,1.97.16-4.9-2.88-21.97-3.58-27.73-3.27-26.7-9.01-52.94-12.86-79.62-2.11-15.16-4.04-30.35-5.78-45.58-.79-7.36-2.23-30.26-5.48-35.83,2.07-1.44,5.29-2.97,7.62-4.09,15.81-7.69,31.88-14.65,47.37-23.04,1.07-.58,3.07-.98,4.25-1.14,1.63,4.39,2.53,8.64,3.62,13.17h0Z"/>
  <path class="st15" d="M543.46,70.57c.93-2.28.67-2.9,2.35-3.74,3.04,5.13,7.62,13.05,10.24,18.39l-1.11.35c-1.72-2.74-5.69-10.94-7.11-11.87-.53,1.04-2.39,20.13-2.41,21.97l-.09,204.06c17.62,26.03,33.11,52.48,51.55,78.14-2.07.6-1.83.14-4.44-1.14,1.46,1.86,3,3.88,4.53,5.64-20.53,21.9-34.02,46.58-52.06,68.71.23,3.53.26,4.6,1.35,8.1l-.58,2.65-.58.33-86.89.05-.3-.98c-2.16-12.82-.58-84.27-3.48-89.54.49-2.51,5.25-11.45,6.62-14.47,13.51-30.07,28.72-59.19,43.24-88.77l30.72-63.83c-5.9-13.61-19.62-30.12-26.38-46.53,2.97-4.13,4.37-5.76,8.13-9.1,12.96,1.81,18.95,7.22,27.91,16,1.32-29.21-1.44-59.75.49-89.12.16-2.62.09-3.48-1.67-5.29h0Z"/>
  <path class="st5" d="M545.02,304.29c10.7,18.86,23.89,37.11,35.62,55.38,3.62,5.64,7.66,11.84,11.8,17.09,1.46,1.86,3,3.88,4.53,5.64-20.53,21.9-34.02,46.58-52.06,68.71-16.02-23.08-31.67-46.51-49.46-68.25,6.04-9.78,13.12-19.25,19.18-28.96,10.26-16.42,20.39-33.07,30.4-49.65v.02h0Z"/>
  <path class="st7" d="M517.68,383.12l-.26-.49c.12-3.32,26.1-44.7,28.12-45.21l1.16,1.67c2.21,5.18,7.62,12.98,10.94,17.95,2.74,2.74,16.67,22.29,15.79,25.8-1.83,1.81-3.27,3.9-4.74,6.01-7.5,10.77-14.98,21.55-22.94,32-9.52-11.47-19.46-25.52-28.07-37.73h0Z"/>
  <path class="st10" d="M545.62,381.52c3.95-.42,23.89.56,27.77,1.35-1.83,1.81-3.27,3.9-4.74,6.01-7.5,10.77-14.98,21.55-22.94,32-9.52-11.47-19.46-25.52-28.07-37.73,7.83-.79,21.62-.53,27.96-1.63h.02Z"/>
  <path class="st4" d="M546.01,358.74c.51-2.97.02-2.69,1.67-4.76,4.48-.42,4.27,3.2,9.94,3.09,2.74,2.74,16.67,22.29,15.79,25.8-3.88-.79-23.85-1.76-27.77-1.35-.33-6.46.19-16.09.37-22.78h0Z"/>
  <path class="st15" d="M546.69,339.12c2.21,5.18,7.62,12.98,10.94,17.95-5.69.09-5.48-3.53-9.94-3.09-1.63,2.07-1.14,1.79-1.67,4.76-.3-4.5.02-15.3.67-19.62h0Z"/>
  <path class="st10" d="M545.41,95.69l1.63-.12c10.36,14.58,25.64,43.68,35.25,60.23-6.06,13.58-15,26.52-21.97,39.73-1.76,3.34-3.55,6.9-5.41,10.17,7.62,13.44,16,32.81,23.36,47.39,14.98,29.28,29.56,58.77,43.75,88.45,1.37,2.9,9.13,18.83,9.47,20.36-.72,2.65-1.21,29.72-1.42,35.3-.74,20.57-3.41,44.26-3.39,64.46-23.73-.35-57.73-1.32-80.99.21l.58-2.65c-1.11-3.51-1.11-4.55-1.35-8.1,18.02-22.13,31.51-46.84,52.06-68.71-1.53-1.76-3.07-3.81-4.53-5.64,2.6,1.25,2.37,1.74,4.44,1.14-18.41-25.66-33.9-52.11-51.55-78.14l.09-204.06-.02-.02h0Z"/>
  <path class="st13" d="M592.43,376.73c2.6,1.25,2.37,1.74,4.44,1.14,1.58,1.83,2.9,3.53,4.37,5.43-11.87,11.84-28.4,37.34-38.71,51.6-5.11,7.06-10.54,17.55-16.28,24.29-1.11-3.51-1.11-4.55-1.35-8.1,18.02-22.13,31.51-46.84,52.06-68.71-1.53-1.76-3.07-3.81-4.53-5.64h0Z"/>
  <path class="st24" d="M649.51,397.47c44.31-38.57,86.08-78.44,130.97-116.48-3.55,11.36-6.8,22.8-9.75,34.32-3.25,12.79-6.55,25.36-10.52,37.94-1.3,4.11-7.29,13.35-5.83,16.09-7.83,9.68-20.39,20.64-28.79,30.21,2.37,4.46,9.68,17.83,10.96,21.78l-1.37.53c1.39,8.57-.98,22.18-4.99,29.65-11.45-5.6-26.52-14.21-37.73-18.97l-.84.21c-18.21,4.81-44.17,29.65-61.6,29.47-27.45-.28-57.63,1-84.87-.07l.58-.33c23.27-1.53,57.24-.56,80.99-.21-.02-20.2,2.65-43.89,3.39-64.46.21-5.57.7-32.65,1.42-35.3,5.87,11.91,11.89,23.78,18.04,35.57l-.05.02h0Z"/>
  <path class="st8" d="M543.46,70.57c1.76,1.81,1.83,2.67,1.67,5.29-1.93,29.4.84,59.91-.49,89.12-8.96-8.8-14.95-14.21-27.91-16-3.78,3.34-5.15,4.99-8.13,9.1,6.78,16.44,20.5,32.93,26.38,46.53l-30.72,63.83c-14.51,29.58-29.72,58.7-43.24,88.77-1.35,3.02-6.13,11.96-6.62,14.47-4.27,8.66-8.43,17.32-13.28,25.71-21.32-16.72-47.12-42.84-68.85-61.67-18.09-17.83-38.96-34.78-58.12-51.88l-1.04,1.18c4.64,15.91,9.1,31.86,13.38,47.86,2.93,10.7,6.11,26.66,12.54,35.25-3.81,1.21-1.04-.28-4.57-.35-4.3-3.18-23.36-21.36-25.47-26.33-4.34-10.22-8.34-27.8-11.22-38.99-5.85-23.01-11.59-46.07-17.21-69.15-3.51-14.49-6.94-30.58-11.08-44.7,13.35,6.41,21.25,10.73,32.18,20.92-2.21,4.39-.98,9.75,1.09,14.1,4.37,9.15,6.29,29.61,13.33,35.81-.35,2.3-.93,4.25-1.7,6.43l-.39,1.07c.35,1.97,1.32,2.83,2.9,4.23,14.58,12.75,29.44,25.45,44.05,38.15,25.78,22.38,51.43,44.93,76.98,67.62,3.88-5.53,6.94-12.47,10.03-18.51,25.78-50.27,48.23-103.61,75.24-153.19-9.73-13.77-19.27-34.16-29.14-49.34,1.65-2,15.51-26.66,17.51-30.26,10.24-18.41,21.97-36.71,31.86-55.13l.05.05h0Z"/>
  <path class="st15" d="M313.13,285.04c-1.6-1.21-4.32-2.83-4.5-4.81,2.37.46,3.67,2,5.55,3.62l-1.04,1.18h0Z"/>
  <path class="st1" d="M545.41,95.69c0-1.83,1.88-20.92,2.41-21.97,1.42.93,5.39,9.13,7.11,11.87l1.11-.35c2.51,2.95,12.7,20.85,14.58,24.64,4.23,8.45,26.38,40.85,25.54,47.56-5.62,7.45-22.11,37.97-27.7,47.86,14.86,28.93,28.21,58.75,42.7,87.84,13.89,27.84,26.36,56.96,41.57,84.06,8.31-6.69,16.6-14.95,24.59-22.18,12.17-10.82,24.41-21.57,36.71-32.23,18.76-16.42,44.82-37.22,62.42-54.08-.67-3.97-1.23-7.96-1.7-11.98l3.16,1.09c6.06-8.01,7.9-27.21,15.3-37.62,6.8-9.54,20.69-12.14,23.45-18.99l.86,1.56c-7.78,35.74-16.51,71.26-26.19,106.54-1.9,6.92-6.8,26.15-10.08,31.72-4.04,6.87-20.36,22.62-26.91,28.33-1.46-2.74,4.53-12.01,5.83-16.09,3.99-12.59,7.27-25.15,10.52-37.94,2.95-11.52,6.2-22.97,9.75-34.32-44.89,38.04-86.66,77.91-130.97,116.48-6.13-11.8-12.14-23.64-18.04-35.57-.35-1.53-8.1-17.46-9.47-20.36-14.19-29.68-28.77-59.17-43.75-88.45-7.36-14.58-15.72-33.95-23.36-47.39,1.86-3.3,3.65-6.83,5.41-10.17,6.97-13.19,15.91-26.15,21.97-39.73-9.59-16.56-24.89-45.65-35.25-60.23l-1.63.12.05.02h0Z"/>
  <path class="st23" d="M545.69.02c7.11,15.51,18.07,32.04,26.33,47.14,16.07,29.33,34.09,58.49,50.39,87.57-2.65-1.14-3.02-2.11-4.74-4.44-1.65,2-7.31,9.75-7.9,10.08-10.05,5.92-9.43,2.28-12.1,14.72-.26,1.23-.63,1.42-1.49,2.32.84-6.69-21.32-39.08-25.54-47.56-1.88-3.79-12.07-21.69-14.58-24.64-2.62-5.34-7.2-13.28-10.24-18.39-1.67.84-1.42,1.46-2.35,3.74-9.89,18.41-21.6,36.71-31.86,55.13-2,3.6-15.86,28.26-17.51,30.26-.79-.3-.46-.21-1.11-1.11.98-1.18,1.11-1.3,1.79-2.65-1.39.37-1.46.33-2.93.3-2.25-3.69-18.16-17.35-21.73-18.9,1.11-3.53,13.35-23.75,15.77-28.19C504.94,70.36,527,35.09,545.67,0l.02.02h0Z"/>
  <path class="st1" d="M372.3,335.73c21.73,18.86,47.53,44.98,68.85,61.67,4.85-8.36,9.01-17.02,13.28-25.71,2.9,5.27,1.32,76.72,3.48,89.54l-67.85.21c-.37-7.62-3.44-19.74-4.83-27.24-3.69-20.02-16.84-79.76-12.93-98.5v.02h0Z"/>
  <path class="st4" d="M314.18,283.85c19.16,17.09,40.03,34.04,58.12,51.88-3.9,18.74,9.24,78.46,12.93,98.5,1.39,7.5,4.46,19.62,4.83,27.24l67.85-.21.3.98c-28.96.74-62.21.21-91.26-.09-1.72-11.84-6.01-24.38-8.24-36.22-.53-2.86-1.04-5.74-1.86-8.52,2.81-5.94,6.11-11.61,9.87-17-2.28-3.18-4.3-5.36-6.92-8.24l.46-1.46c-1.42-3.13-17.79-19.78-21.15-22.5-6.46-8.59-9.64-24.57-12.54-35.25-4.3-16-8.75-31.95-13.38-47.86l1.04-1.18-.07-.05h0Z"/>
  <path class="st4" d="M774.76,256.71c-3.99-36.94,17.42-52.25,46.44-67.87-1.16,4.83-2.28,9.17-3.67,13.91l-.86-1.56c-2.76,6.85-16.63,9.47-23.45,18.99-7.43,10.38-9.24,29.58-15.3,37.62l-3.16-1.09h0Z"/>
  <path class="st17" d="M356.83,417.42c.84,2.76,1.35,5.67,1.86,8.52,2.23,11.84,6.52,24.41,8.24,36.22-9.43.07-18.72.16-28.14-.16,1.81-7.18,14.54-37.73,18.04-44.58h0Z"/>
  <path class="st15" d="M730.16,451.55c4.02-7.48,6.39-21.08,4.99-29.65l1.37-.53c6.87,14,11.47,27.4,17.6,41.29-7.94-3.32-16.42-6.97-23.96-11.1h0Z"/>
  <path class="st15" d="M301.73,209.57c10.03,9.5,15.12,20.97,15.49,34.76.09,5.06-.28,10.12-1.09,15.14-7.04-6.2-8.94-26.66-13.33-35.81-2.07-4.32-3.3-9.71-1.09-14.1h.02Z"/>
  <path class="st15" d="M339.07,368.17c3.37,2.72,19.76,19.39,21.15,22.5l-.46,1.46c-8.61-7.92-17.02-16.02-25.26-24.34,3.51.09.77,1.56,4.57.35v.02Z"/>
  <path class="st24" d="M45.79,482.2c5.64,2.67,10.73,5.06,16.23,8.06,8.57,3.46,28,13.68,36.62,18.04,10.61,5.39,38.06,18.09,46,24.57,4.88,5.25,8.22,11.35,11.73,17.55,15.02,26.94,23.69,56.94,25.29,87.73-.05,1.88-.16,4.04-.07,5.87-.39,12.47-.39,24.34,2.07,36.62.19.93-2.69,4.27-3.34,4.99,1.97,3.09,4.2,6.78,6.34,9.71,3.97,6.8,6.78,12.21,8.82,19.83-.26,1.09-.63,3.18-1,4.13,7.48,7.85,18.74,29,26.17,38.36.58-3.99-9.31-10.57.28-12.66,2.37,1,3.02,1.18,5.57.86.81,4.06,3.46,7.8,5.99,11.03-.67-4.9-2.16-3.34-1.72-5.6,5.55,1.35,10.54,5.13,15.21,7.59.81-5.94,1.88-9.71,4.25-15.14,1.28-1.35,3.97-2.35,6.08-4.04l1.32-1.14c2.67-2.51,5.92-4.74,8.92-6.92.65,4.88,1.81,18.09,4.34,21.6,2.37,3.23,3.46,5.16,5.39,8.66l1.72,4.18c2.58,6.46,6.46,17,9.54,22.78,4.39,10.8,8.87,21.55,13.47,32.25,1.35,3.39,2.67,6.78,3.95,10.19,3,4.32,9.24,21.08,10.54,26.33,1.58,3.78,3.09,7.45,4.5,11.31l-1.32.42c-.44,1.58-.53,1.81-.67,3.44,2.07,5.02,6.71,13.49,5.09,18.09,2.6,5.32,5.34,10.05,6.08,15.95,1.11,2.53,1.44,4.44,2.07,7.11l-53.25-42.01c-15.88-12.49-32.07-23.96-45.03-39.57-14.75-17.74-28.54-36.32-43.12-54.13l-132.36-163.4c-2.9-6.48-10.43-105.86-10.94-117.78l-.77-14.91v.02h0Z"/>
  <path class="st17" d="M45.79,482.2c5.64,2.67,10.73,5.06,16.23,8.06,8.57,3.46,28,13.68,36.62,18.04,10.61,5.39,38.06,18.09,46,24.57,4.88,5.25,8.22,11.35,11.73,17.55,15.02,26.94,23.69,56.94,25.29,87.73-.05,1.88-.16,4.04-.07,5.87-.39,12.47-.39,24.34,2.07,36.62.19.93-2.69,4.27-3.34,4.99,1.97,3.09,4.2,6.78,6.34,9.71,3.97,6.8,6.78,12.21,8.82,19.83-.26,1.09-.63,3.18-1,4.13-5.76-6.59-13.51-18.02-18.76-25.33l-39.45-55.96c-7.11-9.96-16.56-24.2-25.61-32.07-13.65,1.63-28.42,5.2-41.7,6.08-3.16.74-8.52,1.86-11.45,2.81-2.9-6.48-10.43-105.86-10.94-117.78l-.77-14.91v.05h0Z"/>
  <path class="st6" d="M144.64,532.89c4.88,5.25,8.22,11.35,11.73,17.55,15.02,26.94,23.69,56.94,25.29,87.73-.05,1.88-.16,4.04-.07,5.87-.39,12.47-.39,24.34,2.07,36.62.19.93-2.69,4.27-3.34,4.99-7.71-9.68-16.37-22.73-23.64-32.97-11.73-16.53-24.13-33.9-35.06-50.95,3.51-15.37,7.76-30.58,12.75-45.54l4.44-13.14c1.51-4.23,2.25-7.43,5.83-10.19l.02.02h0Z"/>
  <path class="st1" d="M144.64,532.89c4.88,5.25,8.22,11.35,11.73,17.55,15.02,26.94,23.69,56.94,25.29,87.73-.05,1.88-.16,4.04-.07,5.87l-1.02,2.25-.88.05c-2.86-8.48-8.48-20.9-12.01-29.7l-19.81-50.11c-1.3-3.2-8.13-22.43-9.03-23.48,1.51-4.23,2.25-7.43,5.83-10.19l-.02.02h0Z"/>
  <path class="st1" d="M46.56,497.11l1.35.65c.49-1.67.19-2.88-.05-4.62l.6.91,1.35-.63c3.51,4.74,8.52,16.3,11.05,22.18,9.85,19.53,20.23,38.78,31.12,57.75,5.55,9.71,13.75,22.97,18.65,32.65-13.65,1.63-28.42,5.2-41.7,6.08-3.16.74-8.52,1.86-11.45,2.81-2.9-6.48-10.43-105.86-10.94-117.78h.02Z"/>
  <path class="st15" d="M46.56,497.11l1.35.65c.49-1.67.19-2.88-.05-4.62l.6.91,1.35-.63c3.51,4.74,8.52,16.3,11.05,22.18l-1.04.65c-.21,3.18.7,5.06,1,8.08,2.48,25.54,4.5,51.13,7.43,76.63.39,3.46,1.02,7.66.7,11.1-3.16.74-8.52,1.86-11.45,2.81-2.9-6.48-10.43-105.86-10.94-117.78v.02h0Z"/>
  <path class="st2" d="M45.79,482.2c5.64,2.67,10.73,5.06,16.23,8.06l-4.13.09-.3.6c6.41,14.49,43.79,82.85,54.41,91.77,3.53-2.25,12.89-28.52,21.8-27.93l.58,1.42c-4.99,14.95-9.24,30.16-12.75,45.54,10.94,17.04,23.34,34.41,35.06,50.95,7.27,10.24,15.93,23.29,23.64,32.97,1.97,3.09,4.2,6.78,6.34,9.71,3.97,6.8,6.78,12.21,8.82,19.83-.26,1.09-.63,3.18-1,4.13-5.76-6.59-13.51-18.02-18.76-25.33l-39.45-55.96c-7.11-9.96-16.56-24.2-25.61-32.07-4.9-9.68-13.1-22.92-18.65-32.65-10.89-18.97-21.27-38.22-31.12-57.75-2.55-5.87-7.55-17.46-11.05-22.18l-1.35.63-.6-.91c.21,1.74.53,2.95.05,4.62l-1.35-.65-.77-14.91-.05.02h0Z"/>
  <path class="st18" d="M257.63,738.61c2.67-2.51,5.92-4.74,8.92-6.92.65,4.88,1.81,18.09,4.34,21.6,2.37,3.23,3.46,5.16,5.39,8.66l1.72,4.18c2.58,6.46,6.46,17,9.54,22.78,4.39,10.8,8.87,21.55,13.47,32.25,1.35,3.39,2.67,6.78,3.95,10.19,3,4.32,9.24,21.08,10.54,26.33,1.58,3.78,3.09,7.45,4.5,11.31l-1.32.42c-.44,1.58-.53,1.81-.67,3.44,2.07,5.02,6.71,13.49,5.09,18.09,2.6,5.32,5.34,10.05,6.08,15.95-.12-.33-.72-2.18-.98-2.32-3.25-1.86-12.19-11.24-14.23-12.42-14.56-22.92-30.28-44.31-46.21-66.23-14.88-20.5-29.17-42.63-44.21-62.88l-2.93-5.34c.58-3.99-9.31-10.57.28-12.66,2.37,1,3.02,1.18,5.57.86.81,4.06,3.46,7.8,5.99,11.03-.67-4.9-2.16-3.34-1.72-5.6,5.55,1.35,10.54,5.13,15.21,7.59.81-5.94,1.88-9.71,4.25-15.14,1.28-1.35,3.97-2.35,6.08-4.04l1.32-1.14h.02Z"/>
  <path class="st0" d="M220.64,757.7c.58-3.99-9.31-10.57.28-12.66,2.37,1,3.02,1.18,5.57.86.81,4.06,3.46,7.8,5.99,11.03,2.21,3.69,9.29,16.09,11.63,18.72,4.48,9.17,19.23,28.79,25.66,37.32,13.17,17.44,25.22,35.13,37.25,53.38,4.3,6.5,12.75,18.18,16.07,24.57,2.6,5.32,5.34,10.05,6.08,15.95-.12-.33-.72-2.18-.98-2.32-3.25-1.86-12.19-11.24-14.23-12.42-14.56-22.92-30.28-44.31-46.21-66.23-14.88-20.5-29.17-42.63-44.21-62.88l-2.93-5.34.02.02h0Z"/>
  <path class="st15" d="M257.63,738.61c2.67-2.51,5.92-4.74,8.92-6.92.65,4.88,1.81,18.09,4.34,21.6,2.37,3.23,3.46,5.16,5.39,8.66l1.72,4.18c-3.46,6.62-2.14,14.42-4.16,18.44-2.72-3.81-7.41-11.12-11.29-13.33-.6,1.97-.93,4.2-2.53,5.34-1.58-.81-2.07-2.72-2.86-4.48l-.81-1.81c-2.6-3.85-6.97-8.2-10.43-11.33.81-5.94,1.88-9.71,4.25-15.14,1.28-1.35,3.97-2.35,6.08-4.04l1.32-1.14.05-.02h0Z"/>
  <path class="st7" d="M257.63,738.61c1.7,1.04,2.95,1.42,3.2,3.72.79,6.78.95,23.43-4.46,27.93-2.6-3.85-6.97-8.2-10.43-11.33.81-5.94,1.88-9.71,4.25-15.14,1.28-1.35,3.97-2.35,6.08-4.04l1.32-1.14h.02Z"/>
  <path class="st4" d="M270.89,753.28c2.37,3.23,3.46,5.16,5.39,8.66l1.72,4.18c-3.46,6.62-2.14,14.42-4.16,18.44-2.72-3.81-7.41-11.12-11.29-13.33.09-3.04,6.55-14.51,8.34-17.95h0Z"/>
  <path class="st21" d="M278,766.15c2.58,6.46,6.46,17,9.54,22.78,4.39,10.8,8.87,21.55,13.47,32.25l-.3,3.51c-1.35.28-1.25.23-2.55-.19-7.64-13.51-16.18-26.68-24.29-39.92,2-3.99.7-11.82,4.16-18.44h-.02Z"/>
  <path class="st23" d="M232.46,756.95c-.67-4.9-2.16-3.34-1.72-5.6,5.55,1.35,10.54,5.13,15.21,7.59,3.44,3.13,7.83,7.48,10.43,11.33l.81,1.81c-1.79,2.32-2.21,3.46-5.18,4.04-9.01,1.72-6.18-8.96-12.01-8.94,1.49,2.97,4.57,5.27,4.11,8.48-2.35-2.62-9.43-15.02-11.63-18.72h-.02,0Z"/>
  <path class="st5" d="M318.01,872.85c-1.18-4.85-5.74-10.7-4.34-14.88l1.83-.26c1.58,3.78,3.09,7.45,4.5,11.31l-1.32.42c-.44,1.58-.53,1.81-.67,3.44v-.02h0Z"/>
  <path class="st23" d="M301.01,821.18c1.35,3.39,2.67,6.78,3.95,10.19l-1,.39c-2.35-1.7-4.11-4.81-5.81-7.27,1.3.42,1.23.46,2.55.19l.3-3.51h0Z"/>
  <path class="st5" d="M223.55,763.04c15.05,20.25,29.33,42.38,44.21,62.88,15.93,21.94,31.65,43.31,46.21,66.23l-1.7-.3c-6.32-5.67-13.33-10.77-19.53-16.39-18.99-17.23-41.75-31.09-57.1-51.88-13.31-18.04-25.59-36.83-36.55-56.4,5.11,5.13,14.05,23.41,18.99,27.8,1.3,1.16,15.93-5.29,19.44-3.81.93.39,1.3-.42,1.88-1.16-.07-3.34-13.54-21.62-16.44-26.1l.6-.91-.02.05h0Z"/>
  <path class="st23" d="M757.51,797.08c4.18-3.48,9.01-6.2,13.38-9.47-4.16,10.73-35.25,86.36-39.8,91.61-2.55,6.36-7.62,20.74-12.03,25.5-47.49,51.16-106.05,91.93-163.66,130.94-3.27,2.23-6.57,4.32-9.87,6.15-47.7-30.4-93.21-64.07-136.24-100.78-22.48-19.16-40.08-31.77-49.16-60.98-1.53-2.51-7.13-15.79-8.75-19.39-5.85-12.98-11.56-26.01-17.16-39.1-4.04-9.43-9.08-21.78-13.96-30.47,11.52,6.32,33.83,19.85,43.33,27.66,7.57,6.22,21.64,22.22,28.86,29.95,10.01,10.5,20.36,20.64,31.09,30.42,38.36,34.53,79.14,66.3,121.98,95.07,9.13-5.13,26.82-18.67,35.88-25.36,38.71-28,75.35-58.75,109.67-91.98,13.19-12.56,24.99-27.93,37.83-40.36,4.46-4.3,21.9-14.84,28.56-19.41h.05Z"/>
  <path class="st19" d="M757.51,797.08c4.18-3.48,9.01-6.2,13.38-9.47-4.16,10.73-35.25,86.36-39.8,91.61-2.55,6.36-7.62,20.74-12.03,25.5-47.49,51.16-106.05,91.93-163.66,130.94-3.27,2.23-6.57,4.32-9.87,6.15-47.7-30.4-93.21-64.07-136.24-100.78-22.48-19.16-40.08-31.77-49.16-60.98.67.19,1.35.35,2.02.53,12.35,12.84,24.75,25.19,38.36,36.69,33.95,29.14,69.22,56.73,105.68,82.67,9.13,6.53,18.6,12.56,27.96,18.72,2.04,1.35,10.33,5.99,11.29,6.76-.07-11.42.26-22.85.16-34.41,5.67-5.06,12.96-9.24,19.37-13.49,7.69-5.06,15.19-10.38,22.55-15.93,47.65-35.97,98.57-76.26,138.74-120.77,9.94-11.01,21.94-29.4,31.39-41.73-.05-.67-.09-1.32-.14-2h0Z"/>
  <path class="st24" d="M545.46,1025.38c8.61-3.65,19.02-12.56,26.94-17.76,51.53-33.93,99.48-73.28,144.39-115.55,2.9-2.72,10.68-12.21,13.47-13.63l.86.77c-2.55,6.36-7.62,20.74-12.03,25.5-47.49,51.16-106.05,91.93-163.66,130.94-3.27,2.23-6.57,4.32-9.87,6.15-47.7-30.4-93.21-64.07-136.24-100.78-22.48-19.16-40.08-31.77-49.16-60.98.67.19,1.35.35,2.02.53,12.35,12.84,24.75,25.19,38.36,36.69,33.95,29.14,69.22,56.73,105.68,82.67,9.13,6.53,18.6,12.56,27.96,18.72,2.04,1.35,10.33,5.99,11.29,6.76v-.02h0Z"/>
  <path class="st6" d="M947.59,532.73c7.96-6.78,41.19-22.2,52.29-27.54,15.42-7.5,30.77-15.14,46.05-22.94-.46,4.46-.72,9.31-1.07,13.79-.72,12.52-8.48,112.62-11.12,118.24-9.96,14.33-24.87,31.65-36.09,45.37l-57.19,70.66-56.87,71.22c-10.77,13.54-22.52,28.68-34.04,41.52-4.67,5.2-16.84,14.49-22.66,19.16-12.45,10.05-25.06,19.92-37.78,29.61-8.34,6.41-21.29,17.6-29.42,23.08-4.6,3.92-9.92,7.52-14.86,11.03,2.86-5.16,5.62-10.38,8.31-15.63,5.11-13.89,15.53-34.44,22.18-48.28-.21,7.71-2.69,15.23-5.46,22.41-.93,2.44-2.39,3.51-3.18,5.9l.77.12c1.16-2.07,10.43-14.65,12.63-17.9,17.49-25.71,36.6-51.67,55.29-76.4,13.93-18.41,40.71-62.95,57.38-76.12,5.22-4.71,7.43-7.66,11.01-13.72,2.67-5.53,4.6-13.12,7.15-19.3-1.83-5.09,1.14-38.22,1.74-46.09-3.62-23.04,6.55-43.49,11.54-66.02,2.14-9.68,16.23-34.85,23.41-42.17h0Z"/>
  <path class="st17" d="M947.59,532.73c7.96-6.78,41.19-22.2,52.29-27.54,15.42-7.5,30.77-15.14,46.05-22.94-.46,4.46-.72,9.31-1.07,13.79-.72,12.52-8.48,112.62-11.12,118.24-2.97-.81-5.22-1.21-8.22-1.72-15.02-2.16-30-4.64-44.93-7.45-4.6,3.53-19.58,25.87-24.03,31.84-17.3,23.1-33.48,47.67-50.39,70.96l-1.44.14-.93-1.79c2.67-5.53,4.6-13.12,7.15-19.3-1.83-5.09,1.14-38.22,1.74-46.09-3.62-23.04,6.55-43.49,11.54-66.02,2.14-9.68,16.23-34.85,23.41-42.17l-.05.05h0Z"/>
  <path class="st6" d="M947.59,532.73c3.34,4.06,4.57,6.9,6.06,11.89,5.85,18.95,11.38,37.99,16.58,57.12-18.72,27.26-39.66,59.12-59.31,85.24-1.83-5.09,1.14-38.22,1.74-46.09-3.62-23.04,6.55-43.49,11.54-66.02,2.14-9.68,16.23-34.85,23.41-42.17l-.02.02h0Z"/>
  <path class="st1" d="M947.59,532.73c3.34,4.06,4.57,6.9,6.06,11.89-5.06,4.69-33.44,91.07-40.98,96.27-3.62-23.04,6.55-43.49,11.54-66.02,2.14-9.68,16.23-34.85,23.41-42.17l-.02.02h0Z"/>
  <path class="st1" d="M1030.38,517.55c.28-2.6,8.78-20.16,11.61-22.9l1.37.81-.46,1.65.77-.65.7.05.49-.46c-.72,12.52-8.48,112.62-11.12,118.24-2.97-.81-5.22-1.21-8.22-1.72-15.02-2.16-30-4.64-44.93-7.45,6.5-6.11,43.79-76.3,49.81-87.59v.02h0Z"/>
  <path class="st13" d="M1030.38,517.55c.28-2.6,8.78-20.16,11.61-22.9l1.37.81-.46,1.65.77-.65.7.05.49-.46c-.72,12.52-8.48,112.62-11.12,118.24-2.97-.81-5.22-1.21-8.22-1.72-.51-.26-2.37-1.32-2.32-1.97,2.51-30.33,3.62-61.09,8.13-91.21-.3-.6-.63-1.23-.93-1.83h0Z"/>
  <path class="st20" d="M899.34,717.57c2.35,3.04-1.35,11.08-2.16,15.33-2.37,9.15-3.04,21.36-6.27,30.12-2.41,6.57-8.24,15.58-11.59,21.83-12.31,23.1-27.01,51.2-49.81,65.65-3.81,3.25-6.8,5.69-10.84,8.61-4.02,3.62-45.4,38.52-46.65,38.64,15.26-17.07,26.7-37.32,40.33-55.64,22.32-30,44.47-60.1,64.9-91.42,4.44-6.8,15.56-21.55,18.46-28.45l3.62-4.67h0Z"/>
  <path class="st18" d="M818.65,859.12l-.65-1.53c2.55-3.2,7.29-7.01,11.49-7.08-3.81,3.25-6.8,5.69-10.84,8.61h0Z"/>
  <path class="st4" d="M892.75,720.03c5.22-4.71,7.43-7.66,11.01-13.72l.93,1.79,1.44-.14c-1.72,2.81-5.92,7.87-6.8,9.64l-3.62,4.67c-1.88-.65-1.74-.63-2.97-2.23h.02Z"/>
  <path class="st24" d="M753.1,910.3l-.05.65c-.21,2.74-.42,3.6-1.14,6.22l.3.93c2.69-1.46,4.41-2.69,7.43-3.2-4.6,3.92-9.92,7.52-14.86,11.03,2.86-5.16,5.62-10.38,8.31-15.63h0Z"/>
  <path class="st1" d="M166.7,326.14c30.42-12.98,60.79-31.88,92.58-43.68.98,3.41,1.74,6.85,2.53,10.31,1.97,9.5,4.41,18.88,7.36,28.12-1.18.16-3.18.56-4.25,1.14-15.47,8.38-31.56,15.37-47.37,23.04-2.3,1.11-5.55,2.65-7.62,4.09,3.25,5.55,4.67,28.47,5.48,35.83,1.74,15.21,3.67,30.4,5.78,45.56,3.83,26.68,9.59,52.92,12.86,79.62.7,5.78,3.74,22.85,3.58,27.73-2.6,1-7.45-1.81-9.8-1.97-20.62-1.39-16.7-8.66-20.13-25.73-1.11-5.57-2.39-11.89-3.07-19.04-2.65,2.51,13.98,97.81,16.9,106.96,3.23,10.08,7.08,24.06,10.54,34.72,1.14,3.55,2.41,14.37,3.23,16.65.53,10.98.79,15.86-5.83,25.57-.6.91-.7,1.14-1,2.16l-.37.19c-1.74,1.97-4.92,5.34-6.41,7.31l-2.76,1.53c-1.56,1.93-3.13,2.88-5.13,4.32-7.38-3.27-11.19,1.9-12.49-6.66l-.3-1.23c.49-2.95.46-5.81.53-8.8-.21-3.44.77-4.88-.53-8.36l-1.79-.74c-.09-1.32-2.74-4.53-2.86-5.78-.86-10.61,6.22-22.01,11.17-31,.93-1.72,3.72-1.72,5.92-2.11.95-3.18-2-6.32-.07-10.5-1.74-6.46-3.48-16.05-4.9-22.73-4.6-22.04-8.75-44.17-12.49-66.37-11.96-66.39-21.73-133.15-29.3-200.16v.05h0Z"/>
  <path class="st2" d="M261.81,292.77c1.97,9.5,4.41,18.88,7.36,28.12-1.18.16-3.18.56-4.25,1.14-15.47,8.38-31.56,15.37-47.37,23.04-2.3,1.11-5.55,2.65-7.62,4.09-3.34.53-26.7-11.87-30.72-14.26,5.83-4.27,18.11-9.78,24.96-13.07l38.45-18.58c5.02-2.44,15.35-7.04,19.18-10.5v.02h0Z"/>
  <path class="st17" d="M213.4,615.4c2.11,8.68,3.65,20.53,5.69,27.96,4.11-.74,5.43-1.21,9.33-2.67-.37,2.67-2,13.19-1.9,15.26,1.56,5.53-2.32,17.11.14,21.18l1.49.28c-1.74,1.97-4.92,5.34-6.41,7.31l-2.76,1.53c-1.56,1.93-3.13,2.88-5.13,4.32-7.38-3.27-11.19,1.9-12.49-6.66l-.3-1.23c.49-2.95.46-5.81.53-8.8-.21-3.44.77-4.88-.53-8.36l-1.79-.74c-.09-1.32-2.74-4.53-2.86-5.78-.86-10.61,6.22-22.01,11.17-31,.93-1.72,3.72-1.72,5.92-2.11.95-3.18-2-6.32-.07-10.5l-.02.02h0Z"/>
  <path class="st23" d="M213.4,615.4c2.11,8.68,3.65,20.53,5.69,27.96-4.6,3.85-18.09,14.33-17.44,20.32.46,4.18,1.04,5.18.44,10.1l-.53.14c-.21-3.44.77-4.88-.53-8.36l-1.79-.74c-.09-1.32-2.74-4.53-2.86-5.78-.86-10.61,6.22-22.01,11.17-31,.93-1.72,3.72-1.72,5.92-2.11.95-3.18-2-6.32-.07-10.5v-.02h0Z"/>
  <path class="st13" d="M226.52,655.94c1.56,5.53-2.32,17.11.14,21.18l1.49.28c-1.74,1.97-4.92,5.34-6.41,7.31l-2.76,1.53c-1.56,1.93-3.13,2.88-5.13,4.32-7.38-3.27-11.19,1.9-12.49-6.66l-.3-1.23c.49-2.95.46-5.81.53-8.8l.53-.14c.19,1.93.09,2.07,1.02,3.83,6.87,4.2,10.82-5.13,17.21-5.78,1.25-.12,1.46-.26,2.69-.63,1.16-1.86,2.88-12.4,3.48-15.26v.05h0Z"/>
  <path class="st1" d="M201.02,682.69c2.72-1.14,12.84,1.02,14.56,2.55l-2.02,2.11.09.51c4.16-.14,1.16-2.28,5.32-1.6-1.56,1.93-3.13,2.88-5.13,4.32-7.38-3.27-11.19,1.9-12.49-6.66l-.3-1.23h-.02Z"/>
  <path class="st6" d="M831.07,282.37c28.68,12.24,56.54,26.38,84.92,39.29,2.97,1.35,5.85,2.81,8.64,4.53l-1.44,9.61c-7.24,60.58-15.44,120.12-26.82,180.05-1.35,7.06-2.72,14.42-3.83,21.5-4.78-3.41-7.66-5.2-12.91-7.92-6.46-2.67-19.3-9.94-25.91-13.42l-10.68-5.81c5.94-35.88,11.61-71.82,17-107.79,2.14-14.86,3.48-30.44,5.76-44.98-10.36-7.15-35.69-17.58-48.28-23.2,1.25-4.55,2.58-9.08,3.9-13.61,2.44-7.36,5.11-19.51,6.99-27.26l2.69-11.03-.02.02h0Z"/>
  <path class="st1" d="M831.07,282.37c28.68,12.24,56.54,26.38,84.92,39.29,2.97,1.35,5.85,2.81,8.64,4.53l-1.44,9.61c-4.39-.81-7.8-2.48-12.4-2.95l-.84.16c-8.92,4.97-18.83,10.89-27.84,15.44-1.74-.98-2.88-2.6-5.22-3.67-13.68-6.11-27.59-11.68-41.08-18.18-4.37-2.11-9.75-4.9-14.42-5.92,2.44-7.36,5.11-19.51,6.99-27.26l2.69-11.03v-.02h0Z"/>
  <path class="st15" d="M831.07,282.37c28.68,12.24,56.54,26.38,84.92,39.29,2.97,1.35,5.85,2.81,8.64,4.53l-1.44,9.61c-4.39-.81-7.8-2.48-12.4-2.95-11.77-6.62-25.36-12.35-37.57-18.16-14.93-7.08-29.79-14.44-44.82-21.29l2.69-11.03h-.02,0Z"/>
  <path class="st4" d="M821.37,320.68c4.67,1.02,10.05,3.81,14.42,5.92,13.51,6.52,27.4,12.07,41.08,18.18,2.35,1.07,3.48,2.69,5.22,3.67-2.07,2.95-5.69,38.76-7.41,46.44-2.97,13.24-15.95,114.99-20.99,121.17l-10.68-5.81c5.94-35.88,11.61-71.82,17-107.79,2.14-14.86,3.48-30.44,5.76-44.98-10.36-7.15-35.69-17.58-48.28-23.2,1.25-4.55,2.58-9.08,3.9-13.61h-.02Z"/>
  <path class="st1" d="M910.77,332.85c4.6.46,8.01,2.14,12.4,2.95-7.24,60.58-15.44,120.12-26.82,180.05-1.35,7.06-2.72,14.42-3.83,21.5-4.78-3.41-7.66-5.2-12.91-7.92,3.97-12.07,6.59-32.86,8.92-46.19,6.76-37.78,12.49-75.72,17.18-113.81.79-6.08,4.53-32.42,4.25-36.48l.84-.16-.02.05h0Z"/>
  <path class="st17" d="M1015.47,288.91l2.41-1.76c3.46,1.6,4.37,8.85,5.81,12.73l12.68,34.81c2.21,5.99,17.97,44.61,17.3,47.12-2.86,2.69-8.71,10.05-11.66,13.28-5.67,6.2-11.38,12.31-17.09,18.46l-38.71,41.05c-18.39,19.53-34.88,37.32-55.1,55.34,7.18-41.19,13.58-82.53,19.23-123.98,1.76-13.65,5.32-39.34,6.04-53.08l.14-1.95c2.48-3.69,31.97-22.69,38.17-26.94,2.11-2.48,16.9-12.33,20.76-15.07h.02Z"/>
  <path class="st6" d="M956.4,332.87c.44,3.6.46,4.27,2.37,7.48l1.14,3.67c2.09,5.76,7.71,19.18,9.03,24.03,2.65,5.57,9.54,25.68,11.12,27.82-.95,2.14-1.04,2.6-1.53,4.92l.79.67c21.22-2.41,53.8-17.28,74.38-19.67-2.86,2.69-8.71,10.05-11.66,13.28-5.67,6.2-11.38,12.31-17.09,18.46l-38.71,41.05c-18.39,19.53-34.88,37.32-55.1,55.34,7.18-41.19,13.58-82.53,19.23-123.98,1.76-13.65,5.32-39.34,6.04-53.08h0Z"/>
  <path class="st10" d="M968.93,368.05c-4.16-.49-10.8-19.32-9.03-24.03,2.09,5.76,7.71,19.18,9.03,24.03Z"/>
  <path class="st1" d="M1015.47,288.91c.33,5.41-4.32,17.02-6.32,22.57-5.9,18.09-12.1,35.99-18.76,53.83-2.23,5.99-7.59,26.22-10.31,30.56-1.56-2.14-8.48-22.25-11.12-27.82-1.32-4.85-6.94-18.3-9.03-24.03l-1.14-3.67c-1.9-3.2-1.93-3.9-2.37-7.48l.14-1.95c2.48-3.69,31.97-22.69,38.17-26.94,2.11-2.48,16.9-12.33,20.76-15.07h-.02,0Z"/>
  <path class="st15" d="M956.4,332.87l.14-1.95c2.48-3.69,31.97-22.69,38.17-26.94.95,3.09.72,6.41-.72,9.31-1.42,2.9-2.97,4.48-5.29,6.62l-2.67,2.51c-8.99,6.25-18.27,11.36-27.26,17.9-1.9-3.2-1.93-3.9-2.37-7.48v.02h0Z"/>
  <path class="st15" d="M1015.47,288.91c.33,5.41-4.32,17.02-6.32,22.57-8.36-3.39-15.49,7.59-23.13,10.94l2.67-2.51c2.32-2.16,3.88-3.72,5.29-6.62s1.67-6.22.72-9.31c2.11-2.48,16.9-12.33,20.76-15.07h0Z"/>
  <path class="st17" d="M37.64,380.71c.02-.7,0-.6.23-1.3,6.39-17.23,13.26-34.34,19.76-51.53,4.69-12.35,8.64-24.94,13.49-37.22.79-2.02.86-2.9,2.42-3.67l2.28,1.35c10.98,8.66,23.64,17.09,35.23,24.99,7.92,5.39,15.91,9.92,23.52,15.91,0,2.51-.09,6.36.12,8.75,3.55,19.97,5.34,43.82,7.87,64.16,4.27,32.3,8.94,64.55,14,96.76.63,1.95,1.37,8.29,1.67,10.61-8.66-10.61-22.64-22.52-32.83-33.25-20.69-21.78-41.12-43.7-61.3-65.95-5.81-6.41-22.94-22.99-26.45-29.56v-.05h0Z"/>
  <path class="st24" d="M134.68,337.96c3.55,19.97,5.34,43.82,7.87,64.16,4.27,32.3,8.94,64.55,14,96.76.63,1.95,1.37,8.29,1.67,10.61-8.66-10.61-22.64-22.52-32.83-33.25-20.69-21.78-41.12-43.7-61.3-65.95-5.81-6.41-22.94-22.99-26.45-29.56,8.85,1.88,17.58,4.25,26.17,7.06,14.81,3.99,32.97,8.15,47.12,12.42.74-2.37.3-2.28-.37-5.11,1.46-1.67,5.25-9.2,5.78-11.24,1.76-6.85,18.3-39.52,18.14-43.35l.23-2.55h-.02Z"/>
  <path class="st4" d="M37.64,380.71c8.85,1.88,17.58,4.25,26.17,7.06l-1.07,1.95c1.32,2.11,6.97,8.22,8.87,10.45l18.14,21.32c21.41,25.43,43.35,53.97,66.81,77.39.63,1.95,1.37,8.29,1.67,10.61-8.66-10.61-22.64-22.52-32.83-33.25-20.69-21.78-41.12-43.7-61.3-65.95-5.81-6.41-22.94-22.99-26.45-29.56v-.02h0Z"/>
  <path class="st13" d="M75.84,288.33c10.98,8.66,23.64,17.09,35.23,24.99,7.92,5.39,15.91,9.92,23.52,15.91,0,2.51-.09,6.36.12,8.75l-.23,2.55c.16,3.83-16.37,36.5-18.14,43.35-.53,2.04-4.32,9.54-5.78,11.24-2.18-3.27-8.5-25.45-10.31-30.61-6.36-18.18-12.86-36.64-18.74-54.99-2.97-3.83-6.15-15.44-5.71-21.15l.05-.05h0Z"/>
  <path class="st15" d="M75.84,288.33c10.98,8.66,23.64,17.09,35.23,24.99,7.92,5.39,15.91,9.92,23.52,15.91,0,2.51-.09,6.36.12,8.75l-.23,2.55c-6.29-1.32-47.67-31.32-52.94-31.02-2.97-3.83-6.15-15.44-5.71-21.15l.02-.02h0Z"/>
  <path class="st17" d="M557.35,540.77c6.55,3.04,16.77,9.8,23.43,13.72,18.18,10.47,36.22,21.2,54.1,32.18l61.98,37.06c6.29,3.78,35.37,19.62,36.34,24.8-11.91,5.9-23.2,12.84-34.76,19.32-2.69,1.51-12.59,7.48-14.77,8.2-57.31-38.34-118.29-71.78-176.39-108.37,17.83-8.55,32.88-17.88,50.06-26.91h0Z"/>
  <path class="st1" d="M517.94,597.17c2.55.35,19.41,10.73,21.13,13.47.91,1.76,1.63,4.27,2.09,6.2,5.2,21.62,34.25,32.25,53.78,35.13,5.5.81,12.91,1.63,18.04,3.62,5.36,2.09,11.52,6.32,16.49,9.33-17.32,11.19-40.89,24.17-59.03,34.58-3.51-1.44-7.04-2.88-10.57-4.3-16.65-5.27-34.95-3.51-50.88,3.34-8.48-8.03-41.68-26.7-52.87-33.14,8.73-14.07,12.1-23.06,1.02-37.08,17.6-10.1,42.17-21.62,60.79-31.16h0Z"/>
  <path class="st4" d="M489.05,577.48c5.13,2.79,10.36,5.71,15.58,8.29-25.43,13.89-48.3,24.96-73.7,38.11,15.44,17.83,18.11,27.7-1.88,44.77,24.59,11.94,54.36,32.93,78.63,46.74,21.06-7.87,38.45-10.77,60-1.09,1.86.84,3.69,1.72,5.5,2.62,13.38-7.57,26.68-15.23,39.92-23.01,3.07-1.79,15.21-8.99,17.95-9.96,4.69-2.97,11.03-7.55,16.32-8.87,1.9-.46,3.41,1.04,5.04,2.14,3.37,2.28,5.92,4.11,9.1,6.62-39.85,24.54-80.18,48.3-121,71.24-11.4-6.46-22.76-14.05-34.04-20.9l-103.36-63.42-29.75-18.14c-4.46-2.74-11.36-7.45-15.65-9.64,12.19-6.34,24.82-11.98,37.18-18.02l56.38-27.86c8.61-4.23,30.47-16.77,37.76-19.6l.02-.02h0Z"/>
  <path class="st1" d="M631.05,683.95c4.69-2.97,11.03-7.55,16.32-8.87,1.9-.46,3.41,1.04,5.04,2.14-3.07-.16-16.46,7.62-21.39,6.73h.02Z"/>
  <path class="st15" d="M723.61,516.11c14.65,8.99,33.72,17.55,49.58,26.59-8.41,15.12-8.82,20.57.81,34.99-13.75,9.85-34.27,21.83-49,30.58-2.69,1.65-5.34,3.32-7.96,5.06-8.94-5.55-18.02-10.87-27.24-15.98-3.32-22.04-22.04-31.37-42.26-35.97-6.41-1.46-15.07-.53-21.15-2.39-6.25-1.9-13.7-7.06-19.64-10.26,17.11-8.85,38.64-22.36,55.38-32.39,21.46,8.45,40.31,5.57,61.51-.21l-.02-.02h0Z"/>
  <path class="st15" d="M690.26,465c1.6-.33,3.23.35,4.62,1.09,30.33,16.65,61.02,32.44,91.61,48.6,26.89,14.21,56.94,28.54,82.83,44.26-15.7,7.94-40.66,24.85-56.26,34.44-20.97,12.86-45.14,26.96-65.34,40.52-5.41-3.46-10.22-6.99-15.4-10.77,18.55-11.54,38.48-22.99,57.33-34.3,2.58-1.76,9.33-5.27,12.35-6.94-7.15-7.2-11.19-10.98-14.84-20.36,2.58-10.54,5.09-13.72,11.96-22.04-9.98-6.5-27.86-14.88-38.73-20.6-10.87-5.74-26.54-14.75-37.43-19.44-6.9,3.58-14.4,5.87-22.11,6.71-10.01,1.14-31.6-.28-39.48-6.5-17.07,7.27-33.39,18.16-49.67,27.19-7.52,4.18-13.56,8.22-21.66,11.56-4.62-2.3-8.64-5.18-12.89-8.06,23.73-12.7,47.74-27.1,71.13-40.52,13.89-7.96,27.93-17.23,41.98-24.78v-.07h0Z"/>
  <path class="st22" d="M261.58,582.4c2.79,21.2,9.8,39.24,11.03,59.63-2.04,1.9-4.41,4.37-6.76,5.78-7.71.53-18.04,9.5-27.15,9.54-2.93-3.09-.28-4.53-3.37-7.9-.81-2.28-2.07-13.1-3.23-16.65-3.46-10.66-7.31-24.61-10.54-34.72-2.93-9.13-19.55-104.45-16.9-106.96.67,7.18,1.95,13.49,3.07,19.06,3.44,17.07-.49,24.34,20.13,25.73,2.35.16,7.2,2.97,9.8,1.97.16-4.9-2.88-21.97-3.58-27.73-3.27-26.7-9.01-52.94-12.86-79.62-2.11-15.16-4.04-30.35-5.78-45.58-.79-7.36-2.23-30.26-5.48-35.83,2.07-1.44,5.29-2.97,7.62-4.09,15.81-7.69,31.88-14.65,47.37-23.04,1.07-.58,3.07-.98,4.25-1.14,1.63,4.39,2.53,8.64,3.62,13.17-13.42,6.94-35.83,16.23-47.14,23.38,3.13,20.36,5.2,42.68,8.15,63.44,6.41,43.17,13.56,86.24,21.48,129.15.95,5.06,5.06,29.68,6.27,32.37h0Z"/>
  <path class="st1" d="M235.64,624.11c4.06.77,19.74,10.7,21.53,14.1-5.97-.05-15.09-7.08-20.11-10.7-1.67-1.21-1.3-1.6-1.42-3.39h0Z"/>
  <path class="st17" d="M341.55,481.37c20.16-.93,46.26-.14,67.04-.16l136.93.16c0,4.37.14,23.55-.79,27.01l-1.51.98,1.88.28c-1.07,2.74.16,2.3-1.79,5.39-2.83,1.04-5.92,2.02-8.96,2.11-41.43,1.35-82.99-.42-124.44-.02-5.36.05-10.87.05-16.23-.02-10.1,0-28.1.42-37.48-.7-4.78-.44-15.81-.74-18.51-4.69-2.16-7.04,1.07-23.5,3.85-30.3v-.02h0Z"/>
  <path class="st4" d="M392.76,492.54c21.15-.42,46.46-.84,67.48-.35.35,5.06.63,11.45,1.28,16.37,18.6.49,37.2.7,55.82.58,6.32,0,20.02-.35,25.89.23l1.88.28c-1.07,2.74.16,2.3-1.79,5.39-2.83,1.04-5.92,2.02-8.96,2.11-41.43,1.35-82.99-.42-124.44-.02-5.36.05-10.87.05-16.23-.02l-.39-2.62c.7-2.58-.39-17.95-.53-21.9v-.05h0Z"/>
  <path class="st10" d="M367.45,492.61c8.27-.19,17-.07,25.29-.07.14,3.95,1.23,19.32.53,21.9l.39,2.62c-10.1,0-28.1.42-37.48-.7,4.97-.07,12.45.81,17.04-.58l.46-1.56c-1.95-.53-5.02-1.9-6.99-2.69-.12-6.71.28-12.24.74-18.92h0Z"/>
  <path class="st4" d="M373.69,514.22c4.88-.46,15.12-1.49,19.6.23l.39,2.62c-10.1,0-28.1.42-37.48-.7,4.97-.07,12.45.81,17.04-.58l.46-1.56-.02-.02h0Z"/>
  <path class="st24" d="M368.91,673.66c10.7,2.97,43.7,26.19,55.59,33.37,31.51,19.02,63.37,38.13,94.67,57.52,7.01,4.34,13.82,8.71,21.15,12.56,12.93-5.76,34.34-20.04,47.39-27.66,25.01-14.58,50.27-29.95,75.77-43.66l.23,23.08-8.71,4.69c-37.01,19.53-77.77,45.3-113.97,66.9-10.03-5.81-20.11-11.96-29.98-18.04-52.25-32.21-105.4-63.37-157.48-95.81,5.06-4.55,9.78-9.01,15.33-12.96h0Z"/>
  <path class="st24" d="M366.47,718.1c10.24,3.3,28.49,15.7,38.52,21.85,32.86,20.23,65.65,40.78,98.94,60.3,11.61,6.8,25.12,16.37,37.11,21.8,2.39-1.11,4.41-2.32,6.66-3.62,38.73-22.32,76.65-46.58,115.96-67.87l.09,22.64-5.99,3.3c-26.87,14.98-53.59,31.74-80.39,47.14-12.21,7.01-23.99,14.93-36.39,21.85l-113.2-68.99-41.57-25.1c-9.64-5.92-22.04-13.33-30.47-20.6,3.41-5.36,6.34-8.2,10.7-12.68v-.02h0Z"/>
  <path class="st24" d="M366.8,762.9c5.94.23,40.24,22.62,47.95,27.28l86.1,52.34c11.84,7.31,28.07,18.16,40.03,24.41,6.94-3.16,29.07-17.35,36.92-21.9,28.68-16.67,57.26-34.39,85.96-51.04-.02,7.52.23,15.4.35,22.94l-5.04,2.86c-37.29,20.6-82.55,47.25-118.33,69.78l-99.66-61.05c-29.12-17.53-56.15-32.42-84.18-52.18,2.97-6.48,4.71-8.43,9.87-13.44h.02Z"/>
  <path class="st6" d="M683.64,676.03c2.18-.72,12.07-6.69,14.77-8.2,11.56-6.5,22.85-13.44,34.76-19.32-.49,15.07,0,31.26,0,46.49-.19,27.4-.16,54.8.09,82.2-10.66,6.53-21.39,12.96-32.18,19.25-5.53,3.3-12.14,7.71-17.62,10.57,1.02-37.11.02-74.47.37-111.6.02-3.3.44-17-.16-19.39h-.02Z"/>
  <path class="st7" d="M329.13,653.46c-.33,1.21-.77,2.72-1.02,3.92-25.15,8.94-29.49,26.75-34.58,50.53-1.9-2.93-3.62-8.15-4.97-11.56-6.55-16.32-10.1-28.77-26.4-37.29-1.9-1.49-.86-1.09-3.25-1.28-3.09-.91-4.32-1.58-7.13-3.02,5.11-1.88,9.66-3.74,14.07-6.94,2.35-1.42,4.71-3.88,6.76-5.78,11.03-12.26,15.07-24.89,17.58-40.68,1.42,4.9,2.32,8.03,4.32,12.68,4.71,18.27,16.93,32.65,34.62,39.43h0Z"/>
  <path class="st7" d="M332.82,659.61c1.95,7.18-6.32,19.83-9.94,26.26-1.49,2.67-6.87,8.66-9.87,11.15-5.11,4.25-13.12,8.68-18.09,13.4-.07.07.09,1.9.14,2.07,1.16,5.27,7.43,10.57,7.27,16.02-3.02-3.72-10.82-16.3-8.8-20.6,5.09-23.78,9.43-41.59,34.58-50.53.26-1.21.7-2.72,1.02-3.92-17.69-6.78-29.91-21.15-34.62-39.43-2-4.64-2.9-7.78-4.32-12.68-2.51,15.79-6.55,28.42-17.58,40.68-1.23-20.39-8.24-38.43-11.03-59.63,4.46,5.13,2.53,18.65,6.5,20.41,6.13-.65,14.79-1.79,20.71-1.76,1.3-1.16.56-.84,2.28-1.07,1.11,1.07.84.58,1.28,2.07,7.13-2.72,14.56,1.97,19.81,6.59,11.54,10.12,23.96,27.7,20.02,43.84l.3.46c2.95.46,2.09-.09,4.11,1.72l.28,1.44c-2.48,3.25-4.83.53-4.04,3.51h0Z"/>
  <path class="st16" d="M332.48,652.95l.3,1.81-3.65-1.3c-17.69-6.78-29.91-21.15-34.62-39.43.7-3.09-1.35-8.15-2.16-11.98,7.13-2.72,14.56,1.97,19.81,6.59,11.54,10.12,23.96,27.7,20.02,43.84l.3.46h0Z"/>
  <path class="st11" d="M332.82,659.61c1.95,7.18-6.32,19.83-9.94,26.26-1.49,2.67-6.87,8.66-9.87,11.15-5.11,4.25-13.12,8.68-18.09,13.4-.07.07.09,1.9.14,2.07,1.16,5.27,7.43,10.57,7.27,16.02-3.02-3.72-10.82-16.3-8.8-20.6,5.09-23.78,9.43-41.59,34.58-50.53.26-1.21.7-2.72,1.02-3.92l3.65,1.3-.3-1.81c2.95.46,2.09-.09,4.11,1.72l.28,1.44c-2.48,3.25-4.83.53-4.04,3.51h0Z"/>
  <path class="st2" d="M334.05,655.34c-2.11,1.21-3.6,1.46-5.94,2.04.26-1.21.7-2.72,1.02-3.92l3.65,1.3,1.28.58h0Z"/>
  <path class="st9" d="M294.51,614.03c-2-4.64-2.9-7.78-4.32-12.68-2.51,15.79-6.55,28.42-17.58,40.68-1.23-20.39-8.24-38.43-11.03-59.63,4.46,5.13,2.53,18.65,6.5,20.41,6.13-.65,14.79-1.79,20.71-1.76,1.3-1.16.56-.84,2.28-1.07,1.11,1.07.84.58,1.28,2.07.81,3.83,2.86,8.89,2.16,11.98h0Z"/>
  <path class="st4" d="M266.55,731.69c-3,2.18-6.25,4.41-8.92,6.92l-1.32,1.14c-2.14,1.7-4.81,2.69-6.08,4.04-2.37,5.43-3.46,9.22-4.25,15.14-4.69-2.46-9.66-6.25-15.21-7.57-.46,2.25,1.04.7,1.7,5.6-2.53-3.23-5.15-6.97-5.99-11.03-2.53.3-3.18.12-5.55-.88-9.59,2.09.3,8.66-.28,12.66-7.43-9.36-18.69-30.51-26.17-38.36.37-.95.77-3.04,1-4.11-2.04-7.64-4.85-13.05-8.82-19.83,1.11-1.09,3.07-3.58,4.13-4.88,3.27-.51,6.92-1.49,10.19-2.25l.35-4.34c1.28,8.57,5.11,3.37,12.49,6.66,2-1.44,3.58-2.41,5.13-4.34l2.76-1.53c1.51-1.97,4.67-5.34,6.41-7.31l.39-.21c.3-1,.39-1.25,1-2.16,6.62-9.71,6.36-14.58,5.83-25.57,3.09,3.37.44,4.81,3.37,7.9,9.1-.05,19.44-9.01,27.15-9.54-4.41,3.2-8.96,5.06-14.07,6.94,2.81,1.44,4.04,2.11,7.13,3.02,2.39.19,1.35-.21,3.25,1.28.44,6.2,1.07,13.33,1.18,19.46l.51.16c-.09,5.78-.49,12.7.6,18.27.39,7.15.67,17.09,1.53,23.96.05,3.85.23,6.94.56,10.77h0Z"/>
  <path class="st1" d="M200.98,688.27l.35-4.34c1.3,8.57,5.11,3.39,12.49,6.66v.63c.74,5.99,9.4,24.01,12.98,29.03l2.21-2.83c1.23,1.35,2.51,2.62,3.58,4.09-.84,1.81-.7,2.21-2.95,2.83l-3.88,8.45c.7,3.44,1.79,9.22.79,12.59l-.05.53c-2.55.3-3.2.14-5.57-.86-9.59,2.09.3,8.66-.28,12.66-7.41-9.36-18.69-30.51-26.17-38.36.37-.95.77-3.04,1-4.13-2.04-7.62-4.88-13.03-8.82-19.83,1.11-1.07,3.07-3.58,4.13-4.88,3.27-.49,6.94-1.49,10.19-2.25v.02h0Z"/>
  <path class="st4" d="M225.71,722.24c-2.39,1.74-1.37,1.49-4.06,1.56-5.74-2.51-9.71-11.82-12.12-17.18-5.83-12.91-.44-10.1,4.3-15.37.74,5.99,9.38,24.01,12.98,29.03l-1.09,2v-.02Z"/>
  <path class="st24" d="M190.78,690.52c3.27-.49,6.94-1.49,10.19-2.25-.07,3.53-3.04,28.19-3.9,31.14-1.11-1.7-1.14-2.25-1.6-4.18-2.04-7.62-4.88-13.03-8.82-19.83,1.11-1.07,3.07-3.58,4.13-4.88Z"/>
  <path class="st17" d="M229,717.41c1.23,1.35,2.51,2.62,3.58,4.09-.84,1.81-.7,2.21-2.95,2.83l-3.88,8.45c-1.76,2.95-4.88,9.06-7.71,10.43.14-7.94,3.99-14.21,7.66-20.99l1.09-2,2.21-2.83v.02Z"/>
  <path class="st6" d="M229.61,724.33c5.29,2.48,17.72,14.35,20.6,19.46-2.37,5.43-3.44,9.22-4.25,15.14-4.67-2.46-9.64-6.25-15.21-7.59-.46,2.25,1.04.7,1.72,5.6-2.53-3.23-5.18-6.97-5.99-11.03l.05-.53c1-3.37-.09-9.15-.79-12.59l3.88-8.45h0Z"/>
  <path class="st23" d="M221.71,684.71c6.97,1.14,10.52,2.09,11.24,9.92-1.09,3.34-4.2,19.62-3.97,22.78l-2.21,2.83c-3.58-5.02-12.24-23.01-12.98-29.03v-.63c2-1.44,3.58-2.39,5.13-4.32l2.76-1.53.02-.02h0Z"/>
  <path class="st2" d="M262.86,692.7c-.42-.44-.86-.88-1.28-1.35-9.99-12.84-19.25-20.43-2.67-33.58,2.39.19,1.35-.21,3.25,1.28.44,6.2,1.07,13.33,1.18,19.46.16,5.06-.14,9.2-.49,14.19h0Z"/>
  <path class="st15" d="M232.58,721.49c5.6,5.48,16.23,16.67,23.73,18.25-2.14,1.7-4.81,2.69-6.08,4.04-2.88-5.11-15.3-16.97-20.6-19.46,2.25-.63,2.11-1.02,2.95-2.83h0Z"/>
  <path class="st24" d="M228.52,677.19c4.5,2.65,5.74,12.79,4.46,17.44-.74-7.83-4.27-8.8-11.24-9.92,1.51-1.97,4.67-5.34,6.41-7.31l.37-.19v-.02h0Z"/>
  <path class="st6" d="M685.29,219.32c2.3,2.65,18.65,67.41,20.67,76.05-14.56,14.23-30.3,28.35-45.37,42.15l-1.14-.79c-3.37-6.46-6.18-14.88-9.33-21.64-5.34-11.47-10.38-21.94-14.95-33.81,4.27-6.04,11.7-14.72,16.53-20.81,10.61-13.42,22.01-28.75,33.6-41.15h0Z"/>
  <path class="st3" d="M405.88,219.95c4.53,2.53,44.31,54.36,49.99,61.6-5.18,15.56-16.56,36.92-23.22,52.8-.65,1.65-.51,1.67-1.88,2.76-5.74-2.53-38.04-35.41-45.58-41.73,6.39-25.29,13.31-50.44,20.71-75.42l-.02-.02h0Z"/>
  <path class="st6" d="M304.98,733.41l-2.65-4.9c-3.02-3.72-10.82-16.3-8.8-20.6-1.9-2.93-3.62-8.15-4.97-11.56-6.55-16.32-10.1-28.77-26.4-37.29.44,6.2,1.07,13.33,1.18,19.46l.51.16c-.09,5.78-.49,12.7.6,18.27.39,7.15.67,17.09,1.53,23.96.05,3.85.23,6.94.56,10.77.65,4.88,1.81,18.09,4.34,21.6,2.37,3.23,3.46,5.18,5.41,8.68l1.7,4.18c2.58,6.46,6.46,17,9.54,22.78.77-7.62-7.66-18.69-9.22-26.8.05-.16,9.87-13.26,10.38-13.79,2.07,1.65-.72,13.12,2.9,16.81.98-2.86,1.81-22.34.72-27.28,1.42.95,2.46,1.49,3.99,2.3l.51.39c4.3,5.43,16.35,21.46,20.64,25.36l1.09-.16c2.55-7.13-9.1-26.4-13.58-32.35h0ZM291.03,736.98c-.12-.21-.05-.05-.14-.65l1.11.28.07.42-1.04-.05h0Z"/>
  <path class="st5" d="M264.46,696.95c.05-2.41-.23-3.65,1.04-5.55,3-1.11,5.27-.09,9.13.23,8.17,13.38,3.25,17.55,7.96,30.93,2.14,6.04,10.47,12.38,13.7,17.65-1.58-.84-2.65-1.42-4.18-2.41l-.14-1.14-1.11-.28c.09.6,0,.44.14.65l1.04.07c1.46,2.95.56,25.06-.46,28.1-3.62-3.67-.86-15.14-2.9-16.81-.51.53-10.33,13.65-10.38,13.82,1.56,8.08,9.98,19.18,9.22,26.8-3.09-5.78-6.97-16.32-9.54-22.78l-1.72-4.18c-1.95-3.51-3.02-5.46-5.39-8.66-2.55-3.51-3.69-16.74-4.34-21.6-.33-3.83-.51-6.92-.56-10.77-.88-6.9-1.14-16.81-1.53-23.99l.02-.07h0Z"/>
  <path class="st23" d="M265.99,720.91c5.94,4.39,15.77,7.87,21.11,11.29,6.59,4.2-9.2,26.12-10.8,29.77-1.95-3.51-3.02-5.46-5.39-8.66-2.55-3.51-3.69-16.74-4.34-21.6-.33-3.83-.51-6.92-.56-10.77l-.02-.02h0Z"/>
  <path class="st23" d="M304.98,733.41c4.48,5.94,16.16,25.22,13.58,32.37l-1.09.16c-4.3-3.9-16.35-19.92-20.67-25.36,3.97,1.35,9.31,9.03,12.73,12.82h.72l2.58-2.55c.26-3.44-7.76-11.01-7.9-17.44h.05Z"/>
  <path class="st24" d="M263.86,678.67c.14-3.44.05-6.76,1.07-9.98,1.3,1.09,5.87,16.6,9.71,22.92-3.88-.33-6.15-1.35-9.13-.23-1.25,1.9-1,3.16-1.04,5.55-1.09-5.57-.7-12.49-.6-18.25h0Z"/>
  <path class="st10" d="M862.33,631.75l.91.26c4.11,4.44,7.31,8.61,10.22,13.93-36.32,23.08-76.49,46.79-113.43,69.17-2.25,1.32-4.78,2.65-7.11,3.92-.19-7.34-.33-14.7-.39-22.06,15.37-10.59,39.64-24.03,55.96-33.93,14.88-9.01,39.22-24.54,53.87-31.32l-.02.02h0Z"/>
  <path class="st10" d="M862.24,675.21c2.81-.26,10.17,10.91,12.1,13.54l-113.29,69.62c-2.62,1.49-5.48,2.88-8.17,4.25-.19-7.38-.28-14.77-.26-22.15,25.64-14.44,50.51-30.91,75.93-45.81,10.98-6.46,22.36-13.68,33.69-19.46v.02h0Z"/>
  <path class="st10" d="M861.84,587.49l.95.42c3.07,4.74,7.41,10.1,10.89,14.63-9.36,4.85-18.3,10.19-27.28,15.67-28.68,17.46-57.63,34.67-86.27,52.2l-7.57,4.09c.28-6.94-.05-15.47-.16-22.52,36.15-19.04,72.98-45.86,109.46-64.48h-.02Z"/>
  <path class="st1" d="M617.86,179.66c3.83.88,39.36,19.39,44.07,22.18-7.96,11.54-14.26,20.64-23.29,31.28l-8.2,11.19c-23.34-15.79-19.34-11.68-27.45-39.5,3.67-7.04,10.57-18.58,14.86-25.15Z"/>
  <path class="st15" d="M430.95,201.9c13.44-7.45,29.61-14.91,43.61-21.71,2.51,3.74,13.68,19.99,14.47,23.43-7.9,24.45-6.15,28.79-27.66,40.36-.95-1.28-5.11-6.76-5.64-7.8-7.29-8.38-18.46-24.75-24.78-34.27h0Z"/>
  <path class="st1" d="M455.73,236.18l.86-1.53c-.19-2.14-.35-2.28.49-4.32,5.2-4.11,10.1-8.13,15.07-12.49,4.48-3.92,11.26-13.19,16.86-14.19-7.9,24.45-6.15,28.79-27.66,40.36-.95-1.28-5.11-6.76-5.64-7.8l.02-.02h0Z"/>
  <path class="st1" d="M545.53,481.37c19.64.14,40.29-.21,59.79.35-7.31,5.9-10.19,6.52-18.9,9.96-12.98,6.9-29.19,18.04-43.12,23.31,1.95-3.09.72-2.62,1.79-5.39l-1.88-.28,1.51-.98c.93-3.46.77-22.64.79-27.01l.02.02h0Z"/>
  <path class="st10" d="M546.04,491.31c11.17-.33,29.47-.39,40.38.39-12.98,6.9-29.19,18.04-43.12,23.31,1.95-3.09.72-2.62,1.79-5.39,1.35-2.72.95-14.65.95-18.34v.02Z"/>
  <path class="st12" d="M846.03,747.25c.56.53.26.16.65,1.32-2.55,5.02-22.41,30.26-26.96,36.29-11.91,15.72-22.87,32.14-32.86,49.14l-.37-.16c-.42-1.93,22.66-60.26,25.03-66.5,8.41-7.15,24.29-14.7,34.53-20.06l-.02-.02h0Z"/>
  <path class="st1" d="M778.64,368.17c-1.83,16.88-3.55,36.43-11.63,51.69-1.09,4.37-3.83,12.21-5.29,16.74-3.78-10.77-8.08-22.8-14.54-32.32-.05-4.5,16.56-21.27,20.27-25.03,3.69-3.74,7.43-7.41,11.19-11.08h0Z"/>
  <path class="st10" d="M747.18,404.27c6.39-1.76,13.03-8.66,18.6-7.99.86.84,1.72,1.28,1.49,2.79-1.35,9.01-3.04,13.79-3,23.22l.49.23,2.28-2.65c-1.09,4.37-3.83,12.21-5.29,16.74-3.78-10.77-8.08-22.8-14.54-32.32l-.02-.02h0Z"/>
  <path class="st15" d="M311.46,369.3c9.8,8.41,21.2,20.3,30.07,29.91,2.02,2.21,2.21,2.55,1.95,4.83-6.34,7.8-11.4,23.41-14.61,33.25-1.97-6.69-3.97-13.35-6.04-19.99-6.62-18.39-6.78-30.4-11.38-48h0Z"/>
  <path class="st4" d="M322.84,417.3l1.23-.51c1.93-4.85-2.97-16.18,1.63-20.41,5.18-.46,5.9,9.75,17.76,7.66-6.34,7.8-11.4,23.41-14.61,33.25-1.97-6.69-3.97-13.35-6.04-19.99h.02Z"/>
  <path class="st4" d="M716.62,228.03c4.69,1.14,22.22,9.68,27.49,12.12.28,5.74.39,11.68.58,17.44l-6.22,5.36c-3.2,2.65-6.55,5.27-9.8,7.87-4.62-11.47-8.8-30.33-12.07-42.8h.02Z"/>
  <path class="st15" d="M373.07,228.52s.19.12.23.21c1.51,2.51-9.66,37.08-11.17,41.87l-6.78-5.99c-2.58-2.21-5.39-4.27-8.08-6.34-.28-5.13.19-12.05.39-17.32,8.73-3.92,16.88-8.08,25.4-12.42h0Z"/>
  <path class="st5" d="M181.66,638.18c1.9,2.55.33,5.99,1.39,8.2,1.14,2.37,4.13,2.48,5.43,5.83l-.44.95c-3.18-1.3-2.11-3.51-4.81-3.85-1.76,4.9-.3,23.87,1.53,28.89l.91.37.53-.88c2.88-4.6,8.45-9.94,13.05-12.86l1.79.74c1.3,3.48.33,4.92.53,8.36-.07,2.97-.05,5.85-.53,8.8l.3,1.23-.35,4.34c-3.25.77-6.92,1.76-10.19,2.25-1.07,1.3-3.02,3.78-4.13,4.88-2.14-2.93-4.37-6.59-6.34-9.71.63-.72,3.53-4.06,3.34-4.99-2.46-12.28-2.46-24.15-2.07-36.62-.09-1.83,0-4.02.07-5.87l-.02-.05h0Z"/>
  <path class="st14" d="M318.01,872.85c.14-1.6.23-1.86.67-3.44l1.32-.42c8.48,18.55,17.21,39.06,26.75,56.87l-15.51-11.89c-.63-2.65-.95-4.57-2.07-7.11-.72-5.92-3.48-10.64-6.08-15.95,1.63-4.6-3.02-13.07-5.09-18.09v.02Z"/>
  <path class="st7" d="M947.15,404.37c-.81,1.3-1.9,2.93-2.62,4.25-32.86,1.35-44.47,20.71-59.14,46.86-1.18-4.13-1.28-10.91-1.63-15.42-1.74-21.6-1.39-37.55-17.46-53.52-1.7-2.44-.6-1.6-3.37-2.69-3.3-2.18-4.5-3.44-7.29-6.15,6.69-.35,12.72-.88,19.09-3.04,3.27-.81,6.97-2.83,10.05-4.34,17.46-10.4,26.82-23.8,35.53-41.47-.12,6.29-.21,10.31.46,16.49-1.11,23.22,8.01,44.61,26.36,59.05h.02,0Z"/>
</svg>