<?xml version="1.0" encoding="UTF-8"?>
<svg id="Layer_1" data-name="Layer 1" xmlns="http://www.w3.org/2000/svg" viewBox="0 0 1044.2988 1080">
  <defs>
    <style>
      .cls-1 {
        fill: #7f7f7f;
      }

      .cls-2 {
        fill: #4a4a4a;
      }

      .cls-3 {
        fill: none;
      }

      .cls-4 {
        fill: #363636;
      }

      .cls-5 {
        fill: #9b9b9b;
      }

      .cls-6 {
        fill: #c1c1c1;
      }

      .cls-7 {
        fill: #f2f7fa;
      }

      .cls-8 {
        fill: #c1c1c1;
      }
    </style>
  </defs>
  <g>
    <path class="cls-4" d="M1021.3381,524.5201c49.4264-126.7112,17.2766-276.6212-87.5722-365.0272-55.0054-46.3733-122.5545-69.5354-194.346-71.5954-21.5436-18.0981-42.7929-32.8856-63.5885-44.7915-.0123-.0245-.0245-.0245-.0368-.0245-6.4741-3.7152-12.9114-7.1485-19.2997-10.3242-.0123,0-.0367-.0123-.049-.0245-192.1635-95.3215-342.2451,47.7098-344.0108,49.4019l-.0123.0123c-36.5886,6.0695-71.6321,11.5749-106.9332,23.9592C32.1967,166.7273-40.6861,356.3281,22.4855,524.4588c-49.5981,128.7833-15.9155,273.5435,88.8964,362.9304,47.4769,39.237,102.3964,62.9509,163.6185,73.1771,52.8719,63.0613,123.9155,104.7261,206.0926,116.4604,111.752,15.9523,220.2302-33.6212,294.2288-116.6689,101.3419-16.8597,190.0912-80.6444,236.3541-172.9618,41.4074-82.6308,42.0082-177.5844,9.6621-262.876ZM867.4553,163.4534c71.6444,41.0763,118.7902,111.4209,131.2602,193.3651,5.8242,40.7697,4.4019,80.0436-5.6157,121.549-15.9646-32.2848-35.4483-60.2289-62.6935-86.5544-4.0218-49.733-20.8079-94.4141-54.7234-129.8011-73.4714-76.6349-178.6389-66.004-264.8133-15.9768l-54.6866-67.9782c97.9209-55.312,209.6852-71.2153,311.2724-14.6036ZM866.266,445.2122c-43.2589,17.1785-93.3964,16.8719-136.7779.3065-19.4101-7.4182-29.2562-25.2589-22.8433-43.4919,34.0872,36.2207,146.9672,36.2452,180.6989-.3556,5.2112,18.846-2.0968,36.0122-21.0777,43.5409ZM886.8164,476.3198c-15.7194,31.3896-89.1049,33.5354-122.7629,29.2194l-9.9809-30.985c47.158,7.7861,98.0191,4.4632,134.4114-23.9346.2943,6.7193,1.3733,19.6308-1.6676,25.7003ZM735.2265,637.952c.098,12.5067.1471,16.0995-3.4823,31.5l-18.3924-18.9442,21.8747-12.5558ZM699.0916,635.1317l-22.8923-24.1675c24.7929-4.9905,40.1321-10.1649,58.0831-23.9469.4537,7.1485,1.7411,19.9373-1.4346,25.5532-7.1608,12.6784-20.8079,17.0435-33.7562,22.5613ZM658.469,593.4792l-26.1171-28.1281c47.0968-3.5926,66.3229-3.1635,102.0286-28.0422,11.6117,43.4428-46.1036,52.9455-75.9115,56.1703ZM880.2441,385.3635c-47.4155,39.1512-159.6089,26.3501-173.2928-10.9619-16.8229-45.8706,125.2152-70.8719,175.1811-21.6907,9.4659,9.331,8.3256,24.2166-1.8883,32.6526ZM697.2524,326.655c-12.4946,14.4441-19.0177,27.3678-21.8133,47.3788l-16.921-3.4578c14.7139-28.2752,9.5886-57.1757-12.3229-80.1539,33.9033-.7725,65.0477,7.0259,95.5423,14.6771-16.3324,5.9591-29.8937,12.4577-44.485,21.5559ZM718.1093,477.1904c12.1513,6.9278,21.7643,20.342,14.5545,34.0872-17.816,33.9645-91.4713,34.6757-124.3569,29.6852l-28.9374-30.1389c-7.0626-7.3692-16.504-16.1976-16.7616-27.5395,11.7221-10.8024,26.2153-16.3814,41.3338-19.5695,39.0776-8.2275,79.7125-6.1675,114.1675,13.4755ZM631.0889,350.283c-7.8597,9.9074-18.6867,18.2208-28.6431,24.7807-8.5463,5.6403-20.2438-.1226-26.4727-7.9087l-130.1567-162.6498c-9.7111-22.7943,26.203-47.0109,39.703-47.2806,8.9878-.1717,17.1417,6.6335,23.5913,14.4564l81.8093,99.1226,35.2029,44.0558c6.7807,8.5095,13.5,24.6826,4.966,35.4236ZM555.3369,378.8403l-20.2683,16.0995-117.6008-147.9482,20.2684-16.0995,117.6008,147.9482ZM520.6857,492.6767l-39.5681,38.0723c-10.1403,9.7602-26.4482,11.7465-36.2452,2.0967-2.4523-2.4155-5.9592-8.718-5.6649-11.7343.3065-3.0286,4.5245-7.7125,7.406-10.079l70.0136-57.8747c4.8188,2.6485,11.955,11.2561,13.267,16.9578,1.8392,8.0681-3.5926,17.1417-9.2085,22.5613ZM524.6339,414.6318l-117.8583,100.6552c-1.8638,1.5941-6.2534,4.1567-8.1785,4.7698-2.4155.7602-6.2166-3.3106-8.4114-6.0327l-125.2642-155.6117,110.4891-94.2425c5.2479-5.7384,10.5327-9.3801,18.6499-11.0477l130.5735,161.5095ZM377.3233,529.8294l-20.4278,16.3692-119.673-149.2602,20.4278-16.3815,119.673,149.2725ZM344.8669,567.0923c6.0327,7.5041,9.4537,18.3065,2.4769,25.8474-7.1362,7.7125-16.1853,16.2956-26.1294,21.6785-14.8856,8.0681-31.549-.8828-40.782-12.4946l-115.8474-145.8024c-7.6389-9.6254-11.5381-23.812-3.0286-34.0382,6.6458-7.9823,16.2834-16.406,25.0995-21.7398,11.7343-7.0872,24.3025.233,31.8801,9.6376l126.331,156.9114ZM455.4173,669.501c11.1335.0123,21.2371,2.9428,27.6744,10.1403,7.0872,7.9455,10.0054,16.5899,8.4114,31.0463l-250.0258-.3188c-2.2807-8.436-.748-20.0109,4.7697-28.312,4.782-7.1975,15.0082-12.703,25.455-12.703l183.7152.1471ZM493.9309,730.159c17.8651.0123,33.7316,13.1567,36.0858,29.6608,1.5818,11.2071,1.214,21.1145-.0613,34.0137l-328.1321-.3556c-2.5382-12.0899-2.391-26.1417.7602-38.8201,3.8502-15.4741,18.6989-24.7439,35.1172-24.7316l256.2301.2329ZM489.9704,549.3498c17.534-11.7834,32.9837-24.7071,46.2139-40.4265,47.8447,52.0381,95.0762,100.827,144.8092,149.4318,27.9442,28.0668,54.3556,54.7602,76.7575,86.6403,24.3147,34.6144,26.0313,88.9455-9.8706,94.6348-16.6022,2.6363-32.3583-1.594-45.7357-10.0422-43.737-27.6498-77.7752-85.1567-107.9264-128.9182l-104.248-151.3201ZM762.0303,699.6644c-1.594-8.1416-1.3856-20.9673-.7235-28.5082,36.8338,5.6771,100.594,2.7344,126.4782-25.124,17.0191,56.5872-87.4128,62.6689-125.7547,53.6321ZM761.3559,650.9737l-.1349-29.2071c43.8106,5.2725,91.2874,4.3774,128.0108-24.3637,12.5068,57.2002-87.842,59.1498-127.876,53.5708ZM761.3804,571.8007c37.1648,9.3679,99.9319,1.7779,126.5518-22.9414,18.0491,55.5327-93.6048,60.2411-126.2207,52.7248l-.3311-29.7833ZM761.7238,552.832l.0858-28.9005c43.0749,7.6512,95.5912.6131,127.128-24.5232,14.9714,56.8324-91.2506,60.2902-127.2139,53.4236ZM343.3956,109.4044c26.0436-21.4823,55.3855-39.0654,86.8487-52.9578,16.9701-7.4919,32.8978-13.1444,51.4251-14.0272l9-.4292c76.831-11.624,135.8215,16.4673,167.8487,37.7044,9.6008,5.7262,18.5762,12.4087,26.5831,20.7957.1103.1104.1839.184.233.233l.049.049c-34.0382.5272-66.2248,19.1036-99.1961,22.5981-37.7289-5.5177-73.8515-14.113-112.7698-1.361-80.1049,26.2643-108.8215,68.6035-146.3174,138.703-26.301,36.9196-92.6117,64.8883-101.5013,108.5272-3.6662-58.1076,19.8638-131.2479,46.9864-177.3759,18.8583-32.0763,42.94-59.4932,70.8106-82.4591ZM275.7852,129.4889c-21.5559,26.0559-39.8991,55.9618-55.8515,88.6879l-28.2997,21.5069c-47.2684,36.4414-72.613,89.1907-74.1825,148.5735-2.5382,95.9468,48.1757,165.703,125.5095,219.0899,11.857,8.1907,21.1389,21.8869,30.3107,32.297-32.0763,4.1566-53.9755,18.9932-61.8351,49.598-96.8174-60.8051-163.7289-157.7942-169.5531-271.9862-7.3569-144.1962,86.5054-263.7588,233.9019-287.767ZM163.5305,874.1222c-99.5395-65.1212-142.1607-187.5163-112.7575-302.7997,20.3052,30.6417,39.5068,56.8079,63.9196,82.0423,4.6717,48.7888,21.1758,94.0953,55.827,127.8637l-.184,41.6035c58.8678-9.4414,114.0327,28.5695,166.1566,18l77.0763-15.6335c48.2125-9.7724,96.4005.6499,147.4823-2.3909.6131-24.5845,4.4509-61.9701-6.3147-86.0886l14.861-15.5109,49.4264,69.1921c-23.2234,23.1376-47.722,43.5164-74.9673,62.2643-110.6852,76.1321-264.1512,97.5777-380.5257,21.4578ZM549.1816,1036.0853c-78.7561,8.3624-158.4563-18.8338-216.9441-76.7084l98.4237-16.7125,48.2125,14.6771c74.8079,22.7698,177.2165-26.203,215.5095-97.0749,22.218,11.8201,46.5817,15.5722,69.9277,7.0627,21.47-7.8229,34.4673-27.3556,38.8815-49.2425,6.2044-30.7275-1.6798-57.0531-18.846-86.297l42.3637-1.3856c-12.8256,151.4673-119.7465,288.9073-277.5286,305.6811ZM800.9854,912.1821c20.0354-33.1676,34.3079-63.6253,44.5585-100.7779,59.3828-46.2997,88.4305-115.3937,78.5477-189.4904l-6.1062-52.3079,1.4469-141.4128c43.3079,48.9359,72.049,113.4319,80.8283,181.2261,17.7057,136.8883-65.5013,265.1198-199.2751,302.7628Z"/>
    <path class="cls-2" d="M656.4949,32.7573c6.3883,3.1757,12.8256,6.609,19.2997,10.3242-6.2288-3.9605-12.6171-7.3569-19.2997-10.3242Z"/>
    <g>
      <path class="cls-6" d="M231.1142,343.6055c3.1758-53.5513,24.7661-112.4805,46.2119-148.9546,17.9175-30.4756,41.3232-57.7285,69.5669-81.002,24.9053-20.5435,53.6953-38.0957,85.5728-52.1709,17.0815-7.541,32.0303-12.7339,49.4653-13.5649l9.2822-.4424.2788-.0425c11.6597-1.7642,23.4365-2.6582,35.002-2.6582,57.3613,0,101.8037,21.4849,128.9854,39.5083l.2217.1396c6.2412,3.7227,11.8057,7.6313,16.8047,11.813-14.9336,1.9478-29.4375,6.5288-43.5664,10.9917-14.6768,4.6353-28.5518,9.0181-42.6494,10.6035-4.7461-.6992-9.5381-1.4561-14.1797-2.189-17.9219-2.8311-36.4541-5.7578-55.0391-5.7578-16.3496,0-31.189,2.2578-45.3662,6.9033-83.1968,27.2778-113.1846,73.5576-149.2856,141.0195-10.0581,13.9873-26.1382,26.6719-43.1558,40.0957-18.0498,14.2378-36.521,28.8071-48.1494,45.7075Z"/>
      <path class="cls-1" d="M526.5036,50.2699c55.9835,0,99.3847,20.9867,125.9355,38.5923l.2189.1451.2255.1345c2.1288,1.2697,4.1744,2.561,6.1412,3.8773-10.8378,2.3567-21.3888,5.689-31.7421,8.959-14.165,4.4739-27.569,8.7076-40.9061,10.3013-4.4837-.6652-9.0121-1.3805-13.4046-2.0743-18.1327-2.8639-36.8827-5.8254-55.9005-5.8259-16.9395-.0004-32.3392,2.3472-47.0811,7.1776-85.0119,27.8731-115.592,74.8611-152.2457,143.3239-9.6254,13.2498-25.3031,25.617-41.8875,38.6991-13.187,10.4022-26.5948,20.9789-37.5744,32.5937,6.1451-47.49,25.0226-96.8255,43.7849-128.7349,17.5899-29.9189,40.5772-56.6817,68.3276-79.5485,24.5156-20.2219,52.8756-37.5088,84.2917-51.3804,16.5202-7.2932,30.921-12.3124,47.5064-13.1027l9.0001-.4292.5637-.0268.5579-.0844c11.3856-1.7226,22.8853-2.5962,34.1853-2.5966h.0035M526.4944,39.2698c-11.447.0004-23.4076.8417-35.8251,2.7204l-9.0001.4292c-18.5272.8828-34.4549,6.5354-51.425,14.0272-31.4632,13.8923-60.8051,31.4755-86.8487,52.9578-27.8707,22.9659-51.9523,50.3828-70.8107,82.4592-27.1226,46.128-50.6526,119.2683-46.9863,177.3759,8.8897-43.6389,75.2003-71.6076,101.5013-108.5272,37.4959-70.0994,66.2126-112.4387,146.3174-138.7029,14.8794-4.8754,29.3457-6.6304,43.6538-6.6301,23.1159.0006,45.8118,4.5829,69.1161,7.9911,32.9713-3.4945,65.1579-22.0708,99.196-22.5981,0,0-.0122-.0122-.049-.049-.0491-.049-.1226-.1226-.233-.233-8.0068-8.3869-16.9824-15.0694-26.5831-20.7957-26.851-17.8047-72.6448-40.427-132.0237-40.4247h0Z"/>
    </g>
    <path class="cls-3" d="M685.3832,100.7722c-34.0382.5272-66.2248,19.1036-99.1961,22.5981-37.7289-5.5177-73.8515-14.113-112.7698-1.361-80.1049,26.2643-108.8215,68.6035-146.3174,138.703-26.301,36.9196-92.6117,64.8883-101.5013,108.5272-3.6662-58.1076,19.8638-131.2479,46.9864-177.3759,18.8583-32.0763,42.94-59.4932,70.8106-82.4591,26.0436-21.4823,55.3855-39.0654,86.8487-52.9578,16.9701-7.4919,32.8978-13.1444,51.4251-14.0272l9-.4292c76.831-11.624,135.8215,16.4673,167.8487,37.7044,15.6825,10.3979,24.9033,19.1526,26.5831,20.7957.1103.1104.1839.184.233.233l.049.049Z"/>
    <g>
      <path class="cls-5" d="M328.2373,916.1064c-59.187,0-115.1011-16.1094-161.6963-46.5869-47.3867-31.002-82.8574-75.9121-102.5771-129.874-18.0244-49.3252-21.6714-102.5625-10.7065-154.7305,15.5977,23.0068,33.3735,47.1309,56.1499,70.8906,5.4409,53.2656,24.1392,96.209,55.6021,127.7109l-.2026,45.7725,6.3999-1.0264c6.0078-.9639,12.3364-1.4521,18.8101-1.4521,21.9976,0,43.8975,5.543,65.0762,10.9023,21.3203,5.3965,41.4585,10.4932,61.8721,10.4932,7.2925,0,14.0376-.6484,20.6201-1.9834l77.0767-15.6338c14.0615-2.8506,29.1929-4.1777,47.6177-4.1777,12.5576,0,24.9424.5898,38.0542,1.2139,13.0166.6201,26.4761,1.2607,40.0171,1.2607,7.502,0,14.3809-.1924,21.0273-.5879l5.0449-.3008.126-5.0527c.0977-3.8936.2773-8.127.4668-12.6094.9756-22.9688,2.1758-51.2578-5.832-72.3955l7.7939-8.1357,42.8457,59.9795c-22.085,21.6357-45.3125,40.7539-70.8848,58.3496-63.7266,43.834-139.2656,67.9736-212.7012,67.9736Z"/>
      <path class="cls-8" d="M56.2486,598.9526c13.608,19.4111,29.0311,39.451,47.8852,59.2935,5.7215,52.7781,24.3299,95.6365,55.3657,127.5156l-.1637,37.0217-.0573,12.9627,12.7992-2.0529c5.7203-.9175,11.7559-1.3827,17.9389-1.3827,21.3125,0,42.8746,5.4572,63.7267,10.7346,20.7089,5.2412,42.1229,10.6609,63.2215,10.6609,7.6644,0,14.7669-.6848,21.7141-2.0935l77.0749-15.6332c13.694-2.7757,28.4782-4.0685,46.5269-4.0685,12.4269,0,24.7476.5867,37.7917,1.2079,13.0805.623,26.6063,1.2671,40.2782,1.2671,3.6795,0,7.2125-.0457,10.6437-.1383-4.3233,3.1686-8.7111,6.2843-13.1718,9.3538-30.8275,21.204-64.5351,37.7957-100.1866,49.3143-36.3334,11.739-73.1404,17.6911-109.3988,17.6911-28.3994,0-56.0395-3.7122-82.1526-11.0336-27.3483-7.6675-53.0976-19.3278-76.5318-34.6559-46.3876-30.3479-81.1132-74.3189-100.4227-127.1595-9.3573-25.6063-14.7923-52.5852-16.1542-80.1872-.9662-19.5823.1336-39.2094,3.2729-58.6177M568.3595,738.3998l36.2396,50.7318c-10.481,10.0917-21.2329,19.6275-32.3848,28.7152.087-2.3342.1902-4.7679.2968-7.2801.9473-22.325,2.1035-49.5576-5.0165-71.2642l.8649-.9027M50.7729,571.3225c-29.4032,115.2834,13.2181,237.6785,112.7575,302.7997,50.1468,32.8007,107.1762,47.4844,164.7066,47.4844,75.9793,0,152.8291-25.6161,215.8192-68.9423,27.2453-18.7479,51.7439-39.1267,74.9673-62.2643l-49.4264-69.1921-14.8611,15.5109c10.7657,24.1186,6.9279,61.5041,6.3148,86.0886-6.9526.4139-13.8474.5783-20.7003.5783-26.5753,0-52.4565-2.475-78.0699-2.475-16.3075,0-32.5098,1.0035-48.7121,4.2877l-77.0763,15.6335c-6.4646,1.3109-12.9681,1.874-19.5275,1.874-40.3958,0-82.6135-21.3955-126.9482-21.3955-6.5117,0-13.0769.4623-19.6809,1.5215l.184-41.6035c-34.6513-33.7684-51.1554-79.075-55.8271-127.8637-24.4127-25.2344-43.6144-51.4006-63.9196-82.0423h0Z"/>
    </g>
    <g>
      <path class="cls-8" d="M208.2886,680.6963c-97.04-63.2939-155.5708-159.041-160.9136-263.7183-1.7793-34.8657,2.415-68.6733,12.4673-100.4829,9.8462-31.1587,25.0688-59.6699,45.2451-84.7432,20.2954-25.2212,45.0811-46.3071,73.6685-62.6724,25.4858-14.5898,53.5405-25.1523,83.5757-31.4824-16.9951,22.2988-32.374,47.6304-46.7632,76.9868l-27.2588,20.7246c-47.6182,36.7041-74.7266,90.9609-76.3613,152.7983-2.3672,89.5366,39.4653,162.7319,127.8872,223.7671,8.0483,5.5547,15.0166,14.1055,21.7554,22.374.4355.5352.8672,1.0645,1.2959,1.5889-27.7974,5.9189-46.1152,20.9668-54.5981,44.8594Z"/>
      <path class="cls-1" d="M249.0868,146.3792c-13.529,19.2333-26.0429,40.5907-37.8813,64.6131l-26.2249,19.9379-.0291.0222-.0289.0223c-48.9245,37.7112-76.7933,93.4636-78.4727,156.9871-2.4202,91.5405,40.1886,166.2633,130.2612,228.4382,5.8275,4.0226,11.2298,9.9856,16.4332,16.2285-22.6514,6.7466-38.5348,20.0496-47.4464,39.7453-92.2059-62.3164-147.6818-154.8031-152.83-255.6759-1.7459-34.2083,2.365-67.3638,12.2186-98.5456,9.6395-30.5042,24.5393-58.4133,44.2856-82.9519,19.8636-24.6843,44.1271-45.3247,72.1165-61.3476,20.8761-11.9509,43.5229-21.1483,67.5982-27.4736M275.7898,129.4928c-147.397,24.007-241.267,143.5682-233.9075,287.7658,5.828,114.1924,72.7323,211.1736,169.5503,271.9794,7.8646-30.6,29.7616-45.4355,61.8388-49.5887-9.1759-10.415-18.4533-24.1167-30.3114-32.302-77.3367-53.3837-128.0505-123.1489-125.5138-219.0948,1.5699-59.382,26.9255-112.1324,74.1919-148.5656l28.2984-21.5143c15.9504-32.7219,34.2901-62.6267,55.8533-88.6798h0Z"/>
    </g>
    <g>
      <path class="cls-8" d="M990.958,462.332c-15.2139-27.7744-33.0254-51.2881-55.2393-73.0332-4.6826-53.0679-23.5391-97.1597-56.0645-131.0879-35.877-37.4233-82.4053-57.2041-134.5557-57.2041-42.9033,0-88.7549,13.1001-132.8896,37.9297l-47.6494-59.2417c56.0703-30.6499,112.2549-46.1821,167.1016-46.1821,46.9619,0,91.75,11.6914,133.1201,34.7495,69.3789,39.7788,116.2354,108.8184,128.4971,189.3838,5.1064,35.7124,4.3584,70.1177-2.3203,104.686Z"/>
      <path class="cls-1" d="M731.661,139.0128c45.9937,0,89.8593,11.4454,130.3867,34.0225,34.0367,19.5272,62.3384,45.7506,84.1162,77.9409,21.6655,32.0244,35.6854,68.176,41.67,107.4485,4.3487,30.4474,4.4755,59.0046.2734,87.9657-13.3932-22.0262-28.757-41.4303-47.0958-59.5982-5.0947-53.4424-24.391-97.968-57.3878-132.3873-36.9389-38.5313-84.8401-58.8979-138.525-58.8979-42.5215,0-87.8037,12.5494-131.5053,36.3758l-40.5945-50.4711c23.9359-12.607,48.2072-22.5366,72.312-29.5743,29.1468-8.5098,58.1991-12.8246,86.3502-12.8246M731.6611,128.0128c-60.0197,0-119.9763,18.6927-175.4764,50.0449l54.6791,67.9825c42.1779-24.485,88.9001-39.5332,134.2349-39.5332,47.291,0,93.0716,16.3801,130.5845,55.5102,33.9187,35.3809,50.7003,80.0604,54.7281,129.7919,27.2358,26.3336,46.7291,54.2711,62.6896,86.5537,10.0196-41.503,11.4435-80.7798,5.6152-121.5444-12.4719-81.9423-59.6191-152.2867-131.2575-193.3605-44.0093-24.5288-89.9199-35.4451-135.7975-35.4451h0Z"/>
    </g>
    <path class="cls-8" d="M524.6338,414.6369l-117.8589,100.6453c-1.8683,1.5954-6.2515,4.1572-8.1821,4.7704-2.4133.7666-6.2163-3.3039-8.4071-6.0257l-125.2617-155.6187,110.4884-94.2322c5.2484-5.7432,10.5265-9.3863,18.6466-11.059l130.5749,161.5199Z"/>
    <path class="cls-8" d="M747.8751,839.6337c-16.6022,2.6319-32.3547-1.5939-45.7286-10.0486-43.7412-27.6524-77.7767-85.1547-107.9284-128.9172l-104.2531-151.314c17.5351-11.7853,32.9903-24.7154,46.2237-40.4261,47.838,52.0326,95.0664,100.818,144.8068,149.4256,27.9375,28.0724,54.3593,54.7634,76.7548,86.6458,24.3099,34.6078,26.0268,88.943-9.8752,94.6345Z"/>
    <g>
      <path class="cls-5" d="M812.9121,902.7422c17.3906-30.4551,28.8604-57.5371,37.4531-88.127,60.3652-47.8184,89.21-118.2158,79.1768-193.4336l-6.0596-51.8682,1.2959-126.2319c37.3281,46.5596,62.0342,105.3042,70.0244,167.0415,8.4209,65.0762-6.4854,130.7344-41.9727,184.8789-33.0762,50.4668-82.3955,88.335-139.918,107.7402Z"/>
      <path class="cls-8" d="M930.1133,459.1961c31.3271,43.5534,52.0826,96.3669,59.2342,151.6323,4.1807,32.3079,2.6141,64.561-4.6564,95.8635-7.0812,30.4881-19.3486,59.1856-36.4614,85.2955-17.1508,26.1682-38.5884,48.8483-63.7174,67.4108-18.3795,13.5766-38.3708,24.6679-59.6813,33.1314,13.4248-25.2257,22.9305-48.7532,30.3445-74.7172,60.9512-49.0087,90.0155-120.6918,79.8295-197.268l-6.0186-51.5232,1.1267-109.825M919.4307,428.1978l-1.4507,141.4072,6.1099,52.3043c9.8846,74.1014-19.1613,143.1891-78.54,189.4946-10.2582,37.1505-24.5286,67.6075-44.5695,100.7819,133.7833-37.647,216.9902-165.8798,199.2762-302.7691-8.7729-67.7941-37.5225-132.2872-80.8258-181.2189h0Z"/>
    </g>
    <path class="cls-6" d="M529.9554,793.8334l-14.4809-.0123c.0981-5.763-.1962-11.2561-1.0177-17.1172-2.3543-16.5041-18.2208-29.6485-36.0859-29.6608l-128.3665-.1226v46.7166l-148.1811-.1594c-2.5382-12.0899-2.391-26.1417.7602-38.8201.3065-1.2262.6744-2.4156,1.128-3.5559,5.0886-13.3283,18.8706-21.188,33.9891-21.1757l112.3037.098,143.9264.1349c17.8651.0123,33.7316,13.1567,36.0858,29.6608,1.5818,11.2071,1.214,21.1145-.0613,34.0137Z"/>
    <path class="cls-8" d="M515.4745,793.8211l-165.47-.184v-46.7166l128.3665.1226c17.8651.0123,33.7316,13.1566,36.0859,29.6608.8215,5.8611,1.1158,11.3542,1.0177,17.1172Z"/>
    <path class="cls-8" d="M631.0918,350.2849c-7.8663,9.9041-18.693,18.2148-28.6432,24.7784-8.5437,5.6359-20.2512-.127-26.4749-7.9049l-130.1541-162.6554c-9.7106-22.7876,26.2024-47.0111,39.6986-47.2735,8.9901-.1748,17.1369,6.6279,23.5919,14.4483l81.8134,99.1197,35.1947,44.0662c6.7885,8.4997,13.5029,24.6824,4.9736,35.4212Z"/>
    <path class="cls-8" d="M321.2153,614.6213c-14.8838,8.0671-31.5521-.8813-40.7807-12.4964l-115.8498-145.8088c-7.6449-9.6219-11.5398-23.8053-3.0252-34.0374,6.6371-7.9759,16.2784-16.4001,25.0959-21.7326,11.7318-7.0949,24.3016.2265,31.8749,9.6331l126.3317,156.9127c6.0382,7.4999,9.4539,18.3105,2.4786,25.8473-7.1365,7.7111-16.1854,16.2946-26.1255,21.6822Z"/>
    <path class="cls-8" d="M880.2438,385.3653c-47.4144,39.1542-159.6059,26.346-173.2932-10.9653-16.8262-45.8678,125.2141-70.8758,175.1764-21.688,9.4743,9.3275,8.3337,24.2162-1.8833,32.6533Z"/>
    <path class="cls-8" d="M732.6605,511.2782c-17.8072,33.9652-91.4688,34.6756-124.354,29.6863l-28.9315-30.138c-7.0715-7.3664-16.5118-16.2057-16.7634-27.5399,11.7182-10.8051,26.2129-16.3787,41.3353-19.5669,39.0683-8.2365,79.7113-6.1767,114.1662,13.4678,12.1472,6.9257,21.7563,20.3405,14.5474,34.0908Z"/>
    <path class="cls-6" d="M491.5031,710.6876l-14.6035-.0245c-.4415-9.0245-3.421-15.4496-8.7793-21.4455-6.4373-7.1975-16.5286-10.1403-27.6744-10.1403l-90.4414-.0736v31.5l-108.5272-.1349c-2.2807-8.436-.748-20.0109,4.7697-28.312.3924-.6008.8338-1.1771,1.2997-1.7534,5.1744-6.3147,14.579-10.9496,24.1553-10.9496l78.3024.0613,105.4128.0858c11.1335.0123,21.2371,2.9428,27.6744,10.1403,7.0872,7.9455,10.0054,16.5899,8.4114,31.0463Z"/>
    <path class="cls-8" d="M476.8996,710.6631l-126.8951-.1594v-31.5l90.4414.0736c11.1458,0,21.2371,2.9428,27.6744,10.1403,5.3583,5.9959,8.3379,12.421,8.7793,21.4455Z"/>
    <path class="cls-1" d="M476.8996,710.6631l-126.8951-.1594v-31.5l90.4414.0736c11.1458,0,21.2371,2.9428,27.6744,10.1403,5.3583,5.9959,8.3379,12.421,8.7793,21.4455Z"/>
    <path class="cls-8" d="M871.3913,442.7967c-1.594.8829-3.3106,1.6921-5.1253,2.4156-13.1689,5.2234-26.9755,8.8405-41.0395,10.8515-32.1253,4.6349-65.5626.9809-95.7383-10.5449-3.3597-1.2875-6.4373-2.8815-9.184-4.7452-3.47-2.3297-6.4251-5.0763-8.7915-8.1417-6.6458-8.5464-8.767-19.5082-4.8678-30.6049,21.4455,22.7943,74.0844,31.2547,118.5817,25.2711,17.4237-2.3297,33.609-6.891,46.1649-13.6839,6.3392-3.4087,11.7588-7.3937,15.9523-11.9428,4.7084,17.0435-.8093,32.7139-15.9523,41.1253Z"/>
    <rect class="cls-8" x="473.4611" y="218.4154" width="25.8861" height="188.9994" transform="translate(-89.0732 370.627) rotate(-38.4809)"/>
    <rect class="cls-8" x="294.1812" y="367.7241" width="26.1853" height="191.3184" transform="translate(-222.3256 294.0737) rotate(-38.7225)"/>
    <path class="cls-8" d="M886.8164,476.3198c-3.1268,6.2289-8.5095,11.3051-15.4251,15.4128-12.1022,7.2098-28.8637,11.4033-46.1649,13.5736-22.5122,2.8201-45.9195,2.1948-61.173.233l-9.9809-30.985c23.5422,3.8869,48.0163,5.0027,71.1539,1.6063,16.3202-2.3787,31.9782-7.0137,46.1649-14.5177,5.9837-3.1512,11.6975-6.8052,17.0926-11.0231.2943,6.7193,1.3733,19.6308-1.6676,25.7003Z"/>
    <path class="cls-8" d="M871.3913,539.5651c-12.2248,7.3937-28.9987,11.7221-46.1649,13.9414-24.2656,3.139-49.3406,2.0354-63.5027-.6744l.0858-28.9005c20.1089,3.5681,42.2779,3.9482,63.4168.7479,16.5164-2.4769,32.3951-7.124,46.1649-14.1131,6.3515-3.2125,12.2493-6.9278,17.5463-11.158,4.9046,18.6008-3.188,31.4877-17.5463,40.1567Z"/>
    <path class="cls-8" d="M871.3913,588.3539c-12.188,7.2588-29.0109,11.6485-46.1649,13.9414-24.9155,3.3351-50.5054,2.2929-63.515-.7112l-.3311-29.7833c17.6935,4.4632,41.1989,5.0763,63.846,1.827,16.7616-2.4033,33.0572-6.9278,46.1649-13.5736,6.3638-3.2248,11.9796-6.9646,16.5409-11.1948,5.8978,18.1349-2.0477,30.8502-16.5409,39.4946Z"/>
    <path class="cls-8" d="M871.3913,687.0105c-12.1022,7.5898-28.876,12.0899-46.1649,14.3215-23.7138,3.0531-48.3841,1.827-63.1961-1.6676-1.594-8.1416-1.3856-20.9673-.7235-28.5082,17.5341,2.6976,41.1744,3.4578,63.9196.4905,16.8106-2.1948,33.1431-6.4128,46.1649-13.3651,6.3638-3.3964,11.9428-7.455,16.3937-12.2493,5.6526,18.8093-2.109,32.0395-16.3937,40.9782Z"/>
    <path class="cls-8" d="M871.3913,637.4369c-12.1635,7.4551-28.876,11.6976-46.1649,13.8311-23.628,2.906-48.3106,1.876-63.8705-.2943l-.1349-29.2071c21.0286,2.5259,42.891,3.6417,64.0054.9196,16.0627-2.0477,31.6717-6.3025,46.1649-13.8311,6.1675-3.2003,12.139-6.989,17.8406-11.4523,4.0831,18.6866-3.8746,31.4754-17.8406,40.034Z"/>
    <path class="cls-8" d="M481.1205,530.7459c-10.1481,9.7668-26.4463,11.7547-36.2439,2.0968-2.4512-2.4162-5.9688-8.7116-5.6639-11.7365s4.5209-7.7014,7.3966-10.0782l70.0194-57.8729c4.8207,2.6551,11.9588,11.2563,13.262,16.9554,1.8462,8.0742-3.5858,17.1486-9.2095,22.561l-39.5607,38.0744Z"/>
    <path class="cls-8" d="M697.2536,326.6577c-12.5003,14.4418-19.0204,27.3611-21.8142,47.3744l-16.9195-3.4501c14.7138-28.2832,9.5851-57.1801-12.3291-80.1653,33.9123-.7702,65.0519,7.0362,95.549,14.6816-16.3405,5.9596-29.9009,12.4558-44.4861,21.5594Z"/>
    <path class="cls-8" d="M720.3041,575.5895c-8.6567,6.045-19.9251,10.0668-31.2179,12.8256-10.9741,2.6607-21.9727,4.1321-30.6172,5.064l-26.1171-28.1281c24.3025-1.8515,41.1744-2.6363,56.7343-6.3638,10.3855-2.5136,20.1948-6.3269,31.2179-12.6784,4.451-2.5627,9.1104-5.53,14.0763-9,4.7698,17.8651-2.1703,29.9796-14.0763,38.2806Z"/>
    <path class="cls-8" d="M732.8478,612.5705c-3.139,5.5545-7.5164,9.515-12.5436,12.6784-6.4373,4.0464-13.9414,6.7807-21.2125,9.8828l-10.0054-10.5572-12.8869-13.6103c4.5981-.9319,8.8651-1.8638,12.8869-2.8447,11.9182-2.9428,21.6539-6.4006,31.2179-11.7834,4.6226-2.5994,9.2085-5.6526,13.9782-9.3188.4537,7.1485,1.7411,19.9373-1.4346,25.5532Z"/>
    <path class="cls-8" d="M731.7442,669.452l-11.4401-11.7834-6.9523-7.1607,6.9523-3.985,14.9224-8.5708c.098,12.5067.1471,16.0995-3.4823,31.5Z"/>
    <g>
      <path class="cls-5" d="M521.1684,1032.0684c-65.8257.001-128.3257-24.457-177.1831-69.1074l86.3164-14.6572,46.9697,14.2998c12.8105,3.8994,26.7207,5.876,41.3442,5.876,68.6079,0,144.0522-43.0674,177.9819-100.9385,13.8135,6.5791,27.7539,9.9102,41.5078,9.9102,9.6182,0,19.0684-1.667,28.0889-4.9551,6.2881-2.291,12.0508-5.5488,17.1934-9.6553-12.4141,24.2998-27.5889,46.9678-45.2373,67.3096-50.2168,57.8809-115.7627,92.6211-189.5498,100.4658-9.0732.9629-18.3027,1.4512-27.4321,1.4521ZM810.6484,791.2861c-1.0508-17.3525-6.5957-34.7812-17.0684-54.2949l27.0742-.8857c-1.9092,18.709-5.2725,37.1719-10.0059,55.1807Z"/>
      <path class="cls-8" d="M814.4875,741.8098c-.8918,7.4332-2.0153,14.8141-3.3675,22.1462-2.1906-7.0602-5.0842-14.2766-8.7008-21.7515l12.0683-.3947M698.7707,874.5547c13.0764,5.577,26.2667,8.3967,39.3352,8.3967,10.2628,0,20.3468-1.7789,29.9709-5.2869.3951-.144.7902-.2921,1.1815-.4431-10.264,17.5652-22.0605,34.1077-35.2626,49.3246-23.7565,27.3821-51.3256,49.7004-81.9411,66.3346-32.1986,17.4944-67.2014,28.3503-104.0345,32.266-8.8835.9432-17.9176,1.4215-26.8514,1.4215-33.3629,0-65.986-6.4405-96.9631-19.1426-24.6786-10.1195-47.4338-23.8642-67.8842-40.9808l73.6207-12.5009,45.7286,13.921c13.3298,4.0573,27.7787,6.1144,42.9454,6.1144,68.7302,0,144.1629-42.1387,180.1545-99.4246M826.7102,730.4042l-42.3638,1.3855c17.1663,29.244,25.0504,55.5696,18.8461,86.297-4.4142,21.8869-17.4114,41.4197-38.8815,49.2426-8.6493,3.1526-17.4372,4.6222-26.2051,4.6222-14.8981,0-29.7361-4.2439-43.7226-11.6849-31.84,58.9288-107.9965,102.7127-175.7671,102.7127-13.7352,0-27.136-1.8007-39.7425-5.6378l-48.2125-14.6771-98.4237,16.7126c51.5551,51.0147,119.5873,78.1914,188.9313,78.1914,9.3246,0,18.6778-.4918,28.0128-1.483,157.7821-16.7739,264.703-154.2139,277.5287-305.6811h0Z"/>
    </g>
    <path class="cls-3" d="M685.1012,100.4902c-1.6798-1.6431-10.9006-10.3978-26.5831-20.7957,9.6008,5.7262,18.5762,12.4087,26.5831,20.7957Z"/>
    <ellipse class="cls-1" cx="796.8348" cy="367.5436" rx="64.2188" ry="24.3251"/>
    <ellipse class="cls-1" cx="645.9912" cy="499.4084" rx="64.2188" ry="24.3251"/>
    <path class="cls-1" d="M871.3913,413.6141v29.1825c-1.594.8829-3.3106,1.6921-5.1253,2.4156-13.1689,5.2234-26.9755,8.8405-41.0395,10.8515v-28.7657c17.4237-2.3297,33.609-6.891,46.1649-13.6839Z"/>
    <path class="cls-1" d="M871.3913,461.6427v30.09c-12.1022,7.2098-28.8637,11.4033-46.1649,13.5736v-29.1458c16.3202-2.3787,31.9782-7.0137,46.1649-14.5177Z"/>
    <path class="cls-1" d="M871.3913,510.5664v28.9987c-12.2248,7.3937-28.9987,11.7221-46.1649,13.9414v-28.827c16.5164-2.4769,32.3951-7.124,46.1649-14.1131Z"/>
    <path class="cls-1" d="M871.3913,560.0541v28.2997c-12.188,7.2588-29.0109,11.6485-46.1649,13.9414v-28.6676c16.7616-2.4033,33.0572-6.9278,46.1649-13.5736Z"/>
    <path class="cls-1" d="M871.3913,608.8552v28.5817c-12.1635,7.4551-28.876,11.6976-46.1649,13.8311v-28.5817c16.0627-2.0477,31.6717-6.3025,46.1649-13.8311Z"/>
    <path class="cls-1" d="M871.3913,658.2816v28.7289c-12.1022,7.5898-28.876,12.0899-46.1649,14.3215v-29.6853c16.8106-2.1948,33.1431-6.4128,46.1649-13.3651Z"/>
    <path class="cls-1" d="M689.0862,558.9874c10.3855-2.5136,20.1948-6.3269,31.2179-12.6784v29.2806c-8.6567,6.045-19.9251,10.0668-31.2179,12.8256v-29.4278Z"/>
    <path class="cls-1" d="M689.0862,608.1195c11.9182-2.9428,21.6539-6.4006,31.2179-11.7834v28.9127c-6.4373,4.0464-13.9414,6.7807-21.2125,9.8828l-10.0054-10.5572v-16.455Z"/>
    <polygon class="cls-1" points="713.3518 650.5078 720.3041 646.5228 720.3041 657.6685 713.3518 650.5078"/>
    <path class="cls-1" d="M515.4745,793.8211l-165.47-.184v-46.7166l128.3665.1226c17.8651.0123,33.7316,13.1566,36.0859,29.6608.8215,5.8611,1.1158,11.3542,1.0177,17.1172Z"/>
    <rect class="cls-7" x="281.2641" y="316.3725" width="144.0945" height="36.3151" transform="translate(-132.4951 307.4861) rotate(-40.2497)"/>
    <rect class="cls-1" x="363.4677" y="401.3413" width="144.0945" height="63.1139" transform="translate(-176.5898 383.8895) rotate(-40.2497)"/>
    <rect class="cls-7" x="466.0984" y="184.4173" width="46.9575" height="35.5021" transform="translate(-14.7107 364.1916) rotate(-40.2497)"/>
    <rect class="cls-7" x="177.0365" y="424.6027" width="44.6188" height="32.7275" transform="translate(-237.7193 233.2063) rotate(-40.2497)"/>
    <path class="cls-1" d="M522.1494,274.1204l56.0545,69.0981s15.8618,20.3642,28.3842,9.094,16.2792-15.4444,5.009-30.0539-63.0297-78.4741-63.0297-78.4741c0,0,16.8724,65.6809-26.418,30.3359Z"/>
    <path class="cls-1" d="M271.0905,499.4084l52.1769,65.9856s13.7747,18.0721,1.6697,28.0851c-12.105,10.013-20.0359,11.6827-35.4803-5.0139-15.4444-16.6966-62.5106-75.5522-62.5106-75.5522,0,0,60.4235,23.9154,44.1443-13.5047Z"/>
    <path class="cls-1" d="M460.8058,505.0865l-15.4444,12.5225s5.009,20.2446,23.7927,10.4354c18.7837-9.8093-8.3483-22.9578-8.3483-22.9578Z"/>
    <rect class="cls-1" x="326.8249" y="460.6171" width="26.1839" height="86.9546" transform="translate(-240.617 323.4424) rotate(-38.7225)"/>
    <polygon class="cls-1" points="489.965 338.1971 509.3023 320.9216 555.3398 378.8383 535.074 394.9437 489.965 338.1971"/>
    <path class="cls-1" d="M499.1037,546.1986l76.8044,107.5034s71.7954,101.4164,92.6662,123.122c20.8708,21.7056,40.4976,42.9938,55.7291,47.1679,15.2315,4.1742,26.0843-7.9309,27.754-12.9399,0,0,9.1831-15.8618-3.3393-45.9157,0,0,2.0369,38.6758-50.1942-3.2566-19.2011-15.4151-12.4181,6.2971-191.4893-221.8797l-7.9309,6.1986Z"/>
  </g>
  <g>
    <g>
      <path class="cls-4" d="M438.0098,949.29h168.2793c29.01,0,52.5625,23.5525,52.5625,52.5625v20.585c0,29.01-23.5525,52.5625-52.5625,52.5625h-168.2793c-29.01,0-52.5625-23.5525-52.5625-52.5625v-20.585c0-29.01,23.5525-52.5625,52.5625-52.5625Z"/>
      <path class="cls-6" d="M606.2889,954.29c26.2262,0,47.5627,21.3365,47.5627,47.5627v20.5846c0,26.2261-21.3365,47.5627-47.5627,47.5627h-168.2789c-26.2261,0-47.5627-21.3365-47.5627-47.5627v-20.5846c0-26.2262,21.3365-47.5627,47.5627-47.5627h168.2789M606.2889,944.29h-168.2789c-31.791,0-57.5627,25.7717-57.5627,57.5627v20.5846c0,31.791,25.7716,57.5627,57.5627,57.5627h168.2789c31.791,0,57.5627-25.7717,57.5627-57.5627v-20.5846c0-31.791-25.7717-57.5627-57.5627-57.5627h0Z"/>
    </g>
    <rect class="cls-6" x="500.0643" y="981.1237" width="14.0426" height="63.0638"/>
    <rect class="cls-6" x="530.192" y="981.1237" width="14.0426" height="63.0638"/>
  </g>
</svg>