<?xml version="1.0" encoding="UTF-8"?>
<svg id="Layer_1" data-name="Layer 1" xmlns="http://www.w3.org/2000/svg" viewBox="0 0 1256.1439 1080">
  <defs>
    <style>
      .cls-1 {
        fill: #ffc136;
      }

      .cls-2 {
        fill: #ffc440;
      }

      .cls-3 {
        fill: #f8c818;
      }

      .cls-4 {
        stroke: #f7ef83;
        stroke-miterlimit: 10;
        stroke-width: 10px;
      }

      .cls-4, .cls-5 {
        fill: #f9d628;
      }

      .cls-6 {
        fill: none;
      }

      .cls-7 {
        fill: #f7ef83;
      }

      .cls-8 {
        fill: #493212;
      }

      .cls-9 {
        fill: #fcca59;
      }

      .cls-10 {
        fill: #fbba11;
      }

      .cls-11 {
        fill: #ea9a1d;
      }

      .cls-12 {
        fill: #a9cd63;
      }

      .cls-13 {
        fill: #f4af16;
      }

      .cls-14 {
        fill: #4b894b;
      }
    </style>
  </defs>
  <g>
    <path class="cls-8" d="M1111.1894,295.1742l-5.3274-133.937L627.0027,0,150.7698,160.9746l-6.1653,135.1125L0,399.2348c43.7077,83.4136,103.4729,158.5735,168.4154,225.9296,58.4146,225.1417,246.1765,381.1514,460.1505,454.8356,212.3233-74.5971,402.5989-229.1061,458.8999-453.5225,67.3187-67.1311,123.2696-141.0778,168.678-226.4048-47.4344-36.8546-95.2565-71.0204-144.9546-104.8986ZM190.1005,190.2631l311.4441-105.4863,126.6211-42.6198,199.5424,67.1811,238.1477,81.2376,2.8388,74.422-57.3266-35.2914c-3.9393,12.6934-65.4803-17.0954-71.9708-20.5345l-61.1533-32.4275c-4.0019,3.6017-6.8657,7.9411-9.9171,13.8439l-88.8912-30.139-64.7049-21.9351-85.7147-29.0509-80.7748,27.1375-79.3743,26.6749-36.867,12.3933-41.7068,13.1186-12.0056-13.0186-72.8713,40.2687c-16.3075,9.0042-35.5289,12.2432-52.5493,19.1338l-.1626-5.7401c-.05-1.4882-5.6901-1.8634-7.0533-.9755l-57.9393,37.7175,2.3886-75.9102ZM320.1106,287.6707l5.4401-2.8388-22.9357,36.5169-1.8634-3.4141-8.5664-15.6697,27.9254-14.5942ZM283.1811,284.5067c-4.1394-3.0264-8.2538-10.2422-7.6661-15.3071l94.031-48.7851c2.6262,2.0635,3.9394,4.227,4.252,6.4155,1.3506,9.1542-14.5193,18.8588-23.8485,23.8611-1.6383.8754-3.0639,1.6007-4.177,2.1635l-62.5915,31.6521ZM370.7341,291.3599c19.9717,69.0945,45.0708,134.2247,80.4998,196.4785l60.2904,105.9115c-74.8722-23.1733-150.7073-49.8731-218.4262-88.5285-.025-79.049,27.1626-151.5201,77.636-213.8615ZM714.6308,296.4122c-61.0033,29.3385-117.1167,60.2278-174.7934,93.5308,23.1482-77.2107,49.6105-148.2937,85.5771-219.0514,76.8356-1.4382,152.083,25.5993,215.3873,76.5854-43.2075,14.194-83.2761,29.4136-126.1709,48.9352ZM864.125,268.3618c56.2761,56.7262,89.554,129.2348,98.0829,208.7466l-87.5655-41.9819c-76.6855-29.3261-142.3785-51.6364-227.4428-72.3085,66.3056-40.6938,139.7647-72.6711,216.9254-94.4562ZM516.0389,374.0982l-31.7898,115.0282c-41.3316-70.4451-72.0708-140.1648-91.9675-220.4145,54.4502-54.8754,124.8203-88.2534,203.3191-96.7197-34.0032,66.0931-58.3395,132.5488-79.5618,202.106ZM613.1088,650.7388c-73.6341,39.8184-142.0157,74.2469-221.6276,93.7059-57.2765-54.8629-90.6794-128.2844-97.4326-208.5466,101.4344,51.5239,206.358,86.5276,319.0602,114.8407ZM717.6322,623.051c-19.1464,78.1987-47.9347,148.3311-86.7402,219.1889-82.6632.3502-149.9318-25.1491-215.2371-76.9981,109.7508-34.491,202.4813-84.064,301.9773-142.1908ZM722.7846,700.2366c18.5711-58.2395,34.0157-114.9907,48.8351-176.0815,42.0319,70.1574,70.8203,142.616,92.868,220.4521-54.6253,54.4002-125.0954,87.8781-202.6439,96.5322,24.4864-47.1844,43.9704-92.1677,60.9408-140.9028ZM742.2186,417.3307l68.8318,21.8726c52.1617,18.7336,101.7096,39.6559,151.7077,69.5822,1.3132,78.0111-26.7374,152.6706-76.923,213.2737-34.1158-114.378-83.9014-204.5822-143.6165-304.7285ZM960.332,308.7179l-.0124.0125c-1.5007,3.2765-3.3266,6.553-5.7777,10.5549-.2752.4627-.5753.9379-.8754,1.4257l-22.1728-34.4034.5128.2376,31.252,14.6068c-.8879,2.7137-1.8259,5.1274-2.9264,7.566ZM949.6021,271.8884c-2.5387-1.2756-5.0648-2.5387-7.591-3.7893-.075-.0375-.1626-.075-.2376-.1125-2.6012-1.2881-5.2025-2.5512-7.8036-3.8143-1.3131-.6378-2.6137-1.2631-3.9268-1.8884-2.5887-1.2506-5.2024-2.4761-7.8286-3.7017-.9754-.4502-1.9509-.9129-2.9388-1.3632-3.0765-1.4132-6.1904-2.8263-9.3668-4.2394-.3126-.1376-.6628-.3002-1.0255-.4628-.2877-.1375-.5878-.2751-.913-.4377-.8629-.4127-1.8383-.8879-2.8638-1.4132,0-.0125-.0125-.0125-.0125-.0125-.6128-.3001-1.2506-.6378-1.9009-.9879-.2751-.1501-.5377-.3001-.8128-.4502-.4502-.2501-.9005-.5003-1.3632-.7629-.1875-.1-.3752-.2126-.5627-.3251-5.9903-3.4892-12.6309-8.2038-15.7573-13.2687-.0875-.125-.1626-.2626-.2376-.4002-.3752-.6377-.6878-1.2755-.9254-1.9133-.075-.1626-.125-.3252-.1751-.4877-.0625-.1626-.1-.3126-.1501-.4752-.05-.1501-.0875-.2876-.1125-.4377-.0125-.0376-.025-.075-.025-.1126-.0376-.1501-.0625-.2876-.0875-.4252-.05-.2626-.075-.5128-.0875-.7628-.025-.2127-.0375-.4377-.0375-.6628,0-.125,0-.2501.0124-.3626,0-.1376.0125-.2877.025-.4252v-.0125c.025-.1501.0376-.3001.0625-.4502.0125-.1626.0376-.3126.0875-.4627.025-.1375.0625-.2752.1001-.4127.025-.1125.0625-.2251.0875-.3376.0375-.1126.075-.2252.125-.3377.0501-.1501.1126-.3126.1876-.4627.0625-.1501.1375-.3001.2126-.4502.6128-1.2256,1.5632-2.4386,2.9139-3.6267l95.5567,46.9968c-2.1384,5.9652-4.8272,11.1551-7.7911,15.6572-.1751-.0875-.3502-.175-.5252-.2626-8.4539-4.3145-16.4577-8.4039-24.3113-12.3432ZM223.1533,633.0055c-1.4382-1.4006-2.8763-2.8138-4.302-4.2269-3.0139-2.9889-6.0278-5.9903-9.0042-9.0167-2.9388-2.9764-5.8652-5.9653-8.7666-8.9666-1.4632-1.5007-2.9138-3.0014-4.3395-4.5146-1.4507-1.5006-2.8888-3.0139-4.327-4.5396-1.1255-1.1755-2.2385-2.351-3.3515-3.5391-5.39-5.7277-10.7175-11.5179-15.9824-17.358-1.2881-1.4132-2.5637-2.8388-3.8268-4.2645-1.4257-1.5882-2.8388-3.1764-4.2395-4.7647-2.8263-3.189-5.6151-6.3904-8.3914-9.6044-1.3381-1.5382-2.6763-3.0889-4.0019-4.6521-1.4381-1.6758-2.8638-3.3515-4.277-5.0399-1.3756-1.6132-2.7513-3.239-4.1019-4.8772-3.2766-3.9143-6.5281-7.8537-9.7421-11.818-1.3256-1.6257-2.6262-3.2516-3.9393-4.8773-3.9394-4.9022-7.8286-9.8295-11.6679-14.7819-1.2131-1.5632-2.4261-3.1264-3.6142-4.7022-.9254-1.2005-1.8508-2.4011-2.7638-3.6141-1.2881-1.6883-2.5637-3.3766-3.8268-5.0648-.7253-.963-1.4632-1.9385-2.176-2.9139-.9004-1.1881-1.7883-2.3761-2.6637-3.5766-8.4538-11.4303-16.6577-23.0107-24.5989-34.7286-1.1881-1.7383-2.3636-3.4891-3.5266-5.2399-10.5173-15.7323-20.5595-31.7021-30.0764-47.8846,62.5915-48.0723,126.3585-92.4928,193.1519-134.9l46.9968,76.3104c-1.1631,6.1528-3.6017,11.693-8.3539,18.8088l-.6377-1.013c-2.8388,7.1659-5.4526,14.4317-7.8537,21.8101l1.7508,2.6763-12.3808,50.6235c-.8754.125-1.7508.2626-2.6137.4126-3.6016,21.0222-5.465,42.6448-5.465,64.7049,0,7.1534.2001,14.2691.5878,21.3224l1.6383.2126c1.9509,2.251,3.1139,15.5947-.1001,18.9462,1.2881,12.2932,3.164,24.3988,5.5901,36.3043l1.4882.05,13.6563,47.3594-3.3641-3.3765c4.6272,13.8939,10.0421,27.4377,16.1825,40.5688l5.0023,4.8147c7.4159,12.018,14.2941,23.4484,20.6845,37.5674-3.289-2.6512-6.5655-5.315-9.8295-8.0037-6.353-5.2274-12.6684-10.5299-18.9463-15.9074-.075-.05-.1375-.1125-.2001-.1626-3.0639-2.6387-6.1279-5.2899-9.1793-7.9662-1.5632-1.3506-3.1139-2.7137-4.6646-4.1019-3.1014-2.7388-6.1904-5.5026-9.2668-8.2788-.2001-.1626-.4002-.3377-.5878-.5253-2.8888-2.6137-5.7652-5.2399-8.6289-7.8786-.2501-.2126-.4877-.4377-.7254-.6628-2.8138-2.6012-5.6151-5.2025-8.4039-7.8286-1.063-1.0004-2.1259-2.0134-3.189-3.0139-1.9634-1.8508-3.9143-3.7142-5.8652-5.6026-3.0013-2.8763-5.9902-5.7777-8.9666-8.7041ZM628.5535,1036.7424c-167.54-61.2909-324.8504-178.345-395.2204-347.9861,49.2853,43.4701,96.5822,84.264,147.6058,123.2696.7628.5878,1.5257,1.163,2.2886,1.7508,10.6299,8.1412,19.9967,15.6197,28.3256,25.9995,6.453,5.5026,14.0064,11.7304,22.6605,18.5086.2376.0125.4502.0875.6377.2376,7.8412,6.2654,15.995,12.4933,24.3988,18.6462,50.3984,36.817,110.026,70.8078,166.3395,94.2561l2.076-.4377.4001-.0875,113.7777-56.301.025-.0125c34.5911-20.8972,67.006-44.4455,97.3076-71.8458,23.3483-21.1098,46.7466-39.1181,71.7207-58.252,39.4183-30.2014,75.1848-61.7786,113.0648-95.8068-71.7707,171.0167-225.817,285.7322-395.408,348.0611ZM945.9879,712.0546c.2001-.8004.4252-1.5883.6503-2.3636v-.0125c.175-.5752.3376-1.1505.5377-1.7133.1751-.6128.3752-1.213.5877-1.8008.2001-.6003.4127-1.2005.6378-1.7883.1126-.3376.2376-.6502.3752-.9754.1876-.5252.4002-1.038.6128-1.5507.0501-.1501.1126-.2877.1876-.4252.2752-.6878.5628-1.3631.8754-2.0384.05-.1375.1125-.2751.1875-.4002.2501-.5628.5128-1.1255.7754-1.6757.1501-.3126.3001-.6378.4751-.9505.2001-.4502.4252-.8879.6628-1.3256.1126-.2376.2376-.4752.3626-.7128.3377-.6503.6879-1.2881,1.038-1.9259.4002-.7379.8129-1.4758,1.2381-2.201.4127-.7254.8379-1.4507,1.2756-2.176.4252-.7128.8504-1.4382,1.3006-2.151.2752-.4627.5628-.9379.8629-1.4006.6628-1.0755,1.3381-2.151,2.0134-3.214.7504-1.1881,1.5007-2.3636,2.2511-3.5516.5252-.8379,1.063-1.6758,1.5882-2.5262.7754-.7128,1.5632-1.4382,2.3386-2.151v-.0124c6.1654-12.831,11.6429-26.0496,16.3701-39.6434l-.9379.9505,13.7814-50.0107.6128-.0375c2.6262-12.9935,4.6021-26.2247,5.8777-39.6684-.2001-.5627-.3252-1.1004-.3502-1.6007-.0625-1.3006.0625-2.4011.3502-3.339.1-.3126.2126-.6003.3376-.8879.1251-.2501.2501-.5003.4002-.7254.3377-.5252.7379-.9879,1.1881-1.4006.1501-.1375.3126-.2751.4752-.4126.025-.025.0625-.0501.0875-.0626.1-.075.2001-.1501.3001-.2251.4127-.3001.8629-.5628,1.3131-.8004.2251-.125.4627-.2376.7003-.3626.5128-.2376,1.038-.4752,1.5757-.7003.1501-.05.3001-.1126.4502-.1751.4627-.175.913-.3626,1.3757-.5377.2876-.1125.5627-.2251.8504-.3252.5002-.2001.9879-.4002,1.4882-.6128.1501-.075.3126-.1375.4627-.2126.3126-.1375.6128-.2752.9254-.4252.2626-.1375.5252-.2751.7879-.4126.5127-.2877,1.0255-.6003,1.5132-.9255.2375-.175.4751-.3501.7128-.5377,1.7508-1.4006,3.189-3.289,3.9769-6.0778.1-.3252.175-.6628.2501-1.0004.025-.1126.0376-.2126.0626-.3252.05-.2126.0875-.4377.1125-.6628.025-.1501.05-.3002.0625-.4503.025-.2001.0501-.4002.075-.6128v-.05c.0376-.3877.0626-.7754.075-1.1881.0626-1.4506-.0124-3.0765-.2251-4.9022-1.1755-.0125-2.5137.0375-3.9893.1501-.5127.0375-1.0504.0875-1.6007.1375-.2001.0125-.4002.0376-.6128.0625-.2252.025-.4627.0501-.7003.075-.7003.0625-1.4257.1501-2.1761.2501-.6502.0875-1.3256.1751-2.0259.2752-2.0759.2876-4.3144.6377-6.6906,1.0254-.5252-.9629-1.1505-5.2024-1.0755-9.3918,0-.2252,0-.4503.0125-.6628.0375-.9004.1-1.7758.2126-2.6137.0125-.2126.05-.4126.0875-.6128.0625-.4126.1375-.8128.2251-1.188.0375-.1876.0875-.3752.1375-.5503.05-.1751.1001-.3502.1626-.5253.0375-.1375.0875-.2751.1375-.4002.075-.1875.1501-.3626.2251-.5252-.3752-19.6091-2.2385-38.868-5.49-57.6391-.3252-.025-.6503-.0376-.988-.0501l-11.5303-48.9101.4627-.7628c-2.5387-8.0288-5.3275-15.9324-8.3664-23.7235-.3126-.5877-.6128-1.1755-.8879-1.7508-.2126-.4377-.4252-.8629-.6253-1.2881-.1125-.2376-.2251-.4627-.3252-.6878-.4002-.8504-.7754-1.6883-1.1255-2.5262-.1876-.4252-.3502-.8379-.5128-1.2506-.9879-2.4261-1.7883-4.7897-2.4011-7.1533-.2251-.8379-.4252-1.6883-.6003-2.5262-.0875-.4252-.1751-.8379-.2501-1.2631l46.0963-76.4229c68.044,42.057,129.2474,85.8898,193.8147,133.962-67.2311,118.1422-160.3492,214.5869-265.4729,303.8907Z"/>
    <g>
      <path class="cls-13" d="M628.5509,1031.4141c-2.8779-1.0605-5.5215-2.0527-8.0381-3.0176-84.9258-32.25-163.3472-77.9785-226.8013-132.248-64.5996-55.25-113.8481-118.627-146.6455-188.6572,39.9189,35.0039,83.3125,72.1816,130.8359,108.5078l2.2725,1.7373c10.7109,8.2031,19.5264,15.2588,27.4785,25.1689l.2959.3691.3599.3066c7.3047,6.2295,14.9834,12.501,22.8218,18.6406l1.25.9785.3384.0166c7.5215,5.9873,15.4453,12.0322,23.5771,17.9863,48.3389,35.3125,104.123,67.4092,157.4277,90.6055v47.4023l3.2129,1.2295c2.6904,1.0293,5.4014,2.0283,8.1045,3.0244l2.5342.9346,1.7275-.6348c158.7969-58.3672,284.6836-155.3525,359.6143-275.9424-32.5869,56.0176-75.8545,106.8945-129.1982,151.8232-65.0068,54.752-142.7783,99.0811-231.168,131.7686Z"/>
      <path class="cls-3" d="M262.838,727.893c34.6567,30.0833,71.86,61.3749,111.9978,92.0545.3916.3018.7832.6004,1.1749.8989.3708.2826.7415.5651,1.1365.8695,10.4256,7.9846,19.0048,14.8453,26.6065,24.3188l.5916.7372.7192.6134c7.362,6.2777,15.0946,12.5936,22.983,18.7721l2.4865,1.9474.3211.0169c7.2036,5.7063,14.7575,11.4557,22.496,17.1215,47.713,34.8563,102.6492,66.6027,155.3727,89.8344v43.359c-36.4369-14.5653-71.5729-31.5838-104.6309-50.6871-38.8106-22.4277-74.8547-47.7963-107.1312-75.4014-57.0486-48.7914-102.0137-103.9555-134.1238-164.4551M1023.9614,688.6813c-5.1772,4.6523-10.3047,9.2544-15.4196,13.7939-76.6855,153.7211-222.0028,258.1696-380.9639,316.5966-2.9514-1.088-5.9152-2.176-8.8541-3.3016v-47.2467c-54.2626-23.3109-111.1138-56.026-159.4737-91.3549-8.4039-6.1528-16.5576-12.3807-24.3989-18.6461-.1875-.15-.4001-.2251-.6376-.2376-8.6541-6.7781-16.2076-13.0059-22.6605-18.5085-8.329-10.3798-17.6958-17.8584-28.3257-25.9995-.7628-.5879-1.5256-1.1631-2.2885-1.7509-47.0218-35.9417-90.8671-73.3965-136.0255-113.0773-3.8518-3.3766-7.7036-6.7783-11.5804-10.1924,68.9945,166.3145,221.5526,282.0931,385.3909,344.3095,3.2642,1.2505,6.5532,2.4761,9.8297,3.6766,169.591-62.3289,323.6374-177.0444,395.408-348.0612h0Z"/>
    </g>
    <path class="cls-10" d="M1008.5419,702.4752c-76.6855,153.7211-222.0028,258.1695-380.9639,316.5965-2.9514-1.088-5.9153-2.176-8.8541-3.3015v-47.2468c2.3011.9879,4.5896,1.9509,6.8657,2.9014l2.076-.4377.4001-.0875,113.7777-56.301.025-.0125c34.5911-20.8972,67.006-44.4455,97.3076-71.8458,23.3483-21.1098,46.7466-39.1181,71.7207-58.252,34.0283-26.0745,65.3427-53.1746,97.6452-82.0129Z"/>
    <path class="cls-11" d="M1008.5419,702.4752c-76.6855,153.7211-222.0028,258.1695-380.9639,316.5965-2.9514-1.088-5.9153-2.176-8.8541-3.3015v-47.2468c2.3011.9879,4.5896,1.9509,6.8657,2.9014l2.076-.4377.4001-.0875,113.7777-56.301.025-.0125c34.5911-20.8972,67.006-44.4455,97.3076-71.8458,23.3483-21.1098,46.7466-39.1181,71.7207-58.252,34.0283-26.0745,65.3427-53.1746,97.6452-82.0129Z"/>
    <path class="cls-12" d="M963.2584,301.1519c-.8879,2.7137-1.8259,5.1274-2.9264,7.566l-.0124.0125c-1.5007,3.2765-3.3266,6.553-5.7777,10.5549-.2752.4627-.5753.9379-.8754,1.4257l-22.1728-34.4034.5128.2376,31.252,14.6068Z"/>
    <path class="cls-12" d="M349.9495,250.6911c-1.6383.8754-3.0639,1.6007-4.177,2.1635l-62.5915,31.6521c-4.1394-3.0264-8.2538-10.2422-7.6661-15.3071l94.031-48.7851c2.6262,2.0635,3.9394,4.227,4.252,6.4155,1.3506,9.1542-14.5193,18.8588-23.8485,23.8611Z"/>
    <path class="cls-14" d="M1189.1255,413.5665c-10.805,17.5957-21.9476,34.5035-33.428,50.8485-1.9759,2.7888-3.9519,5.5776-5.9402,8.3414-5.2274,7.2659-10.5299,14.4317-15.8949,21.4975-.8879,1.1755-1.7883,2.3511-2.6887,3.5266-11.2802,14.6943-22.8606,28.9509-34.7662,42.8948-1.1255,1.3131-2.251,2.6262-3.389,3.9393-1.9759,2.3011-3.9643,4.6021-5.9653,6.8782-.8128.9379-1.6383,1.8634-2.4511,2.7888-1.7508,1.9759-3.4892,3.9518-5.2524,5.9152-2.8388,3.189-5.7152,6.3655-8.6165,9.5294-1.8008,2.0009-3.6392,3.9893-5.465,5.9778-5.5151,5.9652-11.0926,11.8929-16.7453,17.7707-1.9133,2.001-3.8393,4.0019-5.7777,5.9903-2.0009,2.0884-4.0268,4.1519-6.0653,6.2153-1.5757,1.6132-3.1515,3.214-4.7523,4.8147-1.2506,1.2756-2.5261,2.5512-3.7892,3.8268-2.126,2.1385-4.252,4.252-6.3904,6.3655-1.7383,1.7258-3.4892,3.4516-5.2399,5.1774-1.3882,1.3756-2.7763,2.7263-4.177,4.0893-1.9634,1.9259-3.9268,3.8393-5.9027,5.7402-2.126,2.0635-4.252,4.1144-6.403,6.1653-3.0514,2.9389-6.1279,5.8652-9.2168,8.7791-2.0635,1.9634-4.1395,3.9143-6.2279,5.8777-5.1399,4.8272-10.3298,9.6544-15.5572,14.4816-.7378.6754-1.4632,1.3506-2.201,2.0135,6.1654-12.831,11.6429-26.0496,16.3701-39.6434l50.3108-51.1737-36.8545,2.0759c2.6262-12.9935,4.6021-26.2247,5.8777-39.6684.0625.1751.1375.3502.2126.5253s.1501.3501.2501.5252c.1125.2376.2501.4877.4002.7379.1125.1875.2376.3752.3626.5627.0125.025.025.0376.0375.0501.0626.1.1376.2001.2127.3001.1501.2001.3001.4002.4502.5877.1375.1751.2751.3377.4252.4877.025.025.0375.0501.0625.0625.075.1001.1626.1876.2501.2626.1625.1751.3376.3377.5127.4877.1501.125.3001.2501.4502.3626.2001.1501.4127.2876.6128.4127.0875.0625.1751.1125.2626.1501.3877.2126.7754.3501,1.138.4127.1376.025.2752.0375.4127.0375.1876,0,.3752-.025.5503-.075,14.6193-4.0519,15.6822-9.717,18.2084-8.4914l7.8911,3.8143c2.1885,1.063,7.2533-4.1644,7.5285-6.6031.2626-2.4386-2.9513-6.5655-4.5271-9.2668,2.0259-11.1051,2.1384-22.648-5.4525-30.5516-6.3905-6.6531-22.0727-6.9157-27.8504-.3877-.2752.3126-.5252.7003-.7379,1.1505-.3752-19.6091-2.2385-38.868-5.49-57.6391.7253.0375,1.4506.075,2.176.125.0875,0,.1626.0125.2501.025,2.2135.1875,4.3895.4627,6.528.8504.7254.1375,1.4382.2751,2.151.4252,1.3882.3001,2.7388.6378,4.0769,1.013.1626.0376.3377.0875.5128.1501.5752.1626,1.138.3377,1.7008.5128,1.3632.4377,2.7012.9129,4.0268,1.4257.6503.2501,1.2881.5127,1.9385.7754.0375.0125.075.0375.1125.05.5878.2626,1.1755.5128,1.7634.7754.0625.0376.1375.0625.2126.1001,1.8383.8629,3.6267,1.7883,5.3775,2.7762.0625.025.1126.0626.1751.1001.5503.3126,1.1005.6378,1.6508.9755.6878.4126,1.3631.8379,2.0384,1.2755.4752.3126.9505.6253,1.4132.9505.5627.3877,1.113.7754,1.6632,1.1755.6128.4377,1.2256.8879,1.8259,1.3632.4752.3501.9379.7253,1.4006,1.088,1.5132,1.2255,2.9764,2.4886,4.377,3.8017.2626.2376.5252.4752.7754.7379.2752.2501.5503.5127.8129.7754.9505.9254,1.8634,1.8634,2.7388,2.8138.7253.7879,1.4256,1.5757,2.101,2.3761.5752.6628,1.138,1.3381,1.6883,2.0135.7879.9879,1.5632,1.9884,2.3011,3.0013,16.0824,21.9727,12.9435,44.208,11.5928,71.5831,30.7393-31.1144,55.5633-62.9541,77.5109-96.5697-32.5776-40.5188,8.0662-42.8323-20.1344-61.7536l-64.0797-42.9949c-14.7693,12.7809-30.7767,18.1709-49.8355,10.9926l-22.8981,37.5674c-2.5387-8.0288-5.3275-15.9324-8.3664-23.7235.2501.5003.5127,1.0004.7879,1.5007l43.9078-71.1954c58.9898,35.8791,112.1144,73.5965,166.1519,114.1904Z"/>
    <path class="cls-6" d="M966.8225,673.0116c.7379-.6628,1.4632-1.3381,2.201-2.0135-.7253.6754-1.4632,1.3506-2.201,2.0259v-.0124Z"/>
    <path class="cls-14" d="M285.9199,669.2599l-54.4502-52.4118c-63.5044-61.8286-115.8912-126.6586-163.9884-202.9064l81.8754-58.5771,84.1639-56.4637,43.2826,68.7443c-2.8388,7.1659-5.4526,14.4317-7.8537,21.8101l-22.8731-34.9787c-19.4715,8.6415-35.2538,2.6763-50.1608-9.717l-74.2969,50.4609c11.3428,20.1718,7.4284,39.4557-7.7286,55.113,24.2487,35.2288,49.5354,67.8439,76.9231,95.9193-1.1755-8.1662-1.7008-15.9824-1.5757-23.3858.025-1.0881.0625-2.1636.1125-3.2265,0-.2126.0125-.4252.025-.6378.025-.4752.05-.9505.075-1.4132.025-.2501.0376-.5003.0501-.7503.0875-1.2756.2001-2.5387.3251-3.7893.0125-.075.0125-.1501.025-.2251.0625-.6628.1375-1.3256.2251-1.9759.075-.6502.1626-1.3006.2626-1.9509.3001-2.176.6753-4.302,1.1255-6.3904.075-.4002.1626-.7879.2501-1.1755.1375-.6003.2752-1.1881.4127-1.7633.025-.0875.0375-.1751.0625-.2626.1375-.5503.2752-1.088.4252-1.6257.1125-.4252.2251-.8504.3501-1.2756.1626-.5753.3252-1.1505.5128-1.7258.9879-3.214,2.1384-6.3029,3.4641-9.2668.2001-.4377.4002-.8879.6128-1.3256.2252-.4752.4628-.963.6879-1.4382.0625-.1125.1125-.2126.1626-.3126.2251-.4252.4377-.8504.6628-1.2756.1626-.3126.3377-.6377.5128-.9504.2626-.4877.5377-.963.8128-1.4382.2626-.4627.5252-.9129.8004-1.3632.05-.075.1001-.1501.1501-.2376.2376-.3877.4752-.7628.7128-1.138.5127-.8004,1.038-1.5883,1.5883-2.3636.2876-.4126.5752-.8128.8629-1.213.3877-.5252.7754-1.038,1.1755-1.5507.3502-.4503.7128-.9005,1.0756-1.3506.3626-.4377.7253-.8754,1.1005-1.3006.4002-.4628.8128-.9255,1.2255-1.3757.3001-.3377.6128-.6753.9379-1.0004.2376-.2626.4877-.5252.7503-.7754.3126-.3252.6253-.6503.9505-.9505.3001-.3001.6128-.6003.9254-.9004.3502-.3252.7128-.6628,1.0756-.9755.4877-.4502.9754-.8754,1.4757-1.3006.4377-.3627.8754-.7379,1.3256-1.088.1751-.1501.3626-.3002.5503-.4377.3501-.2876.7128-.5628,1.0755-.8379.5753-.4502,1.1755-.8754,1.7758-1.3131.3252-.2376.6628-.4627,1.013-.7003,1.5883-1.1005,3.2516-2.1385,4.9648-3.1139.8379-.4752,1.6883-.9379,2.5637-1.4007,1.0255-.5252,2.0635-1.0504,3.139-1.5382,2.7637-1.3006,5.6651-2.4512,8.704-3.4766.5503-.1876,1.1005-.3627,1.6633-.5378.6628-.2126,1.3256-.4126,2.001-.6128.5877-.1626,1.188-.3376,1.7883-.5002.6628-.1751,1.3256-.3502,2.0009-.5128.6378-.1626,1.2881-.3126,1.9384-.4627.6503-.1501,1.3131-.2876,1.9759-.4252,1.3131-.2752,2.6637-.5253,4.0268-.7504-3.6016,21.0222-5.465,42.6448-5.465,64.7049,0,7.1534.2001,14.2691.5878,21.3224l-13.5813-1.7884-7.0658-26.1371c-4.3895,1.5883-10.78,4.2395-12.7058,7.3909-5.6026,9.0917,8.5289,15.7448-.2252,26.5623-1.6632,2.051-.025,10.5049,2.6012,10.2298,2.1885-.2252,6.7657-1.5383,9.3168-2.1636,5.7526,2.0384,16.4576,8.4915,23.1733,5.1024.0124-.0125.025-.025.025-.0376,1.2881,12.2932,3.164,24.3988,5.5901,36.3043l-33.0778-1.038,44.8583,45.0709c4.6272,13.8939,10.0421,27.4377,16.1825,40.5688Z"/>
    <g>
      <path class="cls-1" d="M194.9948,193.8921l308.1504-104.3809,125.0259-42.0811,197.9414,66.6416,234.873,80.1309,2.3564,61.626-54.8457-33.7642-1.7246,5.563c-.3486.0928-1.001.207-2.0996.2075-14.5391.0005-53.7109-18.1968-62.9316-23.085l-64.2373-34.0552-2.5986,2.335c-3.3535,3.0146-6.083,6.4839-8.9521,11.4663l-236.9326-80.3091-198.6099,66.7363-38.5884,12.1396-12.522-13.563-76.3057,42.1582c-9.4233,5.2065-20.2695,8.5127-30.7588,11.71-4.854,1.4795-9.8228,2.9941-14.7041,4.7085-.6592-2.6431-3.3276-5.0981-9.2158-5.0981-2.2988,0-4.061.4199-5.3877,1.2837l-49.9116,32.499,1.979-62.8691Z"/>
      <path class="cls-5" d="M628.1707,52.7057l196.3084,66.0919,231.641,79.0284,1.8677,48.8353-41.3822-25.4758-10.9781-6.7584-2.5811,8.3288c-14.0068-1.2579-49.1382-17.2142-58.9639-22.4233l-61.1511-32.4192-6.1727-3.2724-5.196,4.6703c-3.1724,2.8513-5.6927,6.0108-7.7805,9.1705l-231.5595-78.4888-3.1963-1.0835-3.1991,1.0749-196.9198,66.1692-35.563,11.1886-7.7118-8.353-5.3195-5.7617-6.864,3.7923-72.8735,40.2623c-8.9641,4.9525-19.0839,8.0373-29.7977,11.3031-3.6537,1.1138-7.3713,2.247-11.083,3.4735-2.3401-2.4146-6.0873-4.0799-11.3796-4.0799-3.2986,0-5.9538.6851-8.1165,2.0936l-41.8842,27.2721,1.5688-49.8292,304.8474-103.2622,123.4398-41.5472M628.1712,42.1543l-126.6302,42.6211-311.4343,105.4935-2.3899,75.9092,57.9387-37.7256c.4887-.3182,1.5269-.4737,2.66-.4737,2.0267,0,4.3563.4977,4.3834,1.452l.1627,5.7423c17.0294-6.8972,36.2455-10.1297,52.5503-19.138l72.8736-40.2623,12.0125,13.0113,41.7045-13.1208,197.0103-66.1996,239.3182,81.1187c3.0504-5.8937,5.9115-10.234,9.9166-13.8337l61.1511,32.4192c5.3603,2.8417,48.2832,23.667,65.2733,23.667,3.5778,0,6.0065-.9239,6.6913-3.1335l57.3331,35.2956-2.8461-74.4172-238.1422-81.2464-199.5369-67.1789h0Z"/>
    </g>
    <g>
      <path class="cls-2" d="M876.6242,430.5234l-.1914-.0732c-70.2129-26.8477-134.3955-49.1089-216.3047-69.5923,62.5088-37.1118,130.5605-66.3096,202.5098-86.8794,51.4424,52.7451,83.6455,119.8301,93.5195,194.6812l-79.5332-38.1362Z"/>
      <path class="cls-5" d="M861.1324,279.6142c47.374,49.443,77.8051,111.426,88.7314,180.4824l-70.8932-33.993-.3694-.1771-.3826-.1463c-66.9579-25.6034-128.4601-47.0491-205.0179-66.7632,58.3879-33.5017,121.4706-60.1597,187.9317-79.4027M864.1237,268.3582c-77.1627,21.7855-150.6188,53.7714-216.9227,94.463,85.0576,20.6661,150.7533,42.9736,227.446,72.2994l87.5552,41.9824c-8.5258-79.5055-41.7967-152.0192-98.0784-208.7448h0Z"/>
    </g>
    <g>
      <path class="cls-7" d="M482.6085,476.3149c-40.0161-69.9482-67.0884-135.7852-84.7852-206.0659,51.1138-50.6606,116.2617-82.3921,189.0732-92.1641-28.5967,56.8965-52.0859,117.3721-75.6348,194.5513l-28.6533,103.6787Z"/>
      <path class="cls-1" d="M578.1618,184.433c-26.818,54.6725-49.2284,113.1521-71.6823,186.7441l-.0387.1269-.0354.1278-25.3919,91.8842c-36.0338-64.7351-60.9449-126.2538-77.637-191.5133,47.7971-46.5565,107.8073-76.5108,174.7852-87.3697M595.6026,171.996c-78.4975,8.4611-148.8694,41.8371-203.3161,96.7183,19.8965,80.2487,50.6366,149.9724,91.9685,220.4147l31.7892-115.0336c21.2231-69.5582,45.5542-136.0163,79.5584-202.0994h0Z"/>
    </g>
    <g>
      <path class="cls-7" d="M548.2921,379.3062c23.8018-77.4912,49.4404-142.4995,80.2109-203.4629.9072-.0083,1.8145-.0122,2.7197-.0122,70.8096,0,139.4863,24.1147,199.1787,69.8359-42.291,14.1851-79.96,28.9561-117.8457,46.1899l-.0967.0454c-62.8027,30.208-119.7891,61.9268-164.167,87.4038Z"/>
      <path class="cls-5" d="M631.5911,180.8314c35.8558.0429,71.4847,6.4603,105.901,19.0757,28.8869,10.5885,56.4922,25.3832,82.2863,44.0823-38.8333,13.311-73.9649,27.246-109.293,43.3165l-.0975.0444-.0965.0464c-57.8488,27.8253-110.7532,56.9178-153.4492,81.2574,22.2949-70.7704,46.3279-131.1164,74.7489-187.8226M631.2236,170.8311c-1.9348,0-3.8773.0181-5.8143.0542-35.9626,70.7646-62.4252,141.8488-85.5693,219.0574,57.6689-33.2997,113.7917-64.1963,174.7859-93.5346,42.8984-19.5141,82.9738-34.7309,126.1783-48.9263-61.7075-49.706-134.7615-76.6524-209.5807-76.6508h0Z"/>
    </g>
    <g>
      <path class="cls-10" d="M887.8761,711.5684c-33.8828-109.6113-82.7842-198.0898-134.6318-285.4873l56.1992,17.8569c59.835,21.4907,105.7363,42.4326,148.3467,67.7061.29,36.9028-6.0566,73.4243-18.877,108.5942-11.8779,32.585-29.0273,63.2666-51.0371,91.3301Z"/>
      <path class="cls-7" d="M764.2168,434.8136l43.6254,13.8616c58.339,20.9579,103.3343,41.3769,144.9569,65.8291-.0515,35.3445-6.2957,70.3118-18.5837,104.0221-10.6305,29.1631-25.5554,56.7859-44.4662,82.3348-32.398-101.2065-77.4694-184.4777-125.5324-266.0476M742.2225,417.3324c59.7113,100.1404,109.4938,190.3484,143.6154,304.7307,50.1881-60.6019,78.2337-135.2698,76.9169-213.2807-49.989-29.9274-99.5416-50.849-151.709-69.582l-68.8232-21.868h0Z"/>
    </g>
    <path class="cls-4" d="M511.5294,593.7498c-74.8781-23.1692-150.7168-49.8731-218.4369-88.5294-.0166-79.0518,27.1728-151.5179,77.6388-213.8649,19.9707,69.0969,45.0684,134.2244,80.5077,196.4812l60.2904,105.9131Z"/>
    <polygon class="cls-7" points="625.7533 56.5036 201.8022 196.3487 201.8022 244.0755 625.3162 94.8192 625.7533 56.5036"/>
    <path class="cls-12" d="M325.5507,284.8319l-5.5651,8.8666q0,.0124-.0125.0124c-5.5775,8.2788-8.8791,13.994-9.5794,15.2321-.025.05-.0501.0875-.0625.1125-.0626.1001-.0875.1501-.0875.1501l-7.6286,12.1431-7.3659-13.4688-.8379-1.5507-2.1885-4.0769,33.328-17.4206Z"/>
    <path class="cls-12" d="M982.2297,268.837c-.1501.4252-.3126.8504-.4752,1.2755l-.0124.0125-7.8286,14.1066c-22.5605-11.5053-41.8194-21.3975-64.0046-31.252-1.2631-.5628-2.9389-1.3506-4.8148-2.3261-9.4794-4.8647-24.4738-14.3817-21.9602-23.5859.2626-.9505.7128-1.9009,1.3757-2.8388.5502-.8003,1.2755-1.6007,2.1635-2.3886l95.5567,46.9968Z"/>
    <path class="cls-14" d="M360.9296,244.0755c-18.3085,17.9833-32.34,36.8546-40.9439,49.623l5.5651-8.8666-33.328,17.4206-9.842-18.3835c.2626.2251.5377.4377.8004.6378l62.5915-31.6521c3.2765-1.6633,9.4419-4.8272,15.157-8.7791Z"/>
    <g>
      <path class="cls-8" d="M324.3243,441.0122v-235.7656s-4.1509-66.4137,62.2629-62.5822c66.4137,3.8316,62.5822,29.3753,62.5822,29.3753l44.6138.6386s7.8055-19.1578,58.8657-19.7964,147.4878,0,147.4878,0c0,0,24.2666-2.5544,25.5437,19.7964h53.6419s1.2772-31.6103,56.8348-30.1735c0,0,74.7154-13.2299,76.6312,39.4436,1.9158,52.6735-3.193,265.3251-3.193,265.3251,0,0,4.7052,41.5086-34.6858,44.7015-39.391,3.193-93.0329-7.018-90.4785-40.2281h-38.3156s-14.0491,13.1303-34.484,14.8652c0,0,8.3017,60.7121-20.435,66.9848l16.3855,250.8539,11.0741,108.5609s10.2175,61.7797-26.8209,115.8228c-37.0384,54.0431-116.4539,18.2818-116.4539,18.2818,0,0-71.9311-50.4489-54.0505-159.6484s34.7937-327.2918,34.7937-327.2918c0,0-37.3481-12.0782-34.7937-73.564,0,0-19.1578,4.9279-21.0736-10.3983l-36.3998-4.4669s-12.1333,47.8913-53.0033,45.3369c0,0-88.867,20.435-86.5807-52.3647,2.2863-72.7997.0512-3.7069.0512-3.7069Z"/>
      <path class="cls-5" d="M865.642,457.669c-14.8874,3.2621-31.327,2.7821-45.6177,1.3377-12.2707-1.2403-18.8186-15.536-18.7105-27.539l2.2619-251.0132c8.2783-28.6772,60.2639-23.9621,73.0696-13.9324,8.5302,6.681,10.9607,19.2371,11.0361,31.456l.9563,154.8665-.6747,67.9533c-.1301,13.1071-6.1787,33.3341-22.3209,36.8712Z"/>
      <path class="cls-5" d="M717.2148,436.7291l-186.7064,4.2796c-2.9597.0678-9.004-.8764-11.2742-1.7733-2.8378-1.1212-3.291-7.8184-3.2652-12.0286l1.4745-240.7161,174.9398-3.9008c9.2746-1.3687,16.978-.7532,25.8359,3.8663l-1.0044,250.2729Z"/>
      <path class="cls-5" d="M602.1776,1003.6465c-17.5107-10.181-29.007-26.1206-35.0621-44.1993-19.804-59.1288-7.8175-138.7494-2.6636-202.5799l17.8201-220.7013c25.3506,2.3416,49.6301,2.0307,73.9513-2.5691,5.0696,85.0197,12.0421,166.5423,21.4962,249.8114,4.7229,47.4896,9.0818,92.535,5.7278,139.3642-3.6408,50.8322-43.4029,102.8903-81.2696,80.874Z"/>
      <path class="cls-5" d="M374.9651,468.658c-20.0436-3.7962-28.7999-24.844-28.577-42.7187l2.7972-224.3879c.1846-14.8073,7.3446-31.0203,23.0873-34.0953,12.2714-2.3969,27.6901-2.9255,39.9857-1.1934,16.3594,2.3046,22.5262,18.7126,22.4386,33.2642l-1.4603,242.7393c-.0698,11.6021-5.1096,24.2999-17.3626,26.0293-12.5363,1.7694-27.523,2.8977-40.9089.3625Z"/>
      <rect class="cls-5" x="645.0766" y="297.0164" width="227.7432" height="31.1926" transform="translate(437.0658 1067.6762) rotate(-89.2984)"/>
      <rect class="cls-5" x="361.8129" y="301.0059" width="230.5376" height="31.5532" transform="translate(156.4795 791.3058) rotate(-89.54)"/>
      <path class="cls-5" d="M588.1772,512.0521c-16.9142,1.3968-33.6508-9.1544-35.4494-25.6342-.45-4.1229,1.0572-12.6811,3.6448-15.2743,2.5876-2.5932,10.0858-3.7516,14.5813-3.7824l109.4597-.7492c2.4814,6.1499,2.6005,19.6181-.5211,25.9334-4.4225,8.9472-16.4045,13.2875-25.7778,14.0616l-65.9375,5.4451Z"/>
      <rect class="cls-7" x="531.3626" y="209.5977" width="173.633" height="43.7595" transform="translate(-4.2041 11.5538) rotate(-1.0672)"/>
      <rect class="cls-13" x="533.2556" y="347.9131" width="173.633" height="76.0519" transform="translate(-7.0806 11.6158) rotate(-1.0672)"/>
      <rect class="cls-7" x="817.9325" y="190.1968" width="56.5835" height="42.7798" transform="translate(-3.794 15.7977) rotate(-1.0672)"/>
      <rect class="cls-7" x="366.4565" y="193.9599" width="53.7654" height="39.4365" transform="translate(-3.9115 7.363) rotate(-1.0672)"/>
      <path class="cls-13" d="M821.8703,303.5901l-.2479,107.2148s-.6879,31.0966,19.5886,30.1032c20.2765-.9934,26.9633-2.0321,27.5588-24.2581.5955-22.2259.8708-121.2826.8708-121.2826,0,0-34.2439,74.1934-47.7703,8.2227Z"/>
      <path class="cls-13" d="M415.859,322.8846l-1.5001,101.3556s-.8923,27.3668-19.8219,27.5037c-18.9295.1369-27.6084-4.3414-29.3228-31.6946-1.7144-27.3531-.8688-118.1582-.8688-118.1582,0,0,38.2308,68.3386,51.5136,20.9935Z"/>
      <path class="cls-13" d="M588.7372,472.6196l-23.959-.0615s-10.7338,22.7226,14.2787,27.8605c25.0125,5.1379,9.6803-27.7991,9.6803-27.7991Z"/>
      <rect class="cls-13" x="424.1879" y="363.8837" width="104.7798" height="31.5514" transform="translate(93.1048 853.174) rotate(-89.54)"/>
      <polygon class="cls-13" points="743.027 338.9378 774.2407 337.5236 773.149 426.6685 741.9588 426.283 743.027 338.9378"/>
      <path class="cls-13" d="M593.21,540.1762l-10.1049,158.8838s-10.1494,149.3849-7.1799,185.5478c2.9695,36.1629,5.0948,70.9889,16.1438,86.4835,11.049,15.4946,30.4015,12.4504,35.7744,9.0429,0,0,20.6531-7.8243,31.8369-45.4292,0,0-27.5417,37.6753-44.4039-41.2549-6.1989-29.0162-16.393-3.5723-9.9396-353.0258l-12.1267-.2482Z"/>
    </g>
    <path class="cls-8" d="M514.2341,607.5299l35.4041,9.5618,93.2725,27.2638,89.0838-47.5752-2.2351,108.2416-16.9227,157.69s-151.9853,47.9371-280.9811-51.0449l82.3786-204.1371Z"/>
    <g>
      <path class="cls-13" d="M670.6163,835.0088c22.6992-44.5869,40.8643-87.1221,56.8838-133.123l.042-.126c16.4307-51.5322,31.1367-104.0781,46.0137-164.4658,35.6084,61.5176,62.8711,127.3359,85.3135,205.834-51.3662,50.2764-116.2275,81.9072-188.2529,91.8809Z"/>
      <path class="cls-9" d="M775.3925,550.6423c31.9858,57.3026,56.9968,118.7394,77.8431,190.985-47.9614,46.1146-107.6236,75.9332-173.7924,86.9765,20.7842-41.662,37.725-81.8448,52.7792-125.074l.0435-.1249.0402-.1261c15.3532-48.1535,29.2038-97.1883,43.0865-152.6365M771.6199,524.1558c-14.8199,61.0867-30.2692,117.8358-48.8414,176.0853-16.9689,48.7273-36.4523,93.7105-60.938,140.9028,77.5573-8.655,148.0212-42.1395,202.6475-96.537-22.05-77.8297-50.8348-150.3003-92.8682-220.451h0Z"/>
    </g>
    <g>
      <path class="cls-13" d="M392.9621,738.9258c-26.939-26.2666-48.6699-56.9834-64.6094-91.335-14.9028-32.1182-24.4595-66.7783-28.4536-103.1533,87.2383,43.4922,182.9717,78.0078,299.5454,107.9873-65.4727,35.1426-131.0928,67.6895-206.4824,86.501Z"/>
      <path class="cls-7" d="M305.9957,553.0242c82.1886,40.1918,172.1112,72.6603,279.8093,101.0176-60.6754,32.2328-121.928,61.6685-191.3395,79.3488-25.5874-25.4077-46.2876-54.9542-61.5772-87.9048-13.4214-28.9247-22.4403-59.9553-26.8926-92.4616M294.0485,535.8956c6.7506,80.2678,40.1568,153.6812,97.4276,208.5477,79.6202-19.4624,147.998-53.8922,221.6363-93.7033-112.7016-28.3175-217.6333-63.3163-319.0638-114.8444h0Z"/>
    </g>
    <g>
      <path class="cls-10" d="M627.9249,837.2441c-39.7305-.1318-75.7744-6.3125-110.1567-18.8838-31.3091-11.4473-61.3408-28.248-91.5547-51.2422,98.6797-31.9814,182.8843-75.2529,283.6694-133.7598-18.0098,69.4033-44.2266,134.5781-81.958,203.8857Z"/>
      <path class="cls-7" d="M701.9384,643.7251c-17.5363,63.82-42.3088,124.4144-76.9769,188.4979-37.9617-.4231-72.5099-6.5056-105.4752-18.5585-28.184-10.3047-55.3398-25.0316-82.5668-44.8141,91.6317-30.693,173.8021-72.5887,265.0188-125.1253M717.6371,623.0562c-99.5057,58.12-192.2368,107.6959-301.9845,142.1841,64.8731,51.5013,131.6661,77.0065,213.5817,77.0065.5486,0,1.1083-.0012,1.6583-.0035,38.8103-70.858,67.5925-140.9884,86.7446-219.1871h0Z"/>
    </g>
    <path class="cls-12" d="M268.9495,389.4553l-22.8731-34.9787c-19.4715,8.6415-35.2538,2.6763-50.1608-9.717l-74.2969,50.4609c11.3428,20.1718,7.4284,39.4557-7.7286,55.113,24.2487,35.2288,49.5354,67.8439,76.9231,95.9193-1.1755-8.1662-1.7008-15.9824-1.5757-23.3858.025-1.0881.0625-2.1636.1125-3.2265,0-.2126.0125-.4252.025-.6378.025-.4752.05-.9505.075-1.4132.025-.2501.0376-.5003.0501-.7503.0875-1.2756.2001-2.5387.3251-3.7893.0125-.075.0125-.1501.025-.2251.0625-.6628.1375-1.3256.2251-1.9759.075-.6502.1626-1.3006.2626-1.9509.3001-2.176.6753-4.302,1.1255-6.3904.075-.4002.1626-.7879.2501-1.1755.1375-.6003.2752-1.1881.4127-1.7633.025-.0875.0375-.1751.0625-.2626.1375-.5503.2752-1.088.4252-1.6257.1125-.4252.2251-.8504.3501-1.2756.1626-.5753.3377-1.163.5128-1.7258.9879-3.214,2.1384-6.3029,3.4641-9.2668.2001-.4377.4002-.8879.6128-1.3256.2252-.4752.4628-.963.6879-1.4382.0625-.1125.1125-.2126.1626-.3126.2251-.4252.4377-.8504.6628-1.2756.1626-.3126.3377-.6377.5128-.9504.2626-.4877.5377-.963.8128-1.4382.2626-.4627.5252-.9129.8004-1.3632.05-.075.1001-.1501.1501-.2376.2376-.3752.4752-.7628.7128-1.138.5127-.8004,1.038-1.5883,1.5883-2.3636.2876-.4126.5752-.8128.8629-1.213.3877-.5252.7754-1.038,1.1755-1.5507.3502-.4503.7128-.9005,1.0756-1.3506.3626-.4377.7253-.8754,1.1005-1.3006.4002-.4628.8128-.9255,1.2255-1.3757.3001-.3377.6128-.6753.9379-1.0004.2376-.2626.4877-.5252.7503-.7754.3126-.3252.6253-.6378.9505-.9505.3001-.3001.6128-.6003.9254-.9004.3502-.3252.7128-.6628,1.0756-.9755.4877-.4502.9754-.8754,1.4757-1.3006.4377-.3627.8754-.7379,1.3256-1.088.1751-.1501.3626-.3002.5503-.4377.3501-.2876.7128-.5752,1.0755-.8379.5753-.4502,1.1755-.8754,1.7758-1.3131.3252-.2376.6628-.4627,1.013-.7003,1.5883-1.1005,3.2516-2.1385,4.9648-3.1139.8379-.4877,1.7008-.9505,2.5637-1.4007,1.0255-.5377,2.0759-1.0504,3.139-1.5382,2.7637-1.3006,5.6651-2.4512,8.704-3.4766.5503-.1876,1.1005-.3627,1.6633-.5378.6628-.2126,1.3256-.4126,2.001-.6128.5877-.175,1.188-.3376,1.7883-.5002.6628-.1751,1.3256-.3502,2.0009-.5128.6378-.1626,1.2881-.3126,1.9384-.4627.6503-.1501,1.3131-.3001,1.9759-.4252,1.3256-.2752,2.6637-.5253,4.0268-.7504.8629-.1501,1.7383-.2876,2.6137-.4126l12.3808-50.6235-1.7508-2.6763ZM190.9009,439.541c-12.1181,0-21.9477-9.8296-21.9477-21.9477s9.8296-21.9476,21.9477-21.9476,21.9476,9.8295,21.9476,21.9476-9.8295,21.9477-21.9476,21.9477Z"/>
    <path class="cls-12" d="M1143.5919,448.9829c-32.5776-40.5188,8.0662-42.8323-20.1344-61.7536l-64.0797-42.9949c-14.7693,12.7809-30.7767,18.1709-49.8355,10.9926l-22.8981,37.5674-.4627.7628,11.5303,48.9101c.3377.0125.6628.025.988.0501.7378.025,1.4632.0625,2.176.125.0875,0,.1626.0125.2501.025,2.226.1626,4.402.4502,6.528.8504.7254.125,1.4382.2626,2.151.4252,1.3882.2877,2.7388.6253,4.0769,1.013.1626.0376.3377.0875.5128.1501.5752.1501,1.138.3252,1.7008.5128,1.3756.4252,2.7137.9004,4.0268,1.4257.6503.2376,1.3007.5002,1.9385.7754.0375.0125.075.0375.1125.05.5878.2501,1.1755.5128,1.7634.7754.0625.0376.1375.0625.2126.1001,1.8383.8504,3.6392,1.7758,5.3775,2.7762.0625.025.1126.0626.1751.1001.5503.3126,1.1005.6378,1.6508.9755.6878.4126,1.3631.8379,2.0384,1.2755.4752.3126.9505.6253,1.4132.9505.5627.3752,1.113.7628,1.6632,1.1755.6128.4377,1.2256.8879,1.8259,1.3632.4752.3501.9379.7128,1.4006,1.088,1.5132,1.2255,2.9764,2.4886,4.377,3.8017.2626.2376.5252.4752.7754.7379.2752.2501.5503.5127.8129.7754.9505.9254,1.8634,1.8634,2.7388,2.8138.7253.7879,1.4256,1.5757,2.101,2.3761.5752.6628,1.138,1.3381,1.6883,2.0135.7879.9879,1.5632,1.9884,2.3011,3.0013,16.0824,21.9727,12.9435,44.208,11.5928,71.5831,30.7393-31.1144,55.5633-62.9541,77.5109-96.5697ZM1066.3186,439.7911c-12.2931,0-22.2603-9.9671-22.2603-22.2728,0-12.2931,9.9672-22.2603,22.2603-22.2603,12.3057,0,22.2728,9.9672,22.2728,22.2603,0,12.3057-9.9671,22.2728-22.2728,22.2728Z"/>
    <path class="cls-12" d="M311.6067,711.6419c-3.289-2.6512-6.5655-5.315-9.8295-8.0037-6.3655-5.215-12.6809-10.5299-18.9463-15.9074-.075-.05-.1375-.1125-.2001-.1626-3.0639-2.6387-6.1279-5.2899-9.1793-7.9662-1.5632-1.3506-3.1139-2.7137-4.6646-4.1019-3.1014-2.7388-6.1904-5.5026-9.2668-8.2788-.2001-.1626-.4002-.3377-.5878-.5253-2.8888-2.6137-5.7652-5.2399-8.6289-7.8786-.2501-.2126-.4877-.4377-.7254-.6628-2.8138-2.6012-5.6151-5.2025-8.4039-7.8286-1.063-1.0004-2.1259-2.0134-3.189-3.0139-1.9634-1.8508-3.9143-3.7142-5.8652-5.6026-3.0013-2.8763-5.9902-5.7652-8.9666-8.7041-1.4382-1.4006-2.8763-2.8138-4.302-4.2269-3.0139-2.9889-6.0278-5.9903-9.0042-9.0167-2.9388-2.9764-5.8652-5.9653-8.7666-8.9666-1.4632-1.5007-2.9138-3.0014-4.3395-4.5146-1.4507-1.5006-2.8888-3.0139-4.327-4.5396-1.1255-1.1755-2.2385-2.351-3.3515-3.5391-5.39-5.7277-10.7175-11.5179-15.9824-17.358-1.2756-1.4132-2.5637-2.8388-3.8268-4.2645-1.4257-1.5882-2.8388-3.1764-4.2395-4.7647-2.8263-3.189-5.6151-6.3904-8.3914-9.6044-1.3381-1.5507-2.6763-3.1014-4.0019-4.6521-1.4381-1.6758-2.8638-3.3515-4.277-5.0399-1.3756-1.6132-2.7388-3.239-4.1019-4.8772-3.2766-3.9143-6.5281-7.8537-9.7421-11.818-1.3256-1.6257-2.6262-3.2516-3.9393-4.8773-3.9394-4.9022-7.8286-9.8295-11.6679-14.7819-1.2131-1.5632-2.4261-3.1264-3.6142-4.7022-.9254-1.2005-1.8508-2.4011-2.7638-3.6141-1.2881-1.6758-2.5637-3.3641-3.8268-5.0648-.7253-.963-1.4632-1.9385-2.176-2.9139-.9004-1.1881-1.7883-2.3761-2.6637-3.5766-8.4538-11.4303-16.6577-23.0107-24.5989-34.7286-1.1755-1.7383-2.3511-3.4891-3.5266-5.2399-10.5173-15.7323-20.5595-31.7021-30.0764-47.8846,62.5915-48.0723,126.3585-92.4928,193.1519-134.9l46.9968,76.3104c-1.1631,6.1528-3.6017,11.693-8.3539,18.8088l-.6377-1.013-43.2826-68.7443-84.1639,56.4637-81.8754,58.5771c48.0972,76.2478,100.484,141.0778,163.9884,202.9064l54.4502,52.4118,5.0023,4.8147c7.4159,12.018,14.2941,23.4484,20.6845,37.5674Z"/>
    <path class="cls-12" d="M1211.4608,408.164c-67.2311,118.1422-160.3492,214.5869-265.4729,303.8907.2001-.8004.4252-1.5883.6503-2.3636v-.0125c.175-.5752.3376-1.1505.5377-1.7133.1751-.6128.3752-1.213.5877-1.8008.2001-.6003.4127-1.2005.6378-1.7883.1126-.3376.2376-.6502.3752-.9754.1876-.5252.4002-1.038.6128-1.5507.0501-.1501.1126-.2877.1876-.4252.2752-.6878.5753-1.3631.8754-2.0384.05-.1375.1125-.2751.1875-.4002.2501-.5628.5128-1.1255.7754-1.6757.1501-.3126.3001-.6378.4751-.9505.2127-.4377.4377-.8879.6628-1.3256.1126-.2376.2376-.4752.3626-.7128.3377-.6503.6879-1.2881,1.038-1.9259.4002-.7379.8253-1.4758,1.2381-2.201.4127-.7379.8379-1.4632,1.2756-2.176.4252-.7254.8629-1.4382,1.3006-2.151.2877-.4752.5753-.9379.8629-1.4006.6628-1.0755,1.3381-2.151,2.0134-3.214.7504-1.1755,1.5007-2.3636,2.2511-3.5516.5252-.8379,1.063-1.6758,1.5882-2.5262.7754-.7128,1.5632-1.4382,2.3386-2.151v-.0124c.7379-.6628,1.4632-1.3381,2.201-2.0135,5.2274-4.8272,10.4173-9.6544,15.5572-14.4816,2.0884-1.9509,4.1644-3.9143,6.2279-5.8777,3.0889-2.9139,6.1653-5.8402,9.2168-8.7791,2.1384-2.051,4.277-4.1019,6.403-6.1653,1.9759-1.9009,3.9393-3.8143,5.9027-5.7402,1.4006-1.3631,2.7888-2.7137,4.177-4.0893,1.7508-1.7133,3.5016-3.4391,5.2399-5.1774,2.1384-2.1135,4.2644-4.227,6.3904-6.3655,1.2631-1.2755,2.5386-2.5512,3.7892-3.8268,1.6008-1.6007,3.189-3.2015,4.7523-4.8147,2.0384-2.0635,4.0644-4.1269,6.0653-6.2153,1.9384-1.9885,3.8643-3.9893,5.7777-5.9903,5.6526-5.8777,11.2302-11.8055,16.7453-17.7707,1.8259-1.9885,3.6642-3.9769,5.465-5.9778,2.9014-3.1639,5.7777-6.3404,8.6165-9.5294,1.7633-1.9634,3.5016-3.9394,5.2524-5.9152.8128-.9255,1.6383-1.8509,2.4511-2.7888,2.001-2.2885,3.9893-4.5771,5.9653-6.8782,1.138-1.3131,2.2635-2.6262,3.389-3.9393,11.9055-13.944,23.4859-28.2005,34.7662-42.8948.9004-1.1755,1.7883-2.3511,2.6887-3.5266,5.365-7.0658,10.6675-14.2316,15.8949-21.4975,1.9884-2.7638,3.9768-5.5526,5.9402-8.3414,11.4803-16.345,22.6229-33.2529,33.428-50.8485-54.0375-40.5938-107.1621-78.3112-166.1519-114.1904l-43.9078,71.1954c-.2752-.5003-.5377-1.0004-.7879-1.5007-.3126-.5877-.6128-1.1755-.8879-1.7508-.2126-.4377-.4252-.8629-.6253-1.2881-.1125-.2376-.2251-.4627-.3252-.6878-.4002-.8504-.7754-1.7008-1.1255-2.5262-.1751-.4252-.3502-.8379-.5128-1.2506-.9879-2.4261-1.7883-4.7897-2.4011-7.1533-.2251-.8379-.4252-1.6883-.6003-2.5262-.0875-.4252-.1751-.8379-.2501-1.2631l46.0963-76.4229c68.044,42.057,129.2474,85.8898,193.8147,133.962Z"/>
    <path class="cls-6" d="M373.8855,227.843c.025,2.0884-.7878,4.177-2.1635,6.2279-2.3886,3.5767-6.4655,7.0158-10.7925,10.0046-5.7152,3.9519-11.8805,7.1158-15.157,8.7791l-62.5915,31.6521c-.2626-.2001-.5377-.4127-.8004-.6378-3.8518-3.314-7.4159-9.9296-6.8657-14.6693l94.031-48.7851c3.0264,2.3761,4.3145,4.8898,4.3395,7.4284Z"/>
    <path class="cls-12" d="M981.742,270.125c-2.0384,5.4275-4.5521,10.1922-7.3034,14.3691-.1751-.0875-.3502-.175-.5252-.2626l7.8286-14.1066Z"/>
    <path class="cls-12" d="M1042.7577,539.2121c-.2752,2.4386-5.34,7.6661-7.5285,6.6031l-7.8911-3.8143c-2.5262-1.2256-3.5892,4.4395-18.2084,8.4914-.1751.05-.3626.075-.5503.075-.1375,0-.2751-.0125-.4127-.0375-.3626-.0626-.7503-.2001-1.138-.4127-.0875-.0376-.1751-.0875-.2626-.1501-.2001-.1251-.4126-.2626-.6128-.4127-.1501-.1125-.3001-.2376-.4502-.3626-.1751-.1501-.3502-.3126-.5127-.4877-.0875-.0875-.1751-.1626-.2501-.2626-.025-.0124-.0376-.0375-.0625-.0625-.1501-.1501-.2877-.3252-.4252-.4877-.1501-.1875-.3001-.3877-.4502-.5877-.075-.1001-.1501-.2001-.2127-.3001-.0124-.0125-.025-.025-.0375-.0501-.125-.1875-.2501-.3626-.3626-.5627-.1501-.2501-.2877-.5003-.4002-.7379-.1001-.1751-.1751-.3501-.2501-.5252s-.1501-.3502-.2126-.5253c-.2001-.5627-.3252-1.1004-.3502-1.6007-.075-1.3006.0625-2.4011.3502-3.339.1-.3126.2126-.6003.3376-.8879.1251-.2501.2501-.5003.4002-.7254.3252-.5252.7254-.9879,1.1881-1.4006.1501-.1375.3126-.2751.4752-.4126.025-.025.0625-.0501.0875-.0626.1-.075.2001-.1501.3001-.2251.4127-.3001.8629-.5628,1.3131-.8004.2251-.125.4627-.2376.7003-.3626.5128-.2376,1.038-.4752,1.5757-.7003.1501-.05.3001-.1126.4502-.1751.4627-.175.913-.3626,1.3757-.5377.2876-.1125.5627-.2251.8504-.3252.5002-.2001.9879-.4002,1.4882-.6128.1501-.075.3126-.1375.4627-.2126.3126-.1375.6128-.2752.9254-.4252.2626-.1375.5252-.2751.7879-.4126.5127-.2877,1.0255-.6003,1.5132-.9255.2375-.175.4751-.3501.7128-.5377,1.7508-1.4006,3.189-3.289,3.9769-6.0778.0875-.3126.175-.6503.2501-1.0004.025-.1126.0376-.2126.0626-.3252.05-.2126.0875-.4377.1125-.6628.025-.1501.05-.3002.0625-.4503.025-.2001.0501-.4002.075-.6128v-.05c.0376-.3877.0626-.7754.075-1.1881.0626-1.4506-.0124-3.0765-.2251-4.9022-1.1755-.0125-2.5137.0375-3.9893.1501-.5127.0375-1.0504.0875-1.6007.1375-.2001.0125-.4002.0376-.6128.0625-.2252.025-.4627.0501-.7003.075-.7003.0625-1.4257.1501-2.1761.2501-.6502.0875-1.3256.1751-2.0259.2752-2.0759.2876-4.3144.6377-6.6906,1.0254-.5252-.9629-1.1505-5.2024-1.0755-9.3918,0-.2252,0-.4377.0125-.6628.0375-.9004.1-1.7758.2126-2.6137.025-.2126.05-.4126.0875-.6128.0625-.4126.1375-.8128.2251-1.188.0375-.1876.0875-.3627.1375-.5503.05-.1751.1001-.3502.1626-.5253.05-.1375.1001-.2626.1375-.4002.075-.1875.1501-.3626.2251-.5252.2127-.4502.4627-.8379.7379-1.1505,5.7777-6.5281,21.4599-6.2654,27.8504.3877,7.5909,7.9037,7.4784,19.4465,5.4525,30.5516,1.5757,2.7012,4.7897,6.8282,4.5271,9.2668Z"/>
    <path class="cls-12" d="M252.3364,548.3897c-6.7076,3.3959-17.4205-3.0607-23.1627-5.0945-2.5531.6132-7.1394,1.9384-9.3244,2.1613-2.6222.2675-4.2563-8.1824-2.5995-10.2296,8.7592-10.8233-5.3744-17.4715.2203-26.5722,1.9374-3.1515,8.3279-5.8006,12.7077-7.383l7.0752,26.1318,15.218,2.0028c1.9552,2.2671,3.1224,15.6941-.1346,18.9834Z"/>
    <polygon class="cls-12" points="1033.5034 582.1946 983.1926 633.3682 982.2547 634.3187 996.0361 584.308 996.6489 584.2705 1033.5034 582.1946"/>
    <polygon class="cls-12" points="259.4418 584.7101 273.0971 632.0625 224.88 583.6194 259.4418 584.7101"/>
    <polygon class="cls-12" points="292.2228 302.2524 294.4113 306.3293 292.1853 302.2649 292.2228 302.2524"/>
    <path class="cls-12" d="M960.3071,308.768c-1.6758,3.6392-3.7392,7.2908-6.6406,11.943l6.6406-11.943Z"/>
    <circle class="cls-14" cx="190.903" cy="417.5927" r="21.9481"/>
    <circle class="cls-14" cx="1066.3246" cy="417.5234" r="22.2648"/>
    <polygon class="cls-6" points="628.0657 970.8994 627.6656 970.987 627.678 970.9745 628.0657 970.8994"/>
    <polygon class="cls-6" points="295.2492 307.88 295.2367 307.88 294.4113 306.3293 295.2492 307.88"/>
    <path class="cls-14" d="M960.332,308.7179c1.1005-2.4386,2.0384-4.8523,2.9264-7.566l-31.252-14.6068c-7.6535-11.2052-16.8578-23.8485-26.9-35.8791,1.0255.5252,2.0009,1.0004,2.8638,1.4132.3252.1626.6253.3001.913.4377.3626.1626.7128.3252,1.0255.4628,3.1764,1.4131,6.2904,2.8262,9.3668,4.2394.9879.4503,1.9634.913,2.9388,1.3632,2.6263,1.2255,5.2399,2.4511,7.8286,3.7017,1.3131.6253,2.6137,1.2506,3.9268,1.8884,2.6011,1.2631,5.2024,2.5262,7.8036,3.8143.075.0375.1626.075.2376.1125,2.5262,1.2506,5.0523,2.5137,7.591,3.7893,7.8536,3.9393,15.8573,8.0287,24.3113,12.3432l-13.5813,24.4863Z"/>
  </g>
  <g>
    <rect class="cls-8" x="491.3698" y="949.29" width="273.4048" height="125.71" rx="52.563" ry="52.563"/>
    <path class="cls-5" d="M712.2114,954.29c26.2262,0,47.5627,21.3365,47.5627,47.5627v20.5846c0,26.2261-21.3365,47.5627-47.5627,47.5627h-168.2789c-26.2262,0-47.5627-21.3365-47.5627-47.5627v-20.5846c0-26.2262,21.3365-47.5627,47.5627-47.5627h168.2789M712.2114,944.29h-168.2789c-31.791,0-57.5627,25.7717-57.5627,57.5627v20.5846c0,31.791,25.7717,57.5627,57.5627,57.5627h168.2789c31.791,0,57.5627-25.7717,57.5627-57.5627v-20.5846c0-31.791-25.7717-57.5627-57.5627-57.5627h0Z"/>
  </g>
  <rect class="cls-5" x="605.9869" y="981.1237" width="14.0426" height="63.0638"/>
  <rect class="cls-5" x="636.1145" y="981.1237" width="14.0426" height="63.0638"/>
</svg>