<?xml version="1.0" encoding="UTF-8"?>
<svg id="Layer_1" data-name="Layer 1" xmlns="http://www.w3.org/2000/svg" viewBox="0 0 1086.0408 1080">
  <defs>
    <style>
      .cls-1 {
        fill: #cf9263;
      }

      .cls-2 {
        fill: #62351e;
      }

      .cls-3 {
        fill: #5b3125;
      }

      .cls-4 {
        fill: #f1c297;
      }
    </style>
  </defs>
  <g>
    <path class="cls-2" d="M130.0764,294.847s-41.478,82.5683-50.0062,125.9846l-69.3884,25.9722s-24.034,75.2031,0,182.5807l71.3266,27.1351s8.3344,62.217,48.068,116.8749l-24.9062,48.5525s6.4931,39.1521,88.383,105.827c0,0-6.9776,83.0529,69.0008,97.7834s111.2541-42.2533,111.2541-42.2533l47.6803,17.0564,22.871,67.0626s83.3436,28.2981,198.4741,0l22.871-69.0008s75.2031-16.2811,128.3104-53.1073l37.6015,19.3822s13.1799,4.2641,21.3205-.7753c8.1405-5.0394,76.366-56.2085,127.1475-127.1475,0,0,5.8147-11.6293-6.9776-38.7645l-13.5676-24.034s34.1127-59.3097,44.9668-117.4564l71.7143-28.6857s22.0958-70.3575,0-181.9992l-70.6483-25.2938s15.9903-209.8128-195.6637-273.1927c0,0-51.7506-40.1212-144.2039-65.7058l-27.329-72.6834s-97.105-20.1575-189.3645,0l-24.034,69.3884s-96.1359,31.0116-125.2093,55.4332l-6.9776-.3876-15.5058-23.2587h-62.7985l-14.3429,19.3822-32.9498,1.9382-44.1915,44.3853,7.9467,22.2896-21.5143,13.1799.9691,72.1019,19.673,11.4355Z"/>
    <circle class="cls-1" cx="243.2932" cy="244.6794" r="30.5513"/>
    <path class="cls-1" d="M350.0446,262.6543c-.2619,0-18.2762.0455-26.3611,12.5713l-30.2099-2.4255c4.6687-8.3125,7.3333-17.9118,7.3333-28.1261,0-31.7585-25.7462-57.5161-57.5161-57.5161s-57.5161,25.7576-57.5161,57.5161,25.7575,57.5275,57.5161,57.5275c3.7122,0,7.3447-.353,10.8518-1.0249l-26.9873,33.9676-26.3611-15.8964-18.6065,15.8964-25.5867-25.5867,11.2504-17.8322-11.2504-24.4139-18.9936-5.8188v-31.007l16.6707-1.9472,13.9605-28.2968-9.6903-18.2193,21.3166-21.7037,16.2835,9.6903,28.2969-9.6903,2.7101-19.768h31.4055l2.323,16.2836,27.1353,14.3363,22.0909-12.4005,21.7151,22.0909-13.5734,17.0578,9.6903,24.8125,20.1551,6.5931,1.9472,33.33Z"/>
    <path class="cls-1" d="M362.7362,197.5321s95.7483-69.3884,260.1097-37.6015c0,0,38.7645-22.4834,78.3043-25.1969,0,0-20.9328-11.2417-67.4502-20.1575l-25.1969-72.4896s-89.546-9.6911-129.4734,3.1012l-25.5846,66.2873s-62.7985,17.0564-106.99,40.3151l16.6687,22.4834-.3876,23.2587Z"/>
    <path class="cls-4" d="M540.3745,50.7117l2.3259,85.6695s-96.5525-.7822-179.6879,44.5757l.1114-6.6834-9.7661-13.1728s49.112-27.0938,109.5846-39.3046l24.4216-67.4502,53.0104-3.6342Z"/>
    <path class="cls-4" d="M969.7857,406.7121c0,128.6169-105.4329,232.8768-235.4959,232.8768-25.9284,0-50.8888-4.1448-74.2209-11.8084-1.0135-.3302-2.0269-.6718-3.029-1.0134h-.0114c-4.9192-1.6853-9.7587-3.5414-14.5298-5.5342-23.1954-3.9741-59.9757,6.2515-86.6214,40.0142-33.33,42.2574-108.5415,155.0577-108.5415,155.0577l-110.0902,150.0246s-46.5162,48.8391-86.0521,10.0776c-39.5473-38.7616-4.6573-87.6121-4.6573-87.6121l108.9287-116.2847c84.5148-79.4704,160.4893-164.7481,160.4893-164.7481,22.0225-28.8435,23.6851-56.0358,18.8684-77.2044-8.4948-13.3456-15.6572-27.6136-21.2938-42.6104,0-.0114-.0114-.0228-.0114-.0228-9.5196-25.2906-14.7235-52.6538-14.7235-81.2125,0-128.6169,105.4442-232.8769,235.4959-232.8769s235.4959,104.26,235.4959,232.8769Z"/>
    <path class="cls-1" d="M946.2487,407.7483c0,117.4576-95.2186,212.6763-212.6763,212.6763-13.9834,0-27.6478-1.3437-40.8682-3.9172-18.4698-3.5984-36.0856-9.588-52.5171-17.6272-72.342-4.885-115.9772,74.3576-115.9772,74.3576l-92.2694,128.6966-111.2517,154.6705s-36.8257,32.1799-59.3038,4.6573c-22.4895-27.5226,5.0331-64.7355,5.0331-64.7355l159.3278-164.7481,100.3997-103.1213c26.5205-35.5846,34.0929-69.9507,32.7151-99.614-9.0072-12.9358-16.6024-26.919-22.5806-41.7336-6.6956-16.591-11.3529-34.2067-13.6759-52.5513v-.0113c-1.1273-8.8364-1.7081-17.855-1.7081-26.9988,0-117.4576,95.2186-212.6763,212.6763-212.6763s212.6763,95.2186,212.6763,212.6763Z"/>
    <path class="cls-2" d="M556.9854,397.8004l138.9707,120.3637s29.5766-13.3737,5.1941-30.2363c0,0,13.9944-18.607-2.2867-32.2714-16.2811-13.6645-86.3479-73.8463-86.3479-73.8463,0,0-13.6645-7.2683-25.0031,6.3961,0,0-17.444-15.1181-30.527,9.5942Z"/>
    <rect class="cls-2" x="677.8278" y="305.5503" width="27.6238" height="104.4908" rx="7.2647" ry="7.2647" transform="translate(-80.6376 257.9406) rotate(-19.9858)"/>
    <rect class="cls-2" x="809.5302" y="255.2534" width="27.6238" height="104.4908" rx="7.2647" ry="7.2647" transform="translate(-55.5153 299.9257) rotate(-19.9858)"/>
    <path class="cls-2" d="M844.323,550.9179s-24.7897,11.0455-32.7492-19.1872c-7.9482-30.2326-41.9613-135.4833-41.9613-135.4833,0,0,.0683-21.7037-25.6323-13.6759-1.6056.501-3.3137,1.1273-5.1242,1.8674-3.7805,1.3665-7.9709-.5807-9.3488-4.3612l-24.6986-67.9239c-1.3779-3.7805.5808-7.9709,4.3613-9.3374l67.9238-24.7099c3.7805-1.3779,7.9596.5807,9.3374,4.3612l24.6986,67.9239c1.3779,3.7805-.5694,7.9709-4.3499,9.3374,0,0-.0455.0114-.1138.0341-.4896.148-2.5052.7516-5.0103,1.8333-6.9689,2.9948-17.8093,9.6449-10.8291,20.121l48.0762,104.9546,12.9471,31.4966s10.4988,24.6075-7.5268,32.7492Z"/>
    <path class="cls-1" d="M464.4733,352.2819l-6.6159,33.8765c-51.1849,29.4128-85.6422,84.6287-85.6422,147.8952,0,46.7326,18.8115,89.0811,49.2605,119.8717l-19.8476,17.6158c-34.1726-35.7098-55.1704-84.139-55.1704-137.4874,0-81.0531,48.4748-150.7761,118.0156-181.7717Z"/>
    <path class="cls-1" d="M687.5572,673.1239c-35.038,35.8237-83.5127,58.4612-137.2825,59.7593l20.2918-30.6084h.0114c30.1985-4.9648,57.721-17.8663,80.3699-36.5069l36.6094,7.356Z"/>
    <path class="cls-1" d="M535.3258,758.0193s114.2711,16.6709,177.2118-75.2009c0,0,67.0045,1.7582,105.9628-17.0506l22.6772,24.2198s-25.0031,45.3544-50.0062,72.1019l-57.5653-22.6772s-15.9255,17.444-46.0488,36.6324l3.0203,61.0541s-37.2139,20.9328-84.8942,28.4919l-33.1436-51.1691s-17.444,2.3259-56.4023-1.7444l-36.051,52.9135-15.6131-5.8147,44.1801-63.4504,26.6724-38.3063Z"/>
    <path class="cls-3" d="M508.6533,796.3257s47.7022,7.5327,72.8991,2.4933l29.8487,49.2309s48.068-5.0394,61.2479-18.9946l-2.3259-61.2479s43.4162-18.9946,59.3097-44.5792l55.4332,21.3205,38.3768-52.3321-20.1998-20.6795s-31.0905,9.8207-92.4563,6.8212c0,0-50.494,81.9384-175.461,79.661l-26.6724,38.3063Z"/>
    <path class="cls-1" d="M472.5854,320.5644s-128.3104,32.5622-152.7321,180.2548c0,0-20.3514,98.8494,62.7985,190.1398l-59.8911,59.8911-25.0031,8.9434s-39.8305-40.6333-49.4247-72.3233l38.6676-43.61s-13.9552-22.6772-16.5718-53.7857l-60.1819-20.9328v-80.8239l60.4726-15.9903s4.6517-38.0861,16.5718-52.9135l-36.9232-50.5876s15.9903-38.0861,47.3896-64.5429l59.8911,21.2236s23.5316-21.2236,47.8168-34.5973v-60.7633s38.8218-23.2587,83.0134-23.8402l22.968,43.3193s-3.8612,5.5256-9.1645,13.6918c-10.5187,16.1974-26.7103,42.7835-29.6969,57.2472Z"/>
    <path class="cls-4" d="M503.4272,261.5612l-22.7013-42.1722s-33.7251,3.4826-61.0541,18.4585v57.7137s-49.6185,35.1788-58.8251,45.0637l-61.2479-21.805s-32.2714,31.4633-35.4695,47.971l36.3417,49.7154s-15.9903,33.365-20.0606,66.5433l-56.1116,14.5714v61.6355l102.6046,33.7322s-55.9904-182.4424,145.6819-272.4245c0,0,15.0694-43.1908,30.8419-59.0031Z"/>
    <path class="cls-3" d="M224.2989,544.3323h95.6197s1.3399,74.3793,62.7332,146.6267l-31.2054,31.2054-51.4598,19.8668s-34.3523-34.0254-34.5004-53.8826l37.9892-43.4162s-18.2678-29.685-21.1509-66.3993l-58.0256-19.0764v-14.9243Z"/>
    <path class="cls-4" d="M1042.0708,600.1783l-70.4973,23.4574-.0114-.0114c-10.4875,53.9063-30.8931,104.2714-59.2469,149.125l26.5432,50.8205c-29.4583,48.452-100.0126,101.9484-100.0126,101.9484l-48.7708-25.6323c-46.2657,31.8383-98.965,54.9881-155.7523,67.104l-23.1157,68.1402c-55.4322,15.4978-136.4512,0-136.4512,0l-21.6582-67.6847-3.0176-.6833-6.3653-1.4234-.8996-.205c-2.5393-.5921-5.0559-1.207-7.5724-1.8447-12.8788-3.2453-25.5412-7.0827-37.9303-11.4554l32.1685-43.1h.0227c13.1976,4.0538,26.6913,7.4016,40.4469,10.032,23.5598,4.4865,47.8826,6.8436,72.752,6.8436,192.5553,0,352.1792-141.0288,381.2162-325.4309v-.0114c.706-.5124,32.2938-23.6965,55.4892-73.8565,8.5061-18.3673,15.8849-40.3444,20.212-66.1588l42.4509,15.122s7.561,72.4559,0,124.9047Z"/>
    <path class="cls-1" d="M267.5567,810.2925l-27.7162,30.597-.353.3985-39.8661,45.0814c-41.0845-44.1932-51.5606-66.2841-51.5606-66.2841l24.152-48.6797h.0113c-27.8869-44.4665-47.9736-94.3191-58.3587-147.6447l-.0113.0114-68.0264-22.1251c-14.3477-67.8441,0-129.8695,0-129.8695l68.6413-19.3238c7.618-37.5887,20.064-73.4239,36.655-106.8335l10.4438,8.0966,12.6606,9.8152,26.0878-2.0952c-27.8186,53.3143-43.5441,113.939-43.5441,178.2417,0,105.4215,42.2574,200.9703,110.7847,270.6137Z"/>
    <path class="cls-4" d="M142.0257,544.3362H53.366c.1594-30.4832,3.5983-61.2852,3.5983-61.2852l68.2313-21.1572c10.4647-57.7552,36.3703-108.1771,36.3703-108.1771l12.6624,9.8156,3.4958-.2847c-26.9874,66.4891-36.655,127.1821-35.6984,181.0886Z"/>
    <path class="cls-3" d="M257.9574,820.8825l-47.2791,52.9727c-25.6664-17.6386-47.1083-56.1041-47.1083-56.1041l25.5868-47.2905c-49.6135-81.7932-63.1869-158.1549-63.1869-158.1549l-69.0056-24.0382c-2.8354-11.3529-3.6894-27.6022-3.5983-43.9313h88.6597c3.0517,173.3795,115.9317,276.5463,115.9317,276.5463Z"/>
    <path class="cls-3" d="M544.4902,938.8411l-2.9379,89.5478c-17.9346.1936-37.9758-1.1387-56.9581-5.8074l-20.1209-69.78s-37.8278-3.7235-59.0078-11.8881l15.9647-21.3849s50.4789,18.6861,123.06,19.3125Z"/>
    <path class="cls-1" d="M1027.0969,592.9931l-69.7686,23.0019s-.8768,76.0201-60.192,157.1301l24.4252,46.2315s-28.1943,51.4582-80.3813,86.3481l-55.6828-19.3352s-61.9115,50.7294-166.5814,68.1744l-19.5174,68.0377s-25.4843,5.4203-57.8463,5.8074l2.9379-89.5478c66.9901.5694,152.7917-14.2338,235.1429-73.253,0,0,159.6922-122.1263,162.9261-282.9914,0,0,37.6684-36.3247,53.69-105.6264l30.8476,6.0807s10.4647,62.3783,0,109.9421Z"/>
  </g>
  <g>
    <g>
      <rect class="cls-3" x="406.3184" y="949.29" width="273.4043" height="125.71" rx="52.5625" ry="52.5625"/>
      <path class="cls-4" d="M627.1599,954.29c26.2261,0,47.5626,21.3365,47.5626,47.5627v20.5846c0,26.2261-21.3365,47.5627-47.5626,47.5627h-168.2789c-26.2262,0-47.5627-21.3365-47.5627-47.5627v-20.5846c0-26.2262,21.3365-47.5627,47.5627-47.5627h168.2789M627.1599,944.29h-168.2789c-31.791,0-57.5627,25.7717-57.5627,57.5627v20.5846c0,31.791,25.7717,57.5627,57.5627,57.5627h168.2789c31.791,0,57.5626-25.7717,57.5626-57.5627v-20.5846c0-31.791-25.7717-57.5627-57.5626-57.5627h0Z"/>
    </g>
    <rect class="cls-4" x="520.9353" y="980.6131" width="14.0426" height="63.0638"/>
    <rect class="cls-4" x="551.063" y="980.6131" width="14.0426" height="63.0638"/>
  </g>
</svg>