<?xml version="1.0" encoding="UTF-8"?>
<svg id="Layer_1" xmlns="http://www.w3.org/2000/svg" version="1.1" viewBox="0 0 1302.14 1080">
  <!-- Generator: Adobe Illustrator 30.2.1, SVG Export Plug-In . SVG Version: 2.1.1 Build 1)  -->
  <defs>
    <style>
      .st0 {
        fill: #0a8659;
      }

      .st1 {
        fill: #e7ebed;
      }

      .st2 {
        fill: #afdfda;
      }

      .st3 {
        fill: #fff;
      }

      .st4 {
        fill: #1ca280;
      }

      .st5 {
        stroke: #105640;
        stroke-miterlimit: 10;
        stroke-width: 15px;
      }

      .st5, .st6 {
        fill: #105640;
      }

      .st7 {
        fill: #dafff6;
      }

      .st8 {
        fill: #c9f7e2;
      }

      .st9 {
        fill: #079667;
      }

      .st10 {
        fill: #9bedbb;
      }

      .st11 {
        fill: #3dd8a1;
      }

      .st12 {
        fill: #a0b3b5;
      }

      .st13 {
        fill: #055c43;
      }
    </style>
  </defs>
  <g>
    <g>
      <polygon class="st11" points="395.95 759.69 205.11 528.48 164.59 474.09 357.22 199.74 948.37 200.72 1133.62 467.36 895.92 790.95 645.77 1031.82 395.95 759.69"/>
      <path class="st10" d="M363.71,212.25l578.12.96,176.43,253.94-231.78,315.53-240.15,231.25-240.94-262.47-190.44-230.71-34.93-46.89,183.69-261.62M350.73,187.23l-201.56,287.08,46.1,61.89,191.25,231.7,258.7,281.81,260.14-250.5,243.62-331.65-194.07-279.33-604.18-1.01h0Z"/>
    </g>
    <path class="st9" d="M368.1,284.67l-133.45,188.55s172.77,255.39,412.23,463.81c0,0,334.03-317.04,411.02-464.79l-143.18-204.51-546.62,16.94h0Z"/>
    <polygon class="st13" points="640.52 915.83 1049.42 477.13 640.52 532.25 640.52 915.83"/>
    <polygon class="st0" points="255.86 472.24 640.52 532.25 640.52 902.78 255.86 472.24"/>
    <path class="st6" d="M898.14,304.08l119.14,170.17c-35.72,58.66-110.39,148.16-217.81,260.89-62.25,65.33-120.71,122.87-151.97,153.21-110.96-99.98-205.34-208.01-266.59-283.27-47.64-58.53-82.68-106.26-100.88-131.76l108.61-153.45,509.5-15.79M916.36,267.73l-546.62,16.94-133.45,188.55s172.77,255.39,412.23,463.81c0,0,334.03-317.04,411.02-464.79l-143.18-204.51h0Z"/>
    <polygon class="st7" points="360.55 22.84 932.65 22.84 1049.42 187.23 645.9 548.19 234.65 187.23 360.55 22.84"/>
    <path class="st2" d="M683.13,118.3l147.43-70.45s97.85,93.94,97.85,123.29-234.84,338.56-234.84,338.56l78.28-322.47-88.72-68.93h0Z"/>
    <polygon class="st2" points="325.65 187.23 591.8 464.69 660.3 447.07 674 339.44 325.65 187.23"/>
    <path class="st6" d="M927.88,38.32l112.75,145.01-39.27,36.13-24,22.08,17.96,27.23,54.8,83.06,20.15,30.55,31.45-18.73,161.98-96.46c.16,6.59.18,13.58,0,20.87-1.01,39.98-8.49,97.17-38.35,142.64l-34.44,52.43,44.98,4.84c-2.55,16.47-6.51,35.9-12.66,55.86-9.01,29.29-20.88,53.93-35.27,73.22-16.67,22.35-36.09,36.99-59.37,44.74l-15.66,5.22-6.97,14.96c-.38.82-38.71,82.83-71.99,130.3l-.16.23-.15.23c-.32.47-34.34,48.36-113.47,87.16l-.37.18-.37.19-264.6,136.9-246.68-118.62c-3.93-2.08-31.3-16.72-62.03-37.42-53.76-36.21-72.7-60.27-79.28-71.7l-60.72-119.88-7.1-14.01-14.88-5c-.25-.08-26.15-9.72-53.96-39.92-17.69-19.2-32.29-42.52-43.42-69.32-8.81-21.22-15.44-44.66-19.83-70.06l61.74.46-51.29-62.49c-1.36-1.87-14.45-20.43-25.01-54.78-6.53-21.22-10.84-44.26-12.81-68.47-1.01-12.42-1.41-25.17-1.19-38.19l162.95,95.68,30.45,17.88,20.31-28.89,57.08-81.22,19.79-28.16-25.88-22.69-40.52-35.52,111.99-146.53h553.33M946.63,0H355.61l-145.25,190.05,67.46,59.15-57.08,81.22L5.31,203.91c-24.14,165.04,41.86,248.87,41.86,248.87-4.89,0-24.14-10.11-24.14-10.11,12.07,218.21,148.93,264.21,148.93,264.21l61.12,120.67c33.92,60.67,157.87,125.25,157.87,125.25l264.53,127.21,281.58-145.69c90.46-44.36,128.29-100.03,128.29-100.03,35.66-50.88,75.34-136.12,75.34-136.12,135.03-45.01,138.08-255.83,138.08-255.83-7.93,8.63-17.06,9.45-20.25,9.45-.75,0-1.17-.05-1.17-.05,67.41-102.63,38.71-248.43,38.71-248.43l-213.97,127.42-54.8-83.06,65.23-60.02L946.63,0h0Z"/>
    <path class="st6" d="M998.48,273.5l142.35,215.2,3.16,4.77-37.91,18.95-7.55,3.78-5.27,6.6-168.3,210.92-46.41,58.16-3.99,3.97-224.2,223.13-46.46-47.29-.1-.1-.1-.1-183.16-183.58-40.15-50.37-174.28-218.64-7-8.78-10.63-3.61c-4.8-1.63-15.27-6.39-28.34-12.66l2.85-4.47,88.62-138.73,53.82-77.15,323.64,286.51,25.6,22.67,25.43-22.87,318.39-286.32M1005.91,215.27l-351.45,316.05L298.61,216.3l-78.88,113.07-89.04,139.38s-56.75-29.9-71.1-69.69l7.83,91.11s86.98,45.23,108.72,52.62l174.28,218.64-152.02-86.06,37.54,86.06,154.75,50.82,185.87,186.3,73.5,74.8,251.54-250.34,176.83-69.74,34.93-86.44-158.44,90.79,168.3-210.92,114.81-57.41-5.22-70.45s-32.18,39.14-60.02,48.71l-166.88-252.29h0Z"/>
    <path class="st6" d="M822.52,197.49l-.81-.68H222.37L360.54,6.54l116.85,160.64L643.01,20.97l175.81,148.33L932.31,6.58l144.94,190.23h-254.25l-.48.68h0ZM836.36,177.64h202.2l-105.56-138.55-96.63,138.55ZM494.5,177.64h304.49l-155.7-131.37-148.79,131.37h0ZM259.97,177.64h201.34l-100.75-138.51-100.59,138.51h0Z"/>
    <path class="st6" d="M650.34,570.2l-190.61-392.55h379.55l-188.94,392.55ZM490.34,196.81l159.93,329.37,158.52-329.37h-318.45,0Z"/>
    <path class="st6" d="M414.43,647.58s11.62-66.1,60.6-66.1h338.19s65.23,3.04,65.23,66.1c0,0,64.36,3.04,64.36,136.99H350.94s1.74-130.9,63.49-136.99Z"/>
    <g>
      <path class="st5" d="M613.68,555.18c-3.94-2.15-44.58-24.31-44.58-24.31l-90.11-49.15s-39.24-18.32-16.35-55.07,36.28-26.6,36.28-26.6l14.27-25.29s-8.51-10.43,7.03-39.8c15.55-29.37,45.96-84.26,45.96-84.26,0,0,6.1-14.66,19.27-8.42l16.71-30.65s-17.66-10.58.47-41.87c0,0,15.72-46.81,46.41-31.49,30.69,15.32,150.59,84.5,150.59,84.5,0,0,25.18,10.25,14.73,33.74-10.45,23.5-33,50.96-51.17,39.16l-11.94,21.89s3.12,12.12-2.25,24.33c0,0,37.27,14.17,31.9,32.55l148.42,68.8,65.47,27.5s38.48,13.41,57.81,51.41c19.33,38-25.84,72.23-25.84,72.23,0,0-51.23,25.38-108.05-18.87-56.81-44.24-176.14-121.86-176.14-121.86,0,0-18.54,17.57-52.87-3.04,0,0-3.15,12.48-12.51,8.8l-13.89,19.4s23.58,21.85,9.39,44.41c0,0-16.02,57.14-56.89,33.15-40.88-23.99-2.1-1.18-2.1-1.18h0Z"/>
      <path class="st11" d="M791.86,251.11c-2.78,9.52-8.17,18.76-13.45,26.48-4.53,6.62-14.74,5.91-21.56,2.11l-142.7-79.51c-13.8-13.66,5.09-41.9,14.81-46.09,6.47-2.79,14.41-.27,21.41,3.5l88.77,47.71,38.61,21.56c7.45,4.16,17.12,13.92,14.11,24.24h0Z"/>
      <path class="st11" d="M733.65,329.39l-55.73,108c-.88,1.71-3.31,4.87-4.53,5.89-1.52,1.27-5.49-.56-7.89-1.88l-137.06-75.85,52.28-101.16c2.11-5.73,4.86-9.93,10.26-13.56l142.67,78.56h0Z"/>
      <path class="st11" d="M1021.69,571.75c-11.27,6.83-23.96,8.43-36.18,6.26-39.95-7.11-81.7-38.77-116.56-61.6l-120.54-78.95c9.24-13.75,16.62-27.72,21.57-43.05,50.15,23.6,98.9,45.01,149.42,65.56,28.6,12.1,55.7,23.64,81.4,40.15,27.91,17.92,45.26,56.86,20.88,71.63h0Z"/>
      <path class="st11" d="M645.25,534.86c-8.41,10.27-23.17,8.71-33.31,3.02l-127.32-71.52c-8.4-4.72-15.43-13.86-12.29-23.81,2.45-7.76,6.96-16.73,11.78-23.22,6.41-8.63,17.71-7.04,26-2.45l138.22,76.47c6.61,3.65,12.29,10.49,9.46,18.03-2.9,7.71-6.92,16.63-12.54,23.48h0Z"/>
      <rect class="st11" x="665.6" y="192.77" width="20.3" height="148.2" transform="translate(112.24 725.47) rotate(-60.69)"/>
      <rect class="st11" x="580.03" y="354.19" width="20.53" height="150.02" transform="translate(-71.64 736.62) rotate(-60.93)"/>
      <path class="st11" d="M736.48,426.58c-4.47,10.1-15.72,16.37-25.69,12.27-2.5-1.03-6.92-4.56-7.59-6.84-.68-2.29,1-6.93,2.38-9.51l33.68-62.77c4.29.5,12.02,4.63,14.65,8.38,3.73,5.31,2.48,13.51,0,19.11l-17.43,39.37h0Z"/>
      <rect class="st3" x="529.03" y="307.77" width="112.99" height="28.48" transform="translate(29.27 692.3) rotate(-62.46)"/>
      <rect class="st4" x="617.87" y="344.31" width="112.99" height="49.49" transform="translate(35.31 796.36) rotate(-62.46)"/>
      <rect class="st3" x="626.81" y="171.61" width="36.82" height="27.84" transform="translate(182.38 671.85) rotate(-62.46)"/>
      <rect class="st3" x="487.81" y="432.08" width="34.99" height="25.66" transform="translate(-122.84 687.24) rotate(-62.46)"/>
      <path class="st4" d="M690.2,228.11l61.18,33.55s17.55,10.08,23.3-1.81c5.75-11.89,7.24-16.04-5.27-23.3-12.51-7.27-69.02-38.29-69.02-38.29,0,0,31.72,42.68-10.19,29.85h0Z"/>
      <path class="st4" d="M574.71,466.08l57.44,32.44s15.36,9.04,9.54,19.89c-5.82,10.86-11.08,14.42-27.24,6.88s-67.78-36.32-67.78-36.32c0,0,50.95-.55,28.04-22.89h0Z"/>
      <path class="st4" d="M714.12,413.97l-7.5,13.67s9.64,13.21,20.37.52c10.73-12.69-12.87-14.19-12.87-14.19h0Z"/>
      <rect class="st4" x="615.8" y="414.99" width="20.53" height="68.19" transform="translate(-70.62 778.1) rotate(-60.93)"/>
      <polygon class="st4" points="685.82 284.17 694.74 265.89 745.33 294.3 735.39 311.99 685.82 284.17"/>
      <path class="st4" d="M754.11,432.46l87.62,55.28s82.18,52.35,103.77,61.92,42.14,19.21,54.44,17.72c12.29-1.48,16.59-13.49,16.31-17.62,0,0,1.97-14.24-16.03-32.34,0,0,12.94,27.47-37.41,12.51-18.51-5.5-7.15,8.25-204.78-104.32l-3.92,6.85Z"/>
    </g>
    <path class="st8" d="M445.34,653.67h403.14s-.61-42.72-42.71-42.89h-316.08s-44.36,6.36-44.36,42.89Z"/>
    <path class="st8" d="M445.34,676.5h403.14s60.02-8.48,56.75,78.28H386.63s-5.22-80.24,58.71-78.28Z"/>
    <path class="st11" d="M410.54,754.78s-4.35-59.15,26.96-61.32h62.32l-13.99,61.32h-75.29Z"/>
    <path class="st11" d="M565.05,693.46l-8.38,61.32h92.87v-61.32s-85.95-1.46-84.49,0Z"/>
    <path class="st4" d="M649.54,693.46h200.68s38.24,0,34.99,61.32h-235.68s0-62.62,0-61.32Z"/>
    <path class="st11" d="M463.06,653.67s4.13-24.57,18.48-24.79h38.05l-5.44,24.79h-51.1Z"/>
    <path class="st11" d="M579.39,628.88l-6.52,24.79h76.67v-24.79s-70.15-.43-70.15,0h0Z"/>
    <path class="st4" d="M649.54,628.88h159.04s18.92,1.96,20.66,24.79h-181.35l1.65-24.79h0Z"/>
    <rect class="st6" x="1093.03" y="487.66" width="70.41" height="37.05" transform="translate(54.28 1119.17) rotate(-53.88)"/>
    <rect class="st6" x="155.84" y="473.64" width="37.05" height="70.41" transform="translate(-280.5 221.75) rotate(-38.83)"/>
    <g>
      <path class="st1" d="M1110.68,364.6l149.26-90.46c.91,13.35,1.72,42.23-4.68,73.86-5.09,25.16-13.67,47.11-25.52,65.26-13.92,21.32-32.45,37.45-55.12,48l-63.94-96.67h0Z"/>
      <path class="st12" d="M1255.38,282.75c.53,14.92.16,38.81-5.07,64.52-4.98,24.48-13.33,45.8-24.83,63.38-12.59,19.24-29.07,34.08-49.09,44.21l-58.66-88.68,137.65-83.43M1264.21,265.71l-160.56,97.31,69.15,104.54c111.25-47.78,91.41-201.85,91.41-201.85h0Z"/>
    </g>
    <g>
      <path class="st1" d="M129.56,464.62c-23.52-10.92-42.74-27.64-57.17-49.74-12.26-18.78-21.14-41.5-26.4-67.52-6.66-32.93-5.77-62.96-4.81-76.65l154.65,93.73-66.27,100.18h0Z"/>
      <path class="st12" d="M45.73,279.32l143.06,86.7-60.98,92.19c-20.87-10.5-38.05-25.93-51.14-45.95-11.91-18.21-20.56-40.29-25.71-65.63-5.47-26.92-5.8-51.92-5.22-67.31M36.92,262.29s-20.51,159.25,94.48,208.63l71.47-108.05-165.95-100.58h0Z"/>
    </g>
    <g>
      <path class="st12" d="M1126.44,550.69l105.96-52.98c-1.23,11.86-4.85,34.9-15.35,61.27-8.9,22.35-20.94,42.69-35.79,60.46-18.54,22.18-41.55,40.42-68.4,54.21l-139.98,69.49,153.56-192.44h0Z"/>
      <path class="st1" d="M1226.24,506.38c-1.92,12.55-5.86,30.84-13.98,51.11-8.72,21.79-20.49,41.62-34.99,58.93-18.06,21.56-40.48,39.31-66.63,52.75l-119.79,59.46,138.81-173.96,96.58-48.29M1238.03,489.3l-114.81,57.41-168.3,210.92,160.23-79.54c120.68-61.97,122.88-188.79,122.88-188.79h0Z"/>
    </g>
    <g>
      <path class="st12" d="M190.08,671.77c-27.26-14.81-50.52-34.15-69.08-57.44-14.86-18.66-26.77-39.89-35.4-63.12-10.25-27.59-13.39-51.55-14.35-63.71l108.03,57.2,153.82,202.27-143.03-75.21Z"/>
      <path class="st1" d="M77.19,496.3l98.79,52.31,139.51,183.45-123.01-64.68c-26.63-14.48-49.31-33.31-67.4-55.97-14.53-18.19-26.18-38.9-34.64-61.57-7.98-21.38-11.6-40.55-13.24-53.54M65.83,478.97s-.78,130.56,121.93,197.22l162.98,85.7-168.13-221.09-116.77-61.83h0Z"/>
    </g>
    <g>
      <path class="st4" d="M904.39,827.29l156.54-61.74c-3.05,10.34-12.38,30.73-40.96,59.09-25.02,24.82-59.6,50.71-102.79,76.96-48.48,29.46-107.96,59.42-177.11,89.23l164.33-163.54h0Z"/>
      <path class="st10" d="M1052.09,774.42c-5.36,11.16-16.11,27.66-37.68,48.68-25.03,24.38-59.39,49.83-102.14,75.63-41.99,25.35-92.2,51.09-149.72,76.78l144.63-143.95,144.9-57.15M1067.4,757.63l-165.8,65.39-183.39,182.52c353.79-147.67,349.2-247.91,349.2-247.91h0Z"/>
    </g>
    <g>
      <path class="st4" d="M563.61,991.12c-69.37-29.88-129.04-59.93-177.65-89.46-43.19-26.25-77.78-52.14-102.79-76.96-29.1-28.87-38.24-49.49-41.12-59.66l145.96,48.33,175.6,177.75Z"/>
      <path class="st10" d="M250.39,773.06l134.91,44.67,156.41,158.33c-57.99-25.86-108.57-51.77-150.84-77.28-42.75-25.8-77.11-51.25-102.14-75.63-22.5-21.92-33.22-38.93-38.34-50.08M235.74,757.68s-4.59,100.24,349.2,247.91l-194.21-196.59-154.98-51.32h0Z"/>
    </g>
    <path class="st3" d="M440.21,76.52s15.3,95.14,74.89,79.24c0,0-54.87,2.14-27.05,106.43,0,0-22.22-93.29-77.05-78.67,0,0,56.76-3.7,29.2-107.01h0Z"/>
  </g>
  <g>
    <g>
      <rect class="st6" x="514.37" y="949.29" width="273.4" height="125.71" rx="52.56" ry="52.56"/>
      <path class="st11" d="M735.21,954.29c26.23,0,47.56,21.34,47.56,47.56v20.58c0,26.23-21.34,47.56-47.56,47.56h-168.28c-26.23,0-47.56-21.34-47.56-47.56v-20.58c0-26.23,21.34-47.56,47.56-47.56h168.28M735.21,944.29h-168.28c-31.79,0-57.56,25.77-57.56,57.56v20.58c0,31.79,25.77,57.56,57.56,57.56h168.28c31.79,0,57.56-25.77,57.56-57.56v-20.58c0-31.79-25.77-57.56-57.56-57.56h0Z"/>
    </g>
    <rect class="st11" x="628.98" y="981.12" width="14.04" height="63.06"/>
    <rect class="st11" x="659.11" y="981.12" width="14.04" height="63.06"/>
  </g>
</svg>