<?xml version="1.0" encoding="UTF-8"?>
<svg id="Layer_1" data-name="Layer 1" xmlns="http://www.w3.org/2000/svg" viewBox="0 0 1302.1398 1080">
  <defs>
    <style>
      .cls-1 {
        fill: #0a8659;
      }

      .cls-2 {
        fill: #e7ebed;
      }

      .cls-3 {
        fill: #afdfda;
      }

      .cls-4 {
        fill: #fff;
      }

      .cls-5 {
        fill: #1ca280;
      }

      .cls-6 {
        stroke: #105640;
        stroke-miterlimit: 10;
        stroke-width: 15px;
      }

      .cls-6, .cls-7 {
        fill: #105640;
      }

      .cls-8 {
        fill: #dafff6;
      }

      .cls-9 {
        fill: #c9f7e2;
      }

      .cls-10 {
        fill: #079667;
      }

      .cls-11 {
        fill: #9bedbb;
      }

      .cls-12 {
        fill: #3dd8a1;
      }

      .cls-13 {
        fill: #a0b3b5;
      }

      .cls-14 {
        fill: #055c43;
      }
    </style>
  </defs>
  <g>
    <g>
      <polygon class="cls-12" points="395.9533 759.6855 205.1071 528.4785 164.5949 474.0879 357.2238 199.7368 948.3722 200.7207 1133.6242 467.356 895.922 790.9463 645.7736 1031.8232 395.9533 759.6855"/>
      <path class="cls-11" d="M363.713,212.2474l578.116.9621,176.4332,253.9437-231.7822,315.5319-240.1548,231.2542-240.9421-262.465-190.4369-230.712-34.9259-46.8905,183.6927-261.6243M350.7345,187.2258l-201.5647,287.0786,46.0986,61.8905,191.254,231.702,258.7007,281.8101,260.1391-250.4979,243.6229-331.6511-194.0687-279.3267-604.1818-1.0054h0Z"/>
    </g>
    <path class="cls-10" d="M368.0981,284.6687l-133.4488,188.548s172.7692,255.3903,412.2316,463.8123c0,0,334.0347-317.0362,411.0189-464.7908l-143.1798-204.5079-546.6218,16.9384Z"/>
    <polygon class="cls-14" points="640.5206 915.8281 1049.4194 477.1308 640.5206 532.2534 640.5206 915.8281"/>
    <polygon class="cls-1" points="255.8586 472.2383 640.5206 532.2534 640.5206 902.7813 255.8586 472.2383"/>
    <path class="cls-7" d="M898.1443,304.0819l119.1416,170.1734c-35.7208,58.6599-110.394,148.1563-217.8089,260.8876-62.2538,65.3349-120.7141,122.8686-151.9703,153.2053-110.9551-99.9838-205.3382-208.0077-266.5946-283.2702-47.6392-58.5318-82.6821-106.2579-100.8754-131.7558l108.609-153.4522,509.4985-15.7881M916.3591,267.7303l-546.6217,16.9384-133.4489,188.5481s172.7692,255.3901,412.2315,463.8121c0,0,334.0347-317.0362,411.0189-464.7907l-143.1799-204.5079h0Z"/>
    <polygon class="cls-8" points="360.5505 22.8367 932.6509 22.8367 1049.4194 187.2258 645.895 548.1862 234.6493 187.2258 360.5505 22.8367"/>
    <path class="cls-3" d="M683.1316,118.2955l147.4284-70.4525s97.8507,93.9367,97.8507,123.2919-234.8417,338.5634-234.8417,338.5634l78.2806-322.4724-88.718-68.9304Z"/>
    <polygon class="cls-3" points="325.6504 187.2258 591.8043 464.6869 660.2998 447.0738 673.9989 339.438 325.6504 187.2258"/>
    <path class="cls-7" d="M927.8845,38.3249l112.7472,145.0086-39.2749,36.133-24.0029,22.083,17.9603,27.2255,54.7964,83.0643,20.154,30.5513,31.4463-18.7273,161.9755-96.4611c.1605,6.5949.1793,13.582-.0055,20.8658-1.0144,39.9756-8.4913,97.1719-38.352,142.6372l-34.4367,52.433,44.982,4.84c-2.5527,16.4655-6.5143,35.9013-12.655,55.8628-9.0117,29.2947-20.8778,53.93-35.2686,73.2212-16.6723,22.35-36.0915,36.986-59.3672,44.7448l-15.6555,5.2216-6.9674,14.9569c-.3832.8229-38.715,82.8313-71.9869,130.3045l-.1579.2251-.1543.2271c-.3214.4727-34.3416,48.3552-113.4709,87.1589l-.3704.1817-.3666.1896-264.5991,136.9009-246.6775-118.6206c-3.9332-2.0797-31.3-16.7197-62.0288-37.4187-53.7564-36.2111-72.7039-60.2654-79.2772-71.6989l-60.7194-119.8806-7.0952-14.0085-14.8846-5.0024c-.2491-.0838-26.1483-9.7243-53.9637-39.9153-17.6864-19.197-32.2948-42.5187-43.4193-69.3177-8.8089-21.2201-15.438-44.6581-19.8337-70.061l61.7391.4603-51.2925-62.4909c-1.3577-1.8685-14.4489-20.4252-25.0141-54.7804-6.5265-21.2228-10.8362-44.2609-12.8097-68.4745-1.0121-12.4181-1.4079-25.1691-1.1897-38.1866l162.9494,95.6808,30.4542,17.8821,20.3068-28.8939,57.0795-81.216,19.793-28.1626-25.8833-22.6924-40.5191-35.5237,111.9905-146.5267h553.3252M946.6324,0H355.6142l-145.2538,190.0479,67.4625,59.1454-57.0795,81.216L5.3087,203.9102c-24.1365,165.0414,41.8584,248.8668,41.8584,248.8668-4.8926,0-24.1365-10.1111-24.1365-10.1111,12.0682,218.2069,148.9316,264.2054,148.9316,264.2054l61.1212,120.674c33.9216,60.6672,157.8657,125.2487,157.8657,125.2487l264.5314,127.206,281.5842-145.6889c90.4576-44.359,128.2932-100.0254,128.2932-100.0254,35.661-50.8821,75.3448-136.1209,75.3448-136.1209,135.0341-45.0115,138.0784-255.8253,138.0784-255.8253-7.9254,8.6297-17.0631,9.4498-20.2504,9.4498-.7479,0-1.1682-.0451-1.1682-.0451,67.4084-102.6347,38.7053-248.4322,38.7053-248.4322l-213.9666,127.4232-54.7963-83.0643,65.2337-60.0152L946.6324,0h0Z"/>
    <path class="cls-7" d="M998.4806,273.4994l142.3521,215.2025,3.1571,4.7728-37.9098,18.9549-7.5515,3.7758-5.2658,6.5992-168.303,210.9226-46.408,58.1599-3.9902,3.9714-224.1995,223.131-46.4646-47.2889-.1025-.1046-.1035-.1037-183.1589-183.5796-40.1469-50.3653-174.2831-218.6418-6.9997-8.7812-10.6318-3.6148c-4.8005-1.6323-15.2723-6.3878-28.3404-12.656l2.8539-4.4673,88.6244-138.7259,53.8162-77.1457,323.6402,286.5053,25.6041,22.6661,25.4262-22.8656,318.3852-286.3212M1005.9147,215.2715l-351.446,316.0526L298.6107,216.2976l-78.8792,113.0736-89.044,139.3826s-56.7535-29.8987-71.1049-69.6914l7.828,91.1099s86.9785,45.2287,108.723,52.6221l174.283,218.6417-152.0214-86.0625,37.5361,86.0625,154.7542,50.8232,185.8748,186.3017,73.4976,74.8015,251.5384-250.3395,176.8293-69.7411,34.9278-86.4432-158.437,90.7924,168.303-210.9226,114.8116-57.4058-5.2186-70.4526s-32.1821,39.1404-60.0151,48.7081l-166.8825-252.2866h0Z"/>
    <path class="cls-7" d="M822.5162,197.4892l-.8097-.6824H222.3742L360.5445,6.5398l116.8521,160.6431L643.0057,20.9665l175.8103,148.3304L932.3084,6.5785l144.9371,190.2283h-254.254l-.4753.6824ZM836.3578,177.6443h202.196l-105.5618-138.5496-96.6343,138.5496ZM494.5006,177.6443h304.493l-155.7034-131.3662-148.7895,131.3662ZM259.9717,177.6443h201.3383l-100.7531-138.5109-100.5853,138.5109Z"/>
    <path class="cls-7" d="M650.3425,570.199l-190.61-392.5547h379.5495l-188.9395,392.5547ZM490.3388,196.8068l159.9289,329.3654,158.5242-329.3654h-318.4531Z"/>
    <path class="cls-7" d="M414.4311,647.5813s11.6166-66.1036,60.6047-66.1036h338.1912s65.2338,3.0442,65.2338,66.1036c0,0,64.364,3.0442,64.364,136.991H350.9369s1.7396-130.9025,63.4942-136.991Z"/>
    <g>
      <path class="cls-6" d="M613.6752,555.1803c-3.942-2.15-44.5807-24.3145-44.5807-24.3145l-90.1135-49.1482s-39.2359-18.3226-16.3529-55.0712c22.883-36.7486,36.2824-26.6004,36.2824-26.6004l14.2661-25.2891s-8.5128-10.4287,7.0323-39.7987c15.5451-29.3699,45.956-84.2605,45.956-84.2605,0,0,6.1019-14.6595,19.269-8.4249l16.7144-30.6459s-17.6612-10.5792.471-41.8719c0,0,15.7224-46.8077,46.412-31.4895,30.6896,15.3181,150.5868,84.4973,150.5868,84.4973,0,0,25.1802,10.2456,14.7304,33.7448-10.4498,23.4992-32.9977,50.9634-51.1749,39.1561l-11.9388,21.8899s3.1238,12.1176-2.2524,24.3328c0,0,37.2719,14.1746,31.9014,32.5465l148.4198,68.803,65.472,27.5s38.4788,13.4128,57.813,51.4124c19.3342,37.9996-25.8416,72.2272-25.8416,72.2272,0,0-51.2349,25.3752-108.0497-18.8658-56.8148-44.241-176.1421-121.8593-176.1421-121.8593,0,0-18.5377,17.5737-52.869-3.0441,0,0-3.1541,12.4805-12.507,8.7994l-13.8939,19.4036s23.5799,21.8543,9.3858,44.4076c0,0-16.0156,57.1376-56.894,33.1476-40.8784-23.99-2.1018-1.1843-2.1018-1.1843Z"/>
      <path class="cls-12" d="M791.8616,251.1128c-2.7751,9.5217-8.1718,18.7642-13.4499,26.4785-4.532,6.6239-14.7395,5.9103-21.5632,2.1085l-142.7004-79.5059c-13.804-13.665,5.0881-41.8955,14.8083-46.0863,6.4748-2.7916,14.4055-.2677,21.4097,3.4964l88.774,47.7088,38.6118,21.5592c7.4476,4.1584,17.1187,13.9166,14.1097,24.2408Z"/>
      <path class="cls-12" d="M733.6498,329.3853l-55.7312,107.9998c-.8835,1.712-3.3063,4.871-4.5261,5.8884-1.5248,1.2719-5.4921-.556-7.8894-1.8826l-137.0629-75.8475,52.2813-101.1595c2.1079-5.7251,4.8599-9.9343,10.2591-13.5555l142.6693,78.5568Z"/>
      <path class="cls-12" d="M1021.688,571.7535c-11.2727,6.8317-23.9612,8.4329-36.1764,6.259-39.9513-7.1099-81.7041-38.767-116.5649-61.6005l-120.5352-78.9495c9.2368-13.7533,16.6245-27.7212,21.5749-43.0493,50.1519,23.5951,98.8987,45.0135,149.4166,65.5583,28.6027,12.0991,55.6956,23.6447,81.4042,40.1525,27.9063,17.9189,45.2578,56.8561,20.8808,71.6295Z"/>
      <path class="cls-12" d="M645.2487,534.8631c-8.4142,10.2681-23.1673,8.7123-33.3098,3.0154l-127.3224-71.5155c-8.4019-4.7193-15.4336-13.8617-12.285-23.8137,2.4543-7.7576,6.9567-16.731,11.7774-23.2159,6.4141-8.6281,17.7096-7.0386,25.9957-2.4544l138.2232,76.4699c6.6066,3.655,12.2906,10.4908,9.4607,18.0299-2.8953,7.7134-6.9205,16.6269-12.5398,23.4844Z"/>
      <rect class="cls-12" x="665.5959" y="192.7668" width="20.2986" height="148.2046" transform="translate(112.2406 725.4683) rotate(-60.6902)"/>
      <rect class="cls-12" x="580.0335" y="354.1887" width="20.5333" height="150.023" transform="translate(-71.6363 736.6205) rotate(-60.9318)"/>
      <path class="cls-12" d="M736.4752,426.5752c-4.4723,10.0984-15.7153,16.3724-25.6907,12.265-2.4957-1.0276-6.9154-4.5553-7.5906-6.8416-.6752-2.2863.9994-6.931,2.3825-9.5089l33.6788-62.7684c4.2867.4986,12.0182,4.6272,14.6535,8.3783,3.7335,5.3144,2.4797,13.5123.0013,19.1085l-17.4348,39.3671Z"/>
      <rect class="cls-4" x="529.0336" y="307.7718" width="112.9922" height="28.4766" transform="translate(29.2706 692.2956) rotate(-62.459)"/>
      <rect class="cls-5" x="617.8682" y="344.3122" width="112.9922" height="49.491" transform="translate(35.3134 796.357) rotate(-62.459)"/>
      <rect class="cls-4" x="626.8121" y="171.6095" width="36.8219" height="27.8391" transform="translate(182.3778 671.8499) rotate(-62.459)"/>
      <rect class="cls-4" x="487.8086" y="432.0846" width="34.988" height="25.6634" transform="translate(-122.8394 687.2362) rotate(-62.459)"/>
      <path class="cls-5" d="M690.1966,228.11l61.1751,33.5489s17.5513,10.0824,23.3018-1.8112c5.7505-11.8936,7.2406-16.0375-5.2717-23.3031-12.5122-7.2657-69.0181-38.2881-69.0181-38.2881,0,0,31.717,42.6817-10.1872,29.8536Z"/>
      <path class="cls-5" d="M574.7098,466.0784l57.4376,32.4386s15.3567,9.0371,9.5367,19.8943c-5.8201,10.8572-11.0828,14.4201-27.244,6.8765-16.1612-7.5436-67.7751-36.3208-67.7751-36.3208,0,0,50.9546-.5477,28.0449-22.8886Z"/>
      <path class="cls-5" d="M714.1217,413.9684l-7.5006,13.6688s9.637,13.2125,20.366.5236c10.729-12.6888-12.8655-14.1924-12.8655-14.1924Z"/>
      <rect class="cls-5" x="615.7989" y="414.9871" width="20.5322" height="68.1858" transform="translate(-70.6235 778.1018) rotate(-60.9318)"/>
      <polygon class="cls-5" points="685.824 284.1677 694.7419 265.8945 745.3308 294.295 735.3919 311.994 685.824 284.1677"/>
      <path class="cls-5" d="M754.1107,432.4632l87.6226,55.2799s82.1819,52.3455,103.7672,61.9171,42.1438,19.2089,54.4388,17.7245c12.2949-1.4843,16.5858-13.4891,16.3133-17.6204,0,0,1.9653-14.2372-16.0338-32.3439,0,0,12.9423,27.474-37.4051,12.5135-18.5086-5.4998-7.1488,8.2523-204.7826-104.3214l-3.9204,6.8507Z"/>
    </g>
    <path class="cls-9" d="M445.3356,653.6698h403.1448s-.6147-42.7184-42.7093-42.8863h-316.0765s-44.359,6.3554-44.359,42.8863Z"/>
    <path class="cls-9" d="M445.3356,676.5016h403.1448s60.0151-8.4804,56.7534,78.2806H386.6252s-5.2187-80.2376,58.7104-78.2806Z"/>
    <path class="cls-12" d="M410.5443,754.7821s-4.3489-59.1453,26.9633-61.3198h62.3171l-13.9886,61.3198h-75.2918Z"/>
    <path class="cls-12" d="M565.0491,693.4624l-8.3811,61.3198h92.8682v-61.3198s-85.9502-1.463-84.4871,0Z"/>
    <path class="cls-5" d="M649.5362,693.4624h200.6838s38.2393,0,34.9932,61.3198h-235.677s0-62.6244,0-61.3198Z"/>
    <path class="cls-12" d="M463.0575,653.6698s4.1315-24.5714,18.4829-24.7888h38.053l-5.4361,24.7888h-51.0998Z"/>
    <path class="cls-12" d="M579.3911,628.8809l-6.5234,24.7888h76.6685v-24.7888s-70.1451-.4349-70.1451,0Z"/>
    <path class="cls-5" d="M649.5362,628.8809h159.0429s18.9178,1.957,20.6574,24.7888h-181.3499l1.6497-24.7888Z"/>
    <rect class="cls-7" x="1093.027" y="487.6609" width="70.4107" height="37.0473" transform="translate(54.279 1119.1732) rotate(-53.8803)"/>
    <rect class="cls-7" x="155.8445" y="473.6409" width="37.0477" height="70.4115" transform="translate(-280.4965 221.7453) rotate(-38.8255)"/>
    <g>
      <path class="cls-2" d="M1110.6847,364.5952l149.2568-90.458c.9111,13.3516,1.7207,42.2275-4.6758,73.8574-5.0869,25.1558-13.6748,47.1133-25.5225,65.2642-13.917,21.3188-32.4463,37.4526-55.1152,48.0039l-63.9434-96.6675Z"/>
      <path class="cls-13" d="M1255.3791,282.7485c.5309,14.924.1605,38.8145-5.0675,64.517-4.979,24.4789-13.3346,45.8033-24.8345,63.381-12.5863,19.2382-29.0745,34.0781-49.0942,44.2065l-58.6586-88.6779,137.6548-83.4266M1264.2066,265.7053l-160.5624,97.3099,69.1531,104.5428c111.2502-47.7754,91.4093-201.8527,91.4093-201.8527h0Z"/>
    </g>
    <g>
      <path class="cls-2" d="M129.5641,464.6235c-23.5205-10.9185-42.7407-27.6362-57.1689-49.7412-12.2573-18.7788-21.1406-41.4951-26.4019-67.5176-6.6572-32.9258-5.7651-62.9629-4.8149-76.6475l154.6514,93.728-66.2656,100.1782Z"/>
      <path class="cls-13" d="M45.7278,279.3212l143.0621,86.7037-60.9848,92.1945c-20.8661-10.4993-38.0461-25.9265-51.1435-45.9488-11.9093-18.2061-20.5609-40.2888-25.7144-65.6346-5.4738-26.9212-5.7987-51.9154-5.2195-67.3148M36.9185,262.2891s-20.507,159.2488,94.4774,208.6277l71.474-108.0518-165.9514-100.5759h0Z"/>
    </g>
    <g>
      <path class="cls-13" d="M1126.4416,550.6875l105.96-52.98c-1.2334,11.8574-4.8486,34.9043-15.3477,61.269-8.9004,22.3486-20.9414,42.6904-35.79,60.459-18.5371,22.1816-41.5498,40.4199-68.4004,54.208l-139.9795,69.4863,153.5576-192.4424Z"/>
      <path class="cls-2" d="M1226.2426,506.3772c-1.9163,12.5493-5.8647,30.835-13.9781,51.1096-8.7209,21.7928-20.4946,41.6194-34.9939,58.929-18.0627,21.5635-40.4811,39.3111-66.6304,52.749l-119.7877,59.4631,138.8096-173.9604,96.5806-48.2903M1238.0311,489.3026l-114.8115,57.4058-168.3031,210.9225,160.231-79.5392c120.6825-61.9721,122.8837-188.7891,122.8837-188.7891h0Z"/>
    </g>
    <g>
      <path class="cls-13" d="M190.0822,671.7666c-27.2598-14.8115-50.5205-34.1465-69.0762-57.4365-14.8638-18.6553-26.7744-39.8916-35.4019-63.1201-10.2476-27.5908-13.3882-51.5518-14.3501-63.7129l108.0342,57.2031,153.8213,202.2725-143.0273-75.2061Z"/>
      <path class="cls-2" d="M77.1889,496.2969l98.7858,52.3063,139.5097,183.4521-123.0122-64.681c-26.628-14.4775-49.3067-33.3086-67.4042-55.9695-14.5252-18.1879-26.1803-38.9037-34.6416-61.5721-7.9806-21.3808-11.5979-40.5492-13.2376-53.5358M65.8302,478.9672s-.7781,130.5557,121.925,197.2249l162.9794,85.6961-168.1335-221.0917-116.7709-61.8293h0Z"/>
    </g>
    <g>
      <path class="cls-5" d="M904.3908,827.2949l156.5361-61.7373c-3.0479,10.3369-12.3818,30.7344-40.9619,59.0908-25.0166,24.8203-59.6006,50.7129-102.792,76.959-48.4775,29.457-107.9648,59.4238-177.1084,89.2314l164.3262-163.5439Z"/>
      <path class="cls-11" d="M1052.0888,774.4189c-5.3562,11.1579-16.1068,27.6643-37.6798,48.6802-25.0266,24.3803-59.3907,49.8263-102.1379,75.6312-41.9941,25.3503-92.2019,51.0931-149.719,76.7827l144.6342-143.9451,144.9025-57.1489M1067.399,757.6309l-165.8029,65.392-183.3934,182.5197c353.7876-147.6685,349.1963-247.9117,349.1963-247.9117h0Z"/>
    </g>
    <g>
      <path class="cls-5" d="M563.6135,991.1152c-69.3721-29.8838-129.0435-59.9297-177.6455-89.4629-43.1919-26.2461-77.7759-52.1377-102.792-76.958-29.0952-28.8682-38.2446-49.4854-41.1201-59.6602l145.958,48.3291,175.5996,177.752Z"/>
      <path class="cls-11" d="M250.3942,773.0618l134.907,44.67,156.4087,158.3266c-57.9874-25.8561-108.5724-51.7676-150.84-77.283-42.7471-25.8048-77.1112-51.2508-102.1378-75.6311-22.4968-21.9157-33.2238-38.9261-38.3379-50.0826M235.7421,757.6763s-4.5914,100.2431,349.1962,247.9117l-194.2122-196.5938-154.984-51.3179h0Z"/>
    </g>
    <path class="cls-4" d="M440.2126,76.5178s15.2974,95.1379,74.893,79.2416c0,0-54.8653,2.1404-27.0468,106.4327,0,0-22.2241-93.2903-77.0494-78.6664,0,0,56.7603-3.6958,29.2032-107.0079Z"/>
  </g>
  <g>
    <g>
      <rect class="cls-7" x="514.3674" y="949.29" width="273.4043" height="125.71" rx="52.5635" ry="52.5635"/>
      <path class="cls-12" d="M735.2093,954.29c26.2262,0,47.5627,21.3365,47.5627,47.5627v20.5846c0,26.2261-21.3365,47.5627-47.5627,47.5627h-168.2789c-26.2262,0-47.5627-21.3365-47.5627-47.5627v-20.5846c0-26.2262,21.3365-47.5627,47.5627-47.5627h168.2789M735.2093,944.29h-168.2789c-31.791,0-57.5627,25.7717-57.5627,57.5627v20.5846c0,31.791,25.7717,57.5627,57.5627,57.5627h168.2789c31.791,0,57.5627-25.7717,57.5627-57.5627v-20.5846c0-31.791-25.7717-57.5627-57.5627-57.5627h0Z"/>
    </g>
    <rect class="cls-12" x="644.0486" y="981.1237" width="14.0426" height="63.0638"/>
  </g>
</svg>